# Blender 3.5.1
# www.blender.org
mtllib cloud1.mtl
o Icosphere.001_Icosphere.015
v -2.037918 28.962986 -9.599085
v 0.223355 26.126219 -14.216681
v -1.755140 28.791462 -9.430950
v -0.158774 29.790245 -5.529428
v -3.130775 28.564196 -15.675209
v 1.344624 28.192730 -11.807932
v 2.006301 27.344538 -10.673231
v -2.166186 29.167809 -9.250744
v 0.380801 28.244526 -19.834072
v -0.669633 28.387375 -10.565740
v 2.106405 28.410706 -13.148150
v 4.901197 30.079828 -7.263959
v -2.671553 32.623474 -8.221642
v -2.427956 29.749184 -9.859452
v 3.418637 29.082661 -15.756408
v -2.436320 30.079838 -17.000565
v -1.077343 29.000898 -18.305790
v -0.744762 28.809038 -18.648209
v 0.002561 29.294456 -19.709564
v 1.738692 33.274200 -5.480822
v 5.513420 29.974506 -12.549822
v -3.608883 33.387798 -12.728750
v 0.825918 29.542374 -19.526039
v 1.908548 30.135454 -18.145350
v 1.957216 30.167437 -18.084595
v 1.997228 30.302135 -18.061344
v 2.338865 31.974873 -17.991598
v 2.319982 32.741707 -18.207121
v 0.316045 29.166193 -19.679638
v 0.433118 29.245935 -19.645561
v -2.447201 33.058872 -15.938798
v -2.586231 31.302944 -16.177013
v -2.608998 30.378382 -16.436865
v -2.458707 30.086506 -16.938593
v 3.427005 29.526026 -13.958689
v 5.421064 33.865978 -10.932404
v 2.170097 36.099464 -11.375854
v -1.995387 32.749172 -10.828632
v -2.481446 30.362335 -9.813635
v 2.275495 33.303562 -18.283346
v 3.680466 32.754253 -14.919626
v 0.171064 36.681641 -14.563261
v -0.363860 35.166119 -16.374119
v -1.434230 34.432777 -15.461256
v -2.104767 33.817307 -15.197326
v -2.130720 33.757111 -15.258877
v -2.226502 33.561539 -15.433577
v 3.735300 32.597076 -14.834197
v 4.065502 33.621414 -14.910645
v -0.934387 33.778625 -10.451244
v 2.264606 33.385296 -18.282654
v 3.597714 33.659523 -14.816173
v 0.798686 35.176907 -11.059839
v 1.786420 33.948063 -17.900612
v 0.008565 35.166119 -16.384375
v 3.428051 29.528896 -13.965331
v 3.677407 34.219318 -14.171391
v 3.785095 34.109802 -14.236011
v 2.261753 33.419525 -18.286921
v 3.788417 34.152077 -14.279313
v 1.285329 35.313866 -12.143274
v 2.143395 33.620403 -18.041124
v 3.738128 34.167648 -14.175179
v 3.785473 34.087185 -14.302885
v 3.767226 34.090103 -14.339717
v 1.099322 30.221350 -21.574287
v 1.314868 30.352093 -21.446127
v -1.263443 29.764971 -19.762455
v -0.117492 30.982662 -24.548185
v 0.271906 29.913338 -20.709305
v -1.844103 29.931124 -18.740885
v -1.767801 29.118443 -20.627371
v 1.412641 30.508215 -21.711645
v -2.844341 30.443314 -16.752766
v -3.974408 31.203394 -23.226053
v 1.797851 33.142269 -22.496067
v 1.612171 30.951365 -21.247665
v -2.850719 30.781263 -18.123058
v -4.441069 31.123114 -19.196955
v -1.563820 33.638271 -24.585234
v 2.512322 33.724865 -19.060568
v -3.085715 33.122143 -17.455711
v -4.370672 34.089352 -20.429819
v -1.892651 35.791805 -20.091799
v 1.282451 33.238079 -20.508913
v 1.652943 31.418734 -21.282589
v -3.043920 33.241951 -17.390594
v -2.851516 30.783453 -18.117998
v -3.337407 33.902935 -17.397442
v 0.473712 34.022766 -20.796577
v -0.368908 36.235565 -17.662231
v -2.980841 33.931984 -17.469454
v -3.041584 34.358681 -17.960930
v -3.123672 34.275204 -17.911676
v -0.847309 35.088596 -20.332680
v -3.126204 34.307430 -17.878668
v -3.087870 34.319298 -17.958042
v -1.218245 35.192993 -19.506840
v -3.123961 34.257969 -17.860699
v -3.110048 34.260189 -17.832623
vn -0.6254 -0.7632 0.1626
vn 0.2887 -0.7808 0.5542
vn -0.2411 -0.9119 0.3321
vn -0.8828 0.0860 0.4618
vn -0.4597 -0.8266 -0.3246
vn 0.7032 -0.6787 0.2118
vn 0.2170 -0.8430 0.4922
vn -0.9690 -0.1914 0.1561
vn 0.5790 -0.7681 -0.2734
vn -0.7563 -0.1986 -0.6233
vn -0.3434 -0.8372 -0.4256
vn 0.3281 -0.1916 0.9250
vn 0.6274 -0.7737 0.0881
vn -0.5361 0.2809 0.7960
vn 0.8076 -0.1411 -0.5726
vn 0.1640 0.1742 -0.9710
vn -0.9294 0.1209 -0.3487
vn 0.4251 -0.8279 -0.3659
vn 0.7295 0.4216 0.5385
vn 0.9930 -0.0244 0.1155
vn -0.3624 0.8506 0.3811
vn -0.9962 -0.0873 0.0050
vn 0.9238 0.0213 -0.3824
vn -0.7059 0.6318 -0.3202
vn 0.9713 -0.2320 0.0527
vn 0.4786 0.7776 0.4077
vn 0.9316 0.1581 -0.3272
vn -0.5416 0.8358 0.0898
vn -0.6271 0.4016 0.6675
vn 0.9225 0.1260 -0.3648
vn -0.4772 0.7732 0.4176
vn -0.0176 0.7693 -0.6386
vn 0.6094 0.7537 -0.2462
vn 0.6986 -0.1379 -0.7021
vn 0.9319 0.0333 -0.3611
vn -0.1897 0.0943 -0.9773
vn 0.5677 0.8200 0.0730
vn 0.5552 0.7547 -0.3495
vn -0.1611 0.7765 -0.6091
vn -0.0709 0.7525 -0.6548
vn 0.8723 0.3147 0.3742
vn 0.9983 -0.0540 0.0239
vn 0.5901 -0.7840 -0.1927
vn -0.2680 -0.7852 -0.5583
vn 0.2411 -0.9119 -0.3321
vn 0.6254 -0.7632 -0.1626
vn -0.6759 -0.6847 -0.2728
vn 0.8828 0.0860 -0.4618
vn 0.6800 -0.7135 -0.1691
vn 0.3434 -0.8372 0.4256
vn -0.7140 -0.6752 -0.1853
vn -0.2170 -0.8430 -0.4922
vn 0.9526 -0.2542 -0.1669
vn -0.5790 -0.7681 0.2734
vn -0.4251 -0.8279 0.3659
vn -0.3281 -0.1916 -0.9250
vn -0.6274 -0.7737 -0.0881
vn 0.5361 0.2809 -0.7960
vn 0.9690 -0.1914 -0.1561
vn -0.8076 -0.1411 0.5726
vn -0.9713 -0.2319 -0.0527
vn -0.7295 0.4216 -0.5385
vn -0.9930 -0.0244 -0.1155
vn 0.3624 0.8506 -0.3811
vn 0.9962 -0.0873 -0.0050
vn 0.9294 0.1209 0.3487
vn -0.9238 0.0213 0.3824
vn -0.4786 0.7776 -0.4077
vn -0.9316 0.1581 0.3272
vn 0.6100 0.7896 0.0662
vn 0.6271 0.4016 -0.6675
vn 0.7059 0.6318 0.3202
vn -0.9225 0.1260 0.3647
vn -0.6599 -0.2652 0.7030
vn -0.6094 0.7537 0.2462
vn 0.4714 0.7752 -0.4205
vn 0.0176 0.7693 0.6386
vn -0.9319 0.0333 0.3611
vn 0.1897 0.0943 0.9773
vn 0.1611 0.7765 0.6091
vn -0.5552 0.7547 0.3495
vn 0.0709 0.7525 0.6548
vn -0.5502 0.8097 -0.2043
vn -0.8723 0.3147 -0.3742
vn -0.9983 -0.0540 -0.0239
vn -0.5901 -0.7840 0.1927
vn -0.6800 -0.7135 0.1691
vn 0.2652 -0.7893 0.5537
vn -0.6407 -0.6390 0.4257
vn -0.3636 -0.9314 -0.0162
vn -0.3933 -0.8485 0.3541
vn -0.8371 -0.3227 0.4418
vn 0.6759 -0.6847 0.2728
vn 0.7115 -0.6830 0.1651
vn -0.9526 -0.2542 0.1669
vn -0.9591 -0.1034 0.2636
vn -0.7563 -0.1985 -0.6233
vn -0.4201 -0.8271 -0.3733
vn 0.4826 -0.8113 -0.3300
vn 0.3959 -0.8640 -0.3112
vn -0.9649 0.0920 -0.2458
vn 0.8772 0.0463 -0.4778
vn 0.9954 -0.0945 0.0183
vn -0.6643 0.7348 -0.1369
vn -0.5759 0.8022 -0.1573
vn -0.6479 0.7531 -0.1146
vn -0.6225 0.4102 0.6665
vn -0.4714 0.7752 0.4205
vn 0.5725 0.7892 -0.2221
vn 0.6397 0.7234 -0.2597
vn 0.6660 0.7078 -0.2356
vn 0.6181 0.7448 -0.2515
vn 0.6360 0.7261 -0.2613
vn 0.5954 -0.2565 -0.7614
vn 0.5795 -0.2753 -0.7671
vn 0.9320 0.0327 -0.3610
vn 0.8936 0.1169 -0.4334
vn 0.9320 0.0325 -0.3610
vn 0.4151 0.8605 0.2952
vn 0.6422 0.7401 0.1995
vn 0.5467 0.8114 0.2069
vn -0.2703 -0.7893 -0.5513
vn -0.2887 -0.7808 -0.5542
vn -0.2684 -0.7850 -0.5583
vn 0.6407 -0.6390 -0.4257
vn 0.3636 -0.9314 0.0162
vn 0.3933 -0.8485 -0.3541
vn 0.8371 -0.3227 -0.4418
vn 0.4201 -0.8271 0.3733
vn -0.6945 -0.6993 -0.1692
vn -0.4826 -0.8113 0.3300
vn -0.3960 -0.8638 0.3115
vn 0.9591 -0.1034 -0.2636
vn -0.9954 -0.0945 -0.0183
vn 0.9649 0.0920 0.2458
vn 0.9296 0.1209 0.3482
vn -0.8772 0.0463 0.4778
vn 0.5759 0.8022 0.1573
vn 0.6643 0.7348 0.1369
vn 0.2686 0.6445 -0.7159
vn 0.6225 0.4102 -0.6665
vn -0.9225 0.1260 0.3648
vn -0.5561 -0.2387 0.7961
vn -0.5796 -0.2680 0.7695
vn -0.5725 0.7892 0.2221
vn -0.6396 0.7235 0.2597
vn -0.6661 0.7077 0.2355
vn -0.6181 0.7448 0.2515
vn -0.6360 0.7261 0.2613
vn 0.4772 0.7732 -0.4176
vn -0.9320 0.0327 0.3610
vn -0.8935 0.1170 0.4335
vn -0.9320 0.0325 0.3610
vn -0.6422 0.7401 -0.1995
vn -0.4151 0.8605 -0.2952
vn 0.3349 0.6057 0.7218
s 0
usemtl Material.008
f 1//1 5//1 2//1
f 2//2 10//2 3//2
f 3//3 7//3 4//3
f 4//4 14//4 8//4
f 2//5 5//5 9//5
f 2//6 35//6 11//6
f 4//7 7//7 12//7
f 14//8 22//8 5//8
f 2//9 9//9 15//9
f 9//10 5//10 18//10
f 6//11 7//11 10//11
f 4//12 12//12 20//12
f 7//13 21//13 12//13
f 4//14 20//14 13//14
f 15//15 25//15 26//15
f 9//16 29//16 30//16
f 5//17 33//17 34//17
f 35//18 21//18 7//18
f 12//19 36//19 20//19
f 12//20 21//20 36//20
f 13//21 20//21 37//21
f 13//22 39//22 14//22
f 41//23 15//23 28//23
f 22//24 45//24 46//24
f 15//25 56//25 35//25
f 20//26 36//26 37//26
f 21//27 49//27 36//27
f 53//28 13//28 37//28
f 22//29 38//29 50//29
f 52//30 40//30 51//30
f 42//31 50//31 53//31
f 42//32 55//32 43//32
f 36//33 58//33 63//33
f 21//34 48//34 41//34
f 60//35 65//35 51//35
f 52//36 49//36 41//36
f 57//37 60//37 42//37
f 60//38 62//38 42//38
f 61//39 37//39 57//39
f 49//40 52//40 65//40
f 58//41 60//41 63//41
f 64//42 60//42 58//42
f 66//43 30//43 29//43
f 70//44 29//44 19//44
f 66//45 72//45 69//45
f 67//46 23//46 30//46
f 17//47 68//47 18//47
f 69//48 77//48 73//48
f 67//49 25//49 24//49
f 68//50 72//50 70//50
f 74//51 71//51 16//51
f 69//52 72//52 75//52
f 25//53 77//53 26//53
f 33//54 74//54 34//54
f 78//55 79//55 72//55
f 69//56 75//56 80//56
f 72//57 79//57 75//57
f 69//58 80//58 76//58
f 77//59 81//59 27//59
f 32//60 74//60 33//60
f 74//61 88//61 78//61
f 75//62 83//62 80//62
f 75//63 79//63 83//63
f 76//64 80//64 84//64
f 76//65 86//65 77//65
f 81//66 59//66 40//66
f 87//67 74//67 31//67
f 80//68 83//68 84//68
f 79//69 89//69 83//69
f 76//70 84//70 90//70
f 81//71 85//71 90//71
f 81//72 55//72 54//72
f 92//73 47//73 46//73
f 89//74 88//74 82//74
f 83//75 94//75 97//75
f 90//76 91//76 81//76
f 91//77 43//77 55//77
f 96//78 100//78 46//78
f 92//79 89//79 87//79
f 98//80 84//80 93//80
f 44//81 96//81 45//81
f 89//82 92//82 100//82
f 96//83 91//83 98//83
f 94//84 96//84 97//84
f 99//85 96//85 94//85
f 2//86 3//86 1//86
f 1//87 8//87 5//87
f 2//88 6//88 10//88
f 4//89 1//89 3//89
f 3//90 10//90 7//90
f 8//91 1//91 4//91
f 4//92 13//92 14//92
f 11//93 6//93 2//93
f 2//94 15//94 35//94
f 5//95 8//95 14//95
f 14//96 39//96 22//96
f 5//97 16//97 17//97
f 18//97 19//97 9//97
f 5//97 17//97 18//97
f 6//98 11//98 7//98
f 15//15 9//15 23//15
f 15//15 23//15 24//15
f 27//15 28//15 15//15
f 26//15 27//15 15//15
f 15//15 24//15 25//15
f 9//16 19//16 29//16
f 30//16 23//16 9//16
f 5//17 22//17 31//17
f 5//17 31//17 32//17
f 34//17 16//17 5//17
f 5//17 32//17 33//17
f 7//99 11//99 35//99
f 35//100 56//100 21//100
f 13//101 38//101 39//101
f 28//23 40//23 41//23
f 41//102 48//102 15//102
f 47//24 31//24 22//24
f 22//24 42//24 43//24
f 22//24 43//24 44//24
f 46//24 47//24 22//24
f 22//24 44//24 45//24
f 15//103 48//103 56//103
f 50//104 38//104 13//104
f 37//105 61//105 53//105
f 53//106 50//106 13//106
f 22//107 39//107 38//107
f 52//30 41//30 40//30
f 42//108 22//108 50//108
f 42//32 54//32 55//32
f 57//109 37//109 36//109
f 49//110 65//110 64//110
f 49//111 64//111 58//111
f 63//112 57//112 36//112
f 36//113 49//113 58//113
f 41//114 49//114 21//114
f 21//115 56//115 48//115
f 51//116 59//116 60//116
f 60//117 64//117 65//117
f 65//118 52//118 51//118
f 42//119 53//119 61//119
f 57//120 63//120 60//120
f 42//121 61//121 57//121
f 60//38 59//38 62//38
f 62//38 54//38 42//38
f 66//43 67//43 30//43
f 19//122 18//122 68//122
f 70//123 66//123 29//123
f 19//124 68//124 70//124
f 69//125 67//125 66//125
f 66//126 70//126 72//126
f 67//46 24//46 23//46
f 17//47 71//47 68//47
f 73//127 67//127 69//127
f 69//128 76//128 77//128
f 67//49 73//49 25//49
f 68//129 71//129 72//129
f 16//51 34//51 74//51
f 74//130 78//130 71//130
f 71//51 17//51 16//51
f 25//53 73//53 77//53
f 72//131 71//131 78//131
f 78//132 88//132 79//132
f 27//59 26//59 77//59
f 77//133 86//133 81//133
f 74//134 82//134 88//134
f 76//135 85//135 86//135
f 28//66 27//66 81//66
f 81//66 62//66 59//66
f 59//136 51//136 40//136
f 40//66 28//66 81//66
f 31//67 47//67 87//67
f 87//137 82//137 74//137
f 74//67 32//67 31//67
f 84//138 98//138 95//138
f 90//139 85//139 76//139
f 84//140 95//140 90//140
f 81//141 86//141 85//141
f 54//72 62//72 81//72
f 81//72 91//72 55//72
f 92//142 87//142 47//142
f 82//143 87//143 89//143
f 89//144 79//144 88//144
f 93//145 84//145 83//145
f 89//146 100//146 99//146
f 89//147 99//147 94//147
f 97//148 93//148 83//148
f 83//149 89//149 94//149
f 90//150 95//150 91//150
f 91//77 44//77 43//77
f 46//151 45//151 96//151
f 96//152 99//152 100//152
f 100//153 92//153 46//153
f 44//81 91//81 96//81
f 93//154 97//154 96//154
f 91//155 95//155 98//155
f 98//156 93//156 96//156
