# Blender 3.5.1
# www.blender.org
mtllib cloud2.mtl
o Icosphere.001_Icosphere.001
v 19.171379 29.959230 6.506156
v 21.464487 28.388706 4.819628
v 19.267059 29.864269 6.661137
v 19.050575 30.417229 8.984900
v 20.192266 29.738447 3.244264
v 21.397423 29.532793 6.289064
v 21.431334 29.063206 7.015486
v 19.019157 30.072628 6.644229
v 22.981386 29.561468 2.103285
v 20.090590 29.640554 6.382443
v 22.114735 29.653471 5.826592
v 21.978247 30.577551 9.430470
v 18.507414 31.985796 7.019737
v 19.046698 30.394495 6.278422
v 23.427151 30.025486 4.882910
v 20.872730 30.577555 2.771832
v 21.874144 29.980221 2.479583
v 22.125109 29.874001 2.396778
v 22.763859 30.142744 2.067450
v 19.969286 32.346058 9.495039
v 23.633362 30.519241 6.993373
v 19.202515 32.408951 4.567686
v 23.120882 30.279999 2.368526
v 23.298328 30.608347 3.323547
v 23.306641 30.626055 3.365835
v 23.320318 30.700628 3.387499
v 23.470100 31.626707 3.509281
v 23.516068 32.051254 3.398676
v 22.910028 30.071733 2.162477
v 22.958748 30.115881 2.209203
v 20.595278 32.226845 3.290097
v 20.588100 31.254707 3.137563
v 20.643522 30.742840 3.004209
v 20.845861 30.581247 2.796506
v 22.970535 30.270948 5.767272
v 23.173523 32.673683 7.763440
v 21.691784 33.910213 6.712657
v 19.507360 32.055386 5.913664
v 19.008705 30.733955 6.287199
v 23.513771 32.362312 3.349868
v 23.341190 32.058197 5.360657
v 21.527647 34.232525 4.636145
v 21.729227 33.393486 3.610388
v 20.970001 32.987484 3.784053
v 20.573299 32.646740 3.741729
v 20.576338 32.613411 3.704872
v 20.574104 32.505138 3.594592
v 23.346207 31.971180 5.416634
v 23.527842 32.538284 5.463742
v 19.931320 32.625324 6.370780
v 23.508249 32.407566 3.347417
v 23.274067 32.559387 5.390218
v 20.937786 33.399456 6.516271
v 23.175673 32.719131 3.412351
v 21.914619 33.393486 3.700801
v 22.972752 30.272537 5.764280
v 23.147930 32.869305 5.727063
v 23.217339 32.808674 5.722951
v 23.507942 32.426514 3.344592
v 23.230066 32.832077 5.702552
v 21.454266 33.475281 6.109301
v 23.386868 32.537727 3.434882
v 23.178699 32.840698 5.740767
v 23.234663 32.796154 5.690229
v 23.235147 32.797768 5.667478
v 23.779982 30.655901 1.433432
v 23.852913 30.728285 1.551566
v 22.156132 30.403236 1.717041
v 23.944994 31.077389 -0.337834
v 23.152252 30.485376 1.645864
v 21.609367 30.495222 2.069556
v 22.130283 30.045298 1.163333
v 23.968941 30.814720 1.446322
v 20.608990 30.778788 2.788869
v 21.713402 31.199593 -0.677464
v 24.359015 32.273014 1.160095
v 23.947950 31.060061 1.725153
v 20.957041 30.965887 2.114773
v 20.451809 31.155148 1.180188
v 23.244715 32.547619 -0.726682
v 23.829180 32.595558 3.029147
v 20.670689 32.261875 2.382044
v 20.802315 32.797352 0.593212
v 21.931757 33.739887 1.394164
v 23.596813 32.326061 2.003188
v 23.976910 31.318811 1.718464
v 20.674511 32.328205 2.424711
v 20.955353 30.967100 2.117052
v 20.532240 32.694145 2.346134
v 23.273655 32.760490 1.654755
v 22.056870 33.985565 2.976963
v 20.725677 32.710228 2.402177
v 20.821825 32.946461 2.145421
v 20.768917 32.900246 2.148555
v 22.506485 33.350567 1.543856
v 20.759216 32.918087 2.164104
v 20.798370 32.924656 2.134976
v 22.112803 33.408363 1.854065
v 20.755711 32.890701 2.173497
v 20.755344 32.891933 2.190841
vn -0.6296 -0.7632 -0.1454
vn -0.0006 -0.7808 0.6248
vn -0.3674 -0.9119 0.1828
vn -0.9963 0.0860 0.0007
vn -0.2572 -0.8266 -0.5005
vn 0.5253 -0.6787 0.5133
vn -0.0355 -0.8430 0.5367
vn -0.9312 -0.1914 -0.3102
vn 0.6398 -0.7681 0.0256
vn -0.3819 -0.1986 -0.9026
vn -0.1074 -0.8372 -0.5362
vn -0.1374 -0.1916 0.9718
vn 0.5153 -0.7737 0.3685
vn -0.8437 0.2809 0.4574
vn 0.9809 -0.1411 -0.1338
vn 0.5948 0.1742 -0.7848
vn -0.6624 0.1209 -0.7393
vn 0.5462 -0.8279 -0.1276
vn 0.3974 0.4216 0.8151
vn 0.8267 -0.0244 0.5621
vn -0.4976 0.8506 0.1701
vn -0.8853 -0.0873 -0.4567
vn 0.9958 0.0213 0.0887
vn -0.4775 0.6318 -0.6106
vn 0.8366 -0.2320 0.4963
vn 0.2355 0.7776 0.5830
vn 0.9773 0.1581 0.1413
vn -0.5216 0.8358 -0.1711
vn -0.8648 0.4016 0.3014
vn 0.9866 0.1260 0.1037
vn -0.6163 0.7732 0.1493
vn 0.2800 0.7693 -0.5742
vn 0.6541 0.7537 0.0639
vn 0.9443 -0.1379 -0.2989
vn 0.9932 0.0333 0.1113
vn 0.2843 0.0943 -0.9541
vn 0.4694 0.8200 0.3275
vn 0.6539 0.7547 -0.0528
vn 0.1391 0.7765 -0.6145
vn 0.2402 0.7525 -0.6132
vn 0.6000 0.3147 0.7355
vn 0.8738 -0.0540 0.4833
vn 0.6123 -0.7840 0.1024
vn 0.0209 -0.7852 -0.6189
vn 0.3674 -0.9119 -0.1828
vn 0.6296 -0.7632 0.1454
vn -0.4728 -0.6847 -0.5547
vn 0.9963 0.0860 -0.0007
vn 0.6810 -0.7135 0.1649
vn 0.1074 -0.8372 0.5362
vn -0.5471 -0.6752 -0.4947
vn 0.0355 -0.8430 -0.5367
vn 0.9217 -0.2542 0.2930
vn -0.6398 -0.7681 -0.0256
vn -0.5462 -0.8279 0.1276
vn 0.1374 -0.1916 -0.9718
vn -0.5153 -0.7737 -0.3685
vn 0.8437 0.2809 -0.4574
vn 0.9312 -0.1914 0.3102
vn -0.9809 -0.1411 0.1338
vn -0.8366 -0.2319 -0.4964
vn -0.3974 0.4216 -0.8151
vn -0.8267 -0.0244 -0.5621
vn 0.4976 0.8506 -0.1701
vn 0.8853 -0.0873 0.4567
vn 0.6624 0.1209 0.7393
vn -0.9958 0.0213 -0.0887
vn -0.2355 0.7776 -0.5830
vn -0.9773 0.1581 -0.1413
vn 0.5101 0.7896 0.3411
vn 0.8648 0.4016 -0.3014
vn 0.4775 0.6318 0.6106
vn -0.9866 0.1260 -0.1037
vn -0.9103 -0.2652 0.3177
vn -0.6542 0.7537 -0.0639
vn 0.6125 0.7752 -0.1546
vn -0.2800 0.7693 0.5742
vn -0.9932 0.0333 -0.1113
vn -0.2843 0.0943 0.9541
vn -0.1391 0.7765 0.6145
vn -0.6539 0.7547 0.0528
vn -0.2402 0.7525 0.6132
vn -0.3931 0.8097 -0.4358
vn -0.6000 0.3147 -0.7355
vn -0.8738 -0.0540 -0.4833
vn -0.6123 -0.7840 -0.1024
vn -0.6810 -0.7135 -0.1649
vn -0.0212 -0.7893 0.6136
vn -0.7650 -0.6390 0.0808
vn -0.3148 -0.9314 -0.1827
vn -0.5125 -0.8485 0.1318
vn -0.9465 -0.3227 0.0041
vn 0.4728 -0.6847 0.5547
vn 0.5542 -0.6830 0.4757
vn -0.9217 -0.2542 -0.2930
vn -0.9722 -0.1034 -0.2103
vn -0.3819 -0.1985 -0.9026
vn -0.1996 -0.8271 -0.5254
vn -0.6624 0.1209 -0.7394
vn 0.5806 -0.8113 -0.0691
vn 0.4950 -0.8640 -0.0926
vn -0.7415 0.0920 -0.6646
vn 0.9988 0.0463 -0.0175
vn 0.8738 -0.0945 0.4770
vn -0.5255 0.7348 -0.4288
vn -0.4377 0.8022 -0.4060
vn -0.5212 0.7531 -0.4015
vn -0.8603 0.4102 0.3026
vn -0.6125 0.7752 0.1546
vn 0.6103 0.7892 0.0681
vn 0.6872 0.7234 0.0660
vn 0.6994 0.7078 0.0995
vn 0.6643 0.7448 0.0632
vn 0.6847 0.7261 0.0627
vn 0.8802 -0.2565 -0.3993
vn 0.8688 -0.2753 -0.4117
vn 0.9932 0.0327 0.1114
vn 0.9927 0.1169 0.0294
vn 0.9932 0.0325 0.1114
vn 0.2313 0.8605 0.4539
vn 0.4769 0.7401 0.4741
vn 0.3888 0.8114 0.4364
vn 0.0156 -0.7893 -0.6138
vn 0.0006 -0.7808 -0.6248
vn 0.0205 -0.7850 -0.6191
vn 0.7650 -0.6390 -0.0808
vn 0.3148 -0.9314 0.1827
vn 0.5125 -0.8485 -0.1318
vn 0.9465 -0.3227 -0.0041
vn 0.1996 -0.8271 0.5254
vn -0.5373 -0.6993 -0.4715
vn -0.5806 -0.8113 0.0691
vn -0.4952 -0.8638 0.0928
vn 0.9722 -0.1034 0.2103
vn -0.8738 -0.0945 -0.4770
vn 0.7415 0.0920 0.6646
vn 0.6628 0.1209 0.7390
vn -0.9988 0.0463 0.0174
vn 0.4377 0.8022 0.4060
vn 0.5255 0.7348 0.4288
vn 0.5695 0.6445 -0.5102
vn 0.8603 0.4102 -0.3026
vn -0.8615 -0.2387 0.4482
vn -0.8700 -0.2680 0.4138
vn -0.6103 0.7892 -0.0681
vn -0.6872 0.7235 -0.0658
vn -0.6994 0.7077 -0.0996
vn -0.6643 0.7448 -0.0632
vn -0.6847 0.7261 -0.0627
vn 0.6163 0.7732 -0.1493
vn -0.9932 0.0327 -0.1114
vn -0.9927 0.1170 -0.0293
vn -0.9932 0.0325 -0.1114
vn -0.4769 0.7401 -0.4741
vn -0.2313 0.8605 -0.4539
vn -0.0373 0.6057 0.7948
s 0
usemtl Material.002
f 1//1 5//1 2//1
f 2//2 10//2 3//2
f 3//3 7//3 4//3
f 4//4 14//4 8//4
f 2//5 5//5 9//5
f 2//6 35//6 11//6
f 4//7 7//7 12//7
f 14//8 22//8 5//8
f 2//9 9//9 15//9
f 9//10 5//10 18//10
f 6//11 7//11 10//11
f 4//12 12//12 20//12
f 7//13 21//13 12//13
f 4//14 20//14 13//14
f 15//15 25//15 26//15
f 9//16 29//16 30//16
f 5//17 33//17 34//17
f 35//18 21//18 7//18
f 12//19 36//19 20//19
f 12//20 21//20 36//20
f 13//21 20//21 37//21
f 13//22 39//22 14//22
f 41//23 15//23 28//23
f 22//24 45//24 46//24
f 15//25 56//25 35//25
f 20//26 36//26 37//26
f 21//27 49//27 36//27
f 53//28 13//28 37//28
f 22//29 38//29 50//29
f 52//30 40//30 51//30
f 42//31 50//31 53//31
f 42//32 55//32 43//32
f 36//33 58//33 63//33
f 21//34 48//34 41//34
f 60//35 65//35 51//35
f 52//36 49//36 41//36
f 57//37 60//37 42//37
f 60//38 62//38 42//38
f 61//39 37//39 57//39
f 49//40 52//40 65//40
f 58//41 60//41 63//41
f 64//42 60//42 58//42
f 66//43 30//43 29//43
f 70//44 29//44 19//44
f 66//45 72//45 69//45
f 67//46 23//46 30//46
f 17//47 68//47 18//47
f 69//48 77//48 73//48
f 67//49 25//49 24//49
f 68//50 72//50 70//50
f 74//51 71//51 16//51
f 69//52 72//52 75//52
f 25//53 77//53 26//53
f 33//54 74//54 34//54
f 78//55 79//55 72//55
f 69//56 75//56 80//56
f 72//57 79//57 75//57
f 69//58 80//58 76//58
f 77//59 81//59 27//59
f 32//60 74//60 33//60
f 74//61 88//61 78//61
f 75//62 83//62 80//62
f 75//63 79//63 83//63
f 76//64 80//64 84//64
f 76//65 86//65 77//65
f 81//66 59//66 40//66
f 87//67 74//67 31//67
f 80//68 83//68 84//68
f 79//69 89//69 83//69
f 76//70 84//70 90//70
f 81//71 85//71 90//71
f 81//72 55//72 54//72
f 92//73 47//73 46//73
f 89//74 88//74 82//74
f 83//75 94//75 97//75
f 90//76 91//76 81//76
f 91//77 43//77 55//77
f 96//78 100//78 46//78
f 92//79 89//79 87//79
f 98//80 84//80 93//80
f 44//81 96//81 45//81
f 89//82 92//82 100//82
f 96//83 91//83 98//83
f 94//84 96//84 97//84
f 99//85 96//85 94//85
f 2//86 3//86 1//86
f 1//87 8//87 5//87
f 2//88 6//88 10//88
f 4//89 1//89 3//89
f 3//90 10//90 7//90
f 8//91 1//91 4//91
f 4//92 13//92 14//92
f 11//93 6//93 2//93
f 2//94 15//94 35//94
f 5//95 8//95 14//95
f 14//96 39//96 22//96
f 5//97 16//97 17//97
f 18//97 19//97 9//97
f 5//97 17//97 18//97
f 6//98 11//98 7//98
f 15//15 9//15 23//15
f 15//15 23//15 24//15
f 27//15 28//15 15//15
f 26//15 27//15 15//15
f 15//15 24//15 25//15
f 9//16 19//16 29//16
f 30//16 23//16 9//16
f 5//17 22//17 31//17
f 5//17 31//17 32//17
f 34//99 16//99 5//99
f 5//17 32//17 33//17
f 7//100 11//100 35//100
f 35//101 56//101 21//101
f 13//102 38//102 39//102
f 28//23 40//23 41//23
f 41//103 48//103 15//103
f 47//24 31//24 22//24
f 22//24 42//24 43//24
f 22//24 43//24 44//24
f 46//24 47//24 22//24
f 22//24 44//24 45//24
f 15//104 48//104 56//104
f 50//105 38//105 13//105
f 37//106 61//106 53//106
f 53//107 50//107 13//107
f 22//108 39//108 38//108
f 52//30 41//30 40//30
f 42//109 22//109 50//109
f 42//32 54//32 55//32
f 57//110 37//110 36//110
f 49//111 65//111 64//111
f 49//112 64//112 58//112
f 63//113 57//113 36//113
f 36//114 49//114 58//114
f 41//115 49//115 21//115
f 21//116 56//116 48//116
f 51//117 59//117 60//117
f 60//118 64//118 65//118
f 65//119 52//119 51//119
f 42//120 53//120 61//120
f 57//121 63//121 60//121
f 42//122 61//122 57//122
f 60//38 59//38 62//38
f 62//38 54//38 42//38
f 66//43 67//43 30//43
f 19//123 18//123 68//123
f 70//124 66//124 29//124
f 19//125 68//125 70//125
f 69//126 67//126 66//126
f 66//127 70//127 72//127
f 67//46 24//46 23//46
f 17//47 71//47 68//47
f 73//128 67//128 69//128
f 69//129 76//129 77//129
f 67//49 73//49 25//49
f 68//130 71//130 72//130
f 16//51 34//51 74//51
f 74//131 78//131 71//131
f 71//51 17//51 16//51
f 25//53 73//53 77//53
f 72//132 71//132 78//132
f 78//133 88//133 79//133
f 27//59 26//59 77//59
f 77//134 86//134 81//134
f 74//135 82//135 88//135
f 76//136 85//136 86//136
f 28//66 27//66 81//66
f 81//66 62//66 59//66
f 59//137 51//137 40//137
f 40//66 28//66 81//66
f 31//67 47//67 87//67
f 87//138 82//138 74//138
f 74//67 32//67 31//67
f 84//139 98//139 95//139
f 90//140 85//140 76//140
f 84//141 95//141 90//141
f 81//142 86//142 85//142
f 54//72 62//72 81//72
f 81//72 91//72 55//72
f 92//73 87//73 47//73
f 82//143 87//143 89//143
f 89//144 79//144 88//144
f 93//145 84//145 83//145
f 89//146 100//146 99//146
f 89//147 99//147 94//147
f 97//148 93//148 83//148
f 83//149 89//149 94//149
f 90//150 95//150 91//150
f 91//77 44//77 43//77
f 46//151 45//151 96//151
f 96//152 99//152 100//152
f 100//153 92//153 46//153
f 44//81 91//81 96//81
f 93//154 97//154 96//154
f 91//155 95//155 98//155
f 98//156 93//156 96//156
