# Blender 3.5.1
# www.blender.org
mtllib cloud4.mtl
o Icosphere_Icosphere.017
v -2.885054 17.400902 -1.180109
v -3.318963 17.083336 2.164732
v -4.344135 17.375202 -0.097039
v -3.368172 18.069433 -3.268240
v -1.864693 17.361208 -0.883840
v -3.482782 17.591133 3.609975
v -1.895014 18.272694 -3.452159
v -4.946061 18.738377 -2.155809
v 0.761172 17.581043 1.397151
v -5.562525 18.252989 1.433131
v -0.184283 18.120249 4.594792
v -2.668883 19.495138 -4.643956
v -4.025656 19.502079 -4.075661
v 0.773030 18.252075 -1.361226
v -0.653264 19.065954 -2.860577
v -5.963761 19.188862 4.304319
v -1.971590 18.381826 4.835673
v -1.475010 19.788847 -4.135925
v -4.548005 20.513481 -2.881573
v -5.876492 19.656349 0.715083
v 1.747649 19.353802 1.721272
v -0.214485 18.213501 4.656356
v 0.067342 18.560146 3.432287
v -0.116363 18.334192 4.230175
v -0.150691 18.237801 4.408198
v -0.181612 18.228056 4.527391
v -0.191199 18.235985 4.558505
v -0.192831 18.240137 4.562300
v -2.300954 18.912231 5.561227
v -2.529099 19.363430 5.958556
v -2.431820 19.603212 6.262780
v -2.076524 18.462471 4.942042
v -0.258407 18.203335 4.706822
v -1.669677 21.317680 -4.751644
v -3.341008 21.134554 -4.420763
v 0.712654 18.794119 2.703171
v 0.725019 20.315617 -1.168920
v -0.185298 18.239082 4.562597
v 0.228610 18.601843 3.233019
v -0.121626 18.294884 4.358067
v -0.968214 21.195248 -2.921153
v -6.343331 20.951824 3.883729
v -2.848776 20.764864 6.048056
v -2.172325 18.710819 7.385996
v -1.978231 18.403574 4.865916
v -2.017017 18.347994 4.962455
v -3.947518 22.396841 -2.726007
v -5.860603 21.252617 -0.140091
v 1.375232 19.248657 2.172432
v 1.442138 20.480640 0.954386
v -0.136258 18.232214 4.564529
v -0.130886 18.232931 4.560039
v -0.129789 18.233906 4.556477
v 1.741693 17.995998 4.553025
v -2.380774 20.326677 6.300852
v -2.116428 20.539484 7.216830
v -1.163326 22.867050 -3.294037
v -2.407323 22.625288 -4.249133
v 1.878461 18.588593 3.075902
v 1.507737 19.376806 2.104161
v 1.698766 19.919403 1.642887
v 1.382489 21.301201 0.873728
v -0.294701 22.259212 -1.310254
v -6.463130 22.564240 1.546691
v -2.688246 21.301577 5.227540
v -3.211674 21.256912 5.025954
v -4.917128 21.420795 3.847143
v -2.378258 20.365763 6.302776
v 0.307766 17.932713 7.308998
v -0.857034 19.308252 8.987248
v -3.541509 22.892693 -2.469801
v -3.199062 22.971283 -2.766479
v -2.844027 23.253681 -2.770716
v 2.920853 18.080065 7.332217
v 1.638204 19.504438 2.035461
v 4.205356 20.109499 2.616664
v 1.278799 21.436115 0.804685
v 1.407345 21.544163 0.875113
v 1.193344 21.611675 0.803898
v -4.956686 21.427879 3.819692
v -5.755693 21.669476 3.125705
v -5.567313 22.326069 2.278438
v -5.487323 22.487862 2.084436
v -2.378651 20.904217 6.202645
v -2.620529 21.320099 5.252576
v -0.496075 21.161589 9.227719
v 1.461138 17.964727 8.097393
v -0.438037 22.432165 -1.094074
v -1.156780 23.015076 -2.137390
v -2.114039 23.199444 -2.708920
v -4.786765 23.030327 -0.255691
v -4.746792 22.943756 -0.475370
v -4.526316 22.825613 -1.037013
v -4.008887 22.723986 -2.037392
v 4.257185 18.978291 6.363394
v 1.286106 21.664309 1.016761
v -5.380632 22.694174 1.818720
v -5.241964 22.896194 1.573325
v -2.609511 21.669428 5.228348
v 0.505458 18.627665 10.042488
v -1.229079 22.221161 7.356478
v 0.095696 19.910070 10.617249
v -0.329634 22.379700 -0.976394
v 0.151691 22.109118 -0.588911
v 0.281746 22.065987 -0.376595
v 0.470026 22.064394 0.149160
v 0.746841 22.078869 0.982501
v 1.180706 21.802229 1.214281
v -1.899877 23.144547 -2.686458
v -4.906192 22.995354 0.185388
v 3.712599 19.172455 9.805943
v 2.092272 18.487755 10.430291
v 4.579406 21.631838 3.098076
v -2.607737 21.725660 5.224448
v -2.491720 21.934273 5.252890
v -0.353978 22.680096 9.423297
v 0.305929 21.292461 11.178638
v 0.835871 22.012543 1.325140
v 4.655625 20.175261 7.284773
v 1.121929 22.190090 2.015413
v 1.130901 22.197096 2.035552
v 1.373454 22.539860 2.894454
v 1.337801 19.676788 11.427549
v -0.412304 23.243235 6.214139
v -1.576198 22.548834 5.561639
v 1.069699 22.157673 1.889382
v 2.742645 19.750957 11.276752
v 3.329110 20.672899 10.443430
v 4.485039 21.534973 7.768097
v 1.483522 22.700146 3.275989
v 4.827296 22.867950 5.669341
v -0.486020 23.204838 5.964789
v -0.631659 23.117031 5.917246
v -0.909289 22.950623 5.790296
v 1.027191 22.507271 10.797522
v 1.441312 23.340967 8.625023
v 2.076163 21.163010 11.467298
v 1.518729 22.753609 3.394247
v 1.558239 22.895021 3.673501
v 1.703851 23.060337 4.062151
v 2.109067 23.380680 4.892204
v 2.068796 23.439003 4.972004
v -0.469574 23.214752 5.970159
v 1.871736 23.441532 5.562041
v 1.408528 23.396881 5.900631
v 0.801435 23.341816 6.183732
v -0.128210 23.269428 6.061960
v 2.622915 22.353003 9.901506
v 1.916211 23.434984 5.528878
v -0.221322 23.255489 6.048447
v -0.660976 25.877327 3.911970
v -3.017310 26.148205 2.261238
v -2.182443 25.899246 4.207963
v 0.376325 25.307076 5.417403
v -0.260649 25.911184 3.098881
v -4.021821 25.715059 1.533079
v 1.339558 25.133698 4.595335
v -1.231975 24.736477 5.771333
v -0.013443 25.699915 -1.822656
v -3.847060 25.150507 4.095170
v -2.802384 25.259699 -1.640491
v 1.645060 24.090969 5.768298
v 0.506676 24.085049 6.295962
v 1.479949 25.151211 1.529122
v 1.681234 24.457058 3.472927
v -5.735112 22.469143 3.039072
v -4.631176 23.169939 -0.761396
v 2.011824 23.840437 4.724111
v -3.575401 23.427340 4.705960
v 0.349855 24.187775 -2.630425
v -3.464697 23.634611 -2.860443
v 1.408571 23.391109 1.631741
v 0.329069 22.324183 -0.555999
v -0.135089 18.225359 4.557995
vn -0.0581 -0.9931 -0.1018
vn -0.1781 -0.9484 -0.2624
vn -0.0109 -0.9953 -0.0959
vn -0.6348 -0.7487 0.1911
vn 0.0898 -0.9423 -0.3225
vn -0.5592 -0.7571 -0.3378
vn 0.1143 -0.9928 -0.0359
vn 0.0605 -0.9405 -0.3345
vn -0.4426 -0.8833 0.1543
vn 0.0505 -0.9405 0.3362
vn 0.0064 -0.6960 -0.7180
vn -0.6188 -0.5816 -0.5280
vn -0.7331 -0.6458 -0.2133
vn 0.2747 -0.9346 -0.2262
vn 0.1571 -0.9652 0.2092
vn 0.6068 -0.7468 -0.2722
vn -0.4877 -0.8478 0.2082
vn -0.0415 -0.8155 0.5773
vn 0.4410 -0.4676 -0.7660
vn -0.3193 -0.5723 -0.7554
vn -0.9060 0.0305 -0.4222
vn -0.9288 -0.3109 -0.2016
vn 0.8769 -0.4679 -0.1100
vn 0.1623 -0.7943 -0.5855
vn 0.9558 0.1384 0.2593
vn 0.6041 -0.4606 -0.6503
vn -0.9680 -0.2449 -0.0554
vn -0.2760 -0.7100 0.6479
vn 0.4341 -0.2884 -0.8534
vn -0.3863 -0.0329 -0.9218
vn -0.8088 0.2242 -0.5437
vn -0.9411 0.0764 -0.3294
vn 0.7244 -0.4915 0.4834
vn 0.9468 0.0516 -0.3178
vn 0.7434 0.0792 -0.6642
vn -0.1210 -0.9474 -0.2962
vn 0.7601 -0.1682 0.6277
vn 0.8633 0.1137 -0.4918
vn -0.9736 -0.2222 -0.0526
vn -0.4838 -0.0119 0.8751
vn -0.8881 -0.4595 0.0119
vn -0.9627 0.0540 0.2653
vn -0.1210 -0.9473 -0.2966
vn 0.9329 -0.0259 -0.3592
vn -0.1994 0.0515 -0.9786
vn -0.8058 0.2991 -0.5112
vn -0.9041 -0.1948 -0.3804
vn 0.9459 0.0371 -0.3223
vn 0.7384 0.0902 -0.6683
vn -0.9908 -0.0561 -0.1231
vn -0.5209 0.0904 0.8488
vn -0.9438 0.1328 -0.3027
vn -0.6993 -0.4609 -0.5463
vn 0.9340 0.0296 -0.3560
vn -0.2139 0.2429 -0.9462
vn -0.6529 0.4767 -0.5887
vn -0.8253 0.3025 -0.4767
vn -0.0432 -0.9258 -0.3754
vn 0.0552 -0.7913 -0.6089
vn 0.7549 0.3560 -0.5508
vn -0.9546 -0.2657 -0.1344
vn -0.2605 0.8305 0.4923
vn -0.2936 -0.9480 0.1231
vn -0.7848 0.0808 0.6145
vn -0.1011 -0.9920 -0.0754
vn 0.9180 0.0188 -0.3962
vn 0.4493 0.5299 -0.7193
vn -0.5565 0.6927 -0.4588
vn -0.8277 0.2596 -0.4975
vn 0.6219 -0.7450 -0.2413
vn 0.3106 -0.6768 -0.6675
vn 0.7285 -0.4833 0.4855
vn 0.9540 0.1205 0.2745
vn 0.8050 0.3898 -0.4472
vn 0.5102 -0.0473 -0.8587
vn -0.2460 0.7919 0.5590
vn -0.3867 0.8046 0.4506
vn -0.9626 0.0488 0.2665
vn -0.3531 0.1708 0.9199
vn -0.2434 -0.8261 0.5082
vn -0.7876 0.0740 0.6117
vn 0.0320 -0.9995 -0.0063
vn 0.7058 0.7022 -0.0939
vn 0.0996 0.9260 -0.3642
vn -0.6069 0.6956 -0.3845
vn 0.4352 -0.8752 -0.2112
vn 0.0774 -0.9970 -0.0027
vn -0.2322 0.8112 0.5366
vn -0.5763 -0.7811 0.2403
vn -0.7765 0.3672 0.5121
vn -0.8752 0.1093 0.4712
vn -0.1469 -0.9561 0.2537
vn 0.6038 0.7679 -0.2139
vn 0.2586 0.9580 -0.1241
vn -0.2624 0.9649 0.0055
vn 0.6209 -0.7709 0.1417
vn 0.4925 -0.8313 -0.2578
vn 0.1671 -0.9707 0.1724
vn 0.5677 0.1182 -0.8147
vn 0.3592 0.1707 -0.9175
vn 0.3906 0.8395 -0.3778
vn -0.6751 -0.4704 0.5683
vn -0.8114 0.3921 0.4335
vn -0.9232 0.0371 0.3826
vn -0.9245 -0.0141 0.3810
vn -0.1464 -0.9561 0.2539
vn 0.5269 0.8495 0.0275
vn 0.4537 -0.8598 0.2345
vn 0.8908 -0.4234 0.1648
vn 0.9636 -0.2519 -0.0894
vn 0.9734 -0.2104 -0.0909
vn 0.2718 0.8649 -0.4219
vn -0.5405 -0.4818 0.6897
vn -0.5967 0.7611 0.2543
vn -0.9251 0.0379 0.3778
vn -0.6937 0.7072 0.1367
vn -0.5616 -0.2366 0.7928
vn -0.2262 -0.7062 0.6709
vn 0.4964 -0.6449 0.5810
vn 0.9235 0.0764 0.3758
vn 0.9929 0.1166 0.0225
vn 0.2706 0.8572 -0.4382
vn -0.5217 0.8529 0.0229
vn -0.5626 0.5324 0.6324
vn -0.2725 0.9468 0.1711
vn -0.1570 0.0516 0.9862
vn 0.1168 -0.5937 0.7962
vn 0.8301 -0.0245 0.5571
vn 0.9204 -0.0232 0.3902
vn 0.9739 -0.2265 0.0150
vn 0.2906 0.8364 -0.4647
vn -0.5216 0.8529 0.0229
vn -0.1240 0.3633 0.9234
vn -0.2000 0.9269 0.3176
vn -0.0804 0.9965 0.0214
vn 0.1106 -0.0814 0.9905
vn 0.6673 0.2189 0.7119
vn 0.7472 0.4667 0.4732
vn 0.7347 0.5120 0.4450
vn 0.1881 0.9804 0.0587
vn -0.1357 0.9872 -0.0834
vn 0.4204 0.6457 0.6375
vn 0.3037 0.8687 0.3913
vn 0.6618 0.4673 0.5862
vn 0.3909 0.8670 0.3091
vn 0.0360 0.9931 0.1116
vn 0.0737 0.9484 0.3085
vn 0.0635 0.9953 0.0727
vn -0.5692 0.7487 0.3398
vn 0.2986 0.9423 0.1512
vn -0.1276 0.7571 0.6407
vn 0.0970 0.9946 -0.0378
vn 0.2878 0.9405 0.1809
vn -0.4124 0.8833 0.2228
vn -0.2414 0.9432 -0.2281
vn 0.5345 0.6960 0.4795
vn -0.0274 0.5816 0.8130
vn -0.3369 0.6458 0.6851
vn 0.3846 0.9228 -0.0203
vn -0.1663 0.9594 -0.2276
vn 0.6102 0.7468 -0.2645
vn -0.8361 0.5210 0.1718
vn -0.7706 0.5185 -0.3705
vn 0.8630 0.4676 0.1909
vn 0.3424 0.5723 0.7452
vn -0.2971 -0.0241 0.9545
vn -0.5021 0.2175 0.8370
vn 0.8661 0.3809 -0.3236
vn 0.5550 0.7999 0.2282
vn -0.1494 0.6318 -0.7606
vn 0.8876 0.4606 -0.0075
vn -0.6470 0.1621 0.7451
vn -0.9019 0.3877 -0.1905
vn -0.7763 0.5490 -0.3099
vn 0.9229 0.2886 0.2549
vn 0.4202 0.0297 0.9069
vn -0.1128 -0.1919 0.9749
vn -0.3852 -0.0598 0.9209
vn -0.0147 0.4684 -0.8834
vn 0.9667 -0.0538 -0.2502
vn 0.9917 -0.0472 -0.1195
vn 0.9453 -0.1137 -0.3058
vn -0.6352 0.0993 0.7659
vn -0.9532 0.1788 -0.2439
vn -0.8790 0.1047 -0.4653
vn 0.8944 0.0259 -0.4466
vn 0.5924 -0.0486 0.8041
vn -0.3640 0.0759 0.9283
vn 0.0757 -0.1101 -0.9910
vn 0.9009 -0.3272 -0.2850
vn 0.9914 -0.0902 -0.0946
vn -0.5667 0.0264 0.8235
vn -0.9764 0.0018 -0.2157
vn -0.9300 0.0108 -0.3674
vn -0.5718 -0.3351 -0.7488
vn 0.3407 -0.7011 -0.6264
vn 0.9039 -0.3099 -0.2949
vn 0.9485 -0.2742 -0.1584
vn 0.4983 -0.2857 -0.8185
vn 0.8715 -0.3774 -0.3132
vn 0.6942 -0.4922 -0.5252
vn 0.5937 -0.4998 0.6306
vn -0.1253 -0.6957 0.7073
vn 0.8531 -0.5067 0.1242
vn -0.1810 -0.9649 0.1901
vn 0.8319 -0.5391 -0.1315
vn -0.0035 -0.9966 -0.0824
vn -0.0416 -0.8155 0.5773
vn 0.9558 0.1385 0.2593
vn 0.9558 0.1385 0.2594
vn -0.2759 -0.7100 0.6479
vn -0.4818 -0.0120 0.8762
vn -0.1212 -0.9474 -0.2964
vn -0.1210 -0.9474 -0.2961
vn -0.2460 0.7919 0.5589
vn -0.2461 0.7919 0.5589
vn -0.3867 0.8046 0.4507
vn -0.9626 0.0489 0.2664
vn -0.6068 0.6956 -0.3845
vn 0.6039 0.7678 -0.2139
vn 0.3905 0.8395 -0.3778
vn -0.5217 0.8528 0.0229
vn 0.2907 0.8364 -0.4647
vn 0.1881 0.9804 0.0586
vn -0.2971 -0.0241 0.9546
vn 0.9229 0.2884 0.2550
vn 0.5925 -0.0486 0.8041
vn 0.0758 -0.1099 -0.9911
vn -0.5667 0.0265 0.8235
vn 0.9485 -0.2742 -0.1585
vn 0.9486 -0.2737 -0.1587
vn -0.1253 -0.6956 0.7074
vn -0.0163 -0.9998 0.0072
vn 0.8319 -0.5392 -0.1315
vn 0.8320 -0.5390 -0.1314
s 0
usemtl None.004
f 1//1 2//1 3//1
f 1//2 3//2 4//2
f 2//3 1//3 5//3
f 3//4 2//4 6//4
f 1//5 4//5 7//5
f 4//6 3//6 8//6
f 9//7 2//7 5//7
f 1//8 7//8 5//8
f 3//9 6//9 10//9
f 2//10 11//10 6//10
f 7//11 4//11 12//11
f 4//12 8//12 13//12
f 3//13 10//13 8//13
f 9//14 5//14 14//14
f 11//15 2//15 9//15
f 5//16 7//16 15//16
f 10//17 6//17 16//17
f 6//18 17//18 32//18
f 7//19 12//19 18//19
f 4//20 13//20 12//20
f 13//21 8//21 19//21
f 8//22 10//22 20//22
f 9//23 14//23 21//23
f 5//24 15//24 14//24
f 11//25 26//25 27//25
f 7//26 18//26 15//26
f 10//27 16//27 20//27
f 6//28 30//28 31//28
f 18//29 12//29 34//29
f 12//30 13//30 35//30
f 13//31 19//31 35//31
f 19//32 8//32 20//32
f 49//33 36//33 9//33
f 14//34 37//34 21//34
f 14//35 15//35 37//35
f 22//36 28//36 38//36
f 33//37 11//37 22//37
f 24//36 39//36 40//36
f 15//38 18//38 41//38
f 20//39 16//39 42//39
f 31//40 68//40 43//40
f 29//41 46//41 44//41
f 44//42 55//42 31//42
f 52//43 53//43 54//43
f 18//44 34//44 41//44
f 34//45 12//45 35//45
f 35//46 19//46 47//46
f 19//47 20//47 48//47
f 50//48 21//48 37//48
f 37//49 15//49 41//49
f 20//50 42//50 48//50
f 16//51 43//51 42//51
f 17//52 46//52 45//52
f 45//53 46//53 32//53
f 41//54 34//54 57//54
f 34//55 35//55 58//55
f 35//56 47//56 58//56
f 19//57 48//57 47//57
f 59//58 39//58 36//58
f 49//59 59//59 36//59
f 37//60 41//60 63//60
f 48//61 42//61 64//61
f 43//62 66//62 67//62
f 46//63 69//63 44//63
f 44//64 70//64 56//64
f 46//65 54//65 69//65
f 41//66 57//66 63//66
f 34//67 58//67 57//67
f 58//68 71//68 72//68
f 47//69 48//69 64//69
f 74//70 54//70 59//70
f 61//71 76//71 59//71
f 60//72 21//72 75//72
f 75//73 21//73 61//73
f 37//74 63//74 79//74
f 62//75 78//75 76//75
f 42//76 81//76 82//76
f 43//77 85//77 65//77
f 56//78 99//78 84//78
f 84//79 43//79 68//79
f 69//80 70//80 44//80
f 56//81 70//81 86//81
f 54//82 87//82 69//82
f 63//83 89//83 88//83
f 90//84 58//84 73//84
f 47//85 64//85 93//85
f 74//86 59//86 95//86
f 87//87 54//87 74//87
f 64//88 97//88 98//88
f 85//78 84//78 99//78
f 69//89 100//89 70//89
f 56//90 86//90 101//90
f 70//91 102//91 86//91
f 87//92 100//92 69//92
f 96//93 104//93 105//93
f 57//94 109//94 89//94
f 64//95 110//95 91//95
f 74//96 95//96 111//96
f 95//97 59//97 76//97
f 87//98 74//98 112//98
f 76//99 78//99 113//99
f 79//100 78//100 77//100
f 96//101 126//101 78//101
f 100//102 102//102 70//102
f 56//103 115//103 114//103
f 86//104 116//104 101//104
f 102//105 117//105 86//105
f 87//106 112//106 100//106
f 118//107 108//107 107//107
f 112//108 74//108 111//108
f 111//109 95//109 119//109
f 95//110 76//110 119//110
f 119//111 76//111 113//111
f 78//112 121//112 122//112
f 100//113 123//113 102//113
f 101//114 125//114 115//114
f 86//115 117//115 116//115
f 101//116 116//116 124//116
f 102//117 123//117 117//117
f 100//118 112//118 123//118
f 126//101 108//101 118//101
f 112//119 111//119 127//119
f 128//120 111//120 119//120
f 119//121 113//121 129//121
f 130//122 113//122 122//122
f 124//123 133//123 134//123
f 117//124 135//124 116//124
f 124//125 116//125 136//125
f 117//126 123//126 137//126
f 112//127 127//127 123//127
f 127//128 111//128 128//128
f 128//129 119//129 129//129
f 129//130 113//130 131//130
f 131//131 138//131 141//131
f 132//132 124//132 143//132
f 117//133 137//133 135//133
f 116//134 135//134 136//134
f 136//135 145//135 146//135
f 123//136 127//136 137//136
f 127//137 128//137 137//137
f 128//138 129//138 148//138
f 148//139 129//139 131//139
f 131//140 149//140 144//140
f 124//141 150//141 143//141
f 137//142 148//142 135//142
f 135//143 148//143 136//143
f 137//144 128//144 148//144
f 136//145 148//145 131//145
f 151//146 152//146 153//146
f 151//147 153//147 154//147
f 152//148 151//148 155//148
f 153//149 152//149 156//149
f 151//150 154//150 157//150
f 154//151 153//151 158//151
f 159//152 152//152 155//152
f 151//153 157//153 155//153
f 153//154 156//154 160//154
f 152//155 161//155 156//155
f 157//156 154//156 162//156
f 154//157 158//157 163//157
f 153//158 160//158 158//158
f 159//159 155//159 164//159
f 161//160 152//160 159//160
f 155//161 157//161 165//161
f 160//162 156//162 166//162
f 156//163 161//163 167//163
f 157//164 162//164 168//164
f 154//165 163//165 162//165
f 158//166 132//166 143//166
f 158//167 160//167 169//167
f 159//168 164//168 170//168
f 155//169 165//169 164//169
f 161//170 159//170 171//170
f 157//171 168//171 165//171
f 160//172 166//172 169//172
f 156//173 110//173 98//173
f 161//174 171//174 167//174
f 162//175 142//175 141//175
f 145//176 163//176 146//176
f 163//177 147//177 146//177
f 158//178 134//178 133//178
f 171//179 159//179 170//179
f 164//180 172//180 170//180
f 164//181 165//181 172//181
f 165//182 140//182 139//182
f 80//183 166//183 81//183
f 166//184 83//184 82//184
f 167//184 91//184 110//184
f 167//185 94//185 93//185
f 140//186 168//186 141//186
f 162//187 144//187 149//187
f 169//188 114//188 115//188
f 171//189 90//189 73//189
f 170//190 172//190 173//190
f 138//191 165//191 139//191
f 169//192 67//192 66//192
f 81//193 166//193 82//193
f 92//194 167//194 93//194
f 171//195 71//195 94//195
f 170//196 103//196 89//196
f 126//197 107//197 173//197
f 138//198 122//198 121//198
f 103//199 173//199 104//199
f 105//200 173//200 106//200
f 104//201 173//201 105//201
f 51//202 174//202 52//202
f 51//203 28//203 27//203
f 52//204 174//204 53//204
f 26//205 174//205 27//205
f 174//206 24//206 40//206
f 25//207 174//207 26//207
f 6//208 11//208 33//208
f 17//18 45//18 32//18
f 6//18 33//18 17//18
f 32//18 29//18 6//18
f 28//25 22//25 11//25
f 11//25 9//25 23//25
f 23//209 24//209 25//209
f 11//25 23//25 25//25
f 27//210 28//210 11//210
f 11//25 25//25 26//25
f 31//211 16//211 6//211
f 6//211 29//211 30//211
f 39//33 23//33 9//33
f 9//33 21//33 60//33
f 9//33 60//33 49//33
f 36//33 39//33 9//33
f 24//36 23//36 39//36
f 43//40 16//40 31//40
f 31//212 55//212 68//212
f 44//41 30//41 29//41
f 29//41 32//41 46//41
f 44//42 56//42 55//42
f 31//42 30//42 44//42
f 46//36 17//36 33//36
f 22//36 38//36 51//36
f 54//36 46//36 33//36
f 22//213 51//213 52//213
f 54//36 33//36 22//36
f 40//36 39//36 54//36
f 53//36 40//36 54//36
f 54//214 22//214 52//214
f 37//48 62//48 50//48
f 50//48 61//48 21//48
f 59//58 54//58 39//58
f 67//62 42//62 43//62
f 43//62 65//62 66//62
f 58//68 47//68 71//68
f 72//68 73//68 58//68
f 59//71 49//71 60//71
f 59//71 60//71 75//71
f 61//71 50//71 76//71
f 59//71 75//71 61//71
f 77//74 62//74 37//74
f 63//74 96//74 79//74
f 79//74 77//74 37//74
f 76//75 50//75 62//75
f 62//75 77//75 78//75
f 83//215 64//215 42//215
f 42//215 67//215 80//215
f 42//215 80//215 81//215
f 82//216 83//216 42//216
f 43//217 84//217 85//217
f 68//218 55//218 56//218
f 56//78 114//78 99//78
f 84//78 68//78 56//78
f 63//83 57//83 89//83
f 90//84 57//84 58//84
f 94//85 71//85 47//85
f 64//85 91//85 92//85
f 93//219 94//219 47//219
f 64//219 92//219 93//219
f 64//88 83//88 97//88
f 63//220 88//220 103//220
f 63//220 103//220 104//220
f 107//220 108//220 96//220
f 106//220 107//220 96//220
f 96//220 63//220 104//220
f 105//220 106//220 96//220
f 57//94 90//94 109//94
f 64//95 98//95 110//95
f 78//101 79//101 96//101
f 96//221 108//221 126//221
f 126//221 120//221 78//221
f 56//103 101//103 115//103
f 122//112 113//112 78//112
f 78//112 120//112 121//112
f 101//114 124//114 125//114
f 130//122 131//122 113//122
f 134//222 125//222 124//222
f 124//222 132//222 133//222
f 131//131 130//131 138//131
f 138//223 139//223 140//223
f 141//131 142//131 131//131
f 138//131 140//131 141//131
f 147//135 124//135 136//135
f 136//135 144//135 145//135
f 146//135 147//135 136//135
f 144//224 136//224 131//224
f 131//224 142//224 149//224
f 124//141 147//141 150//141
f 150//225 163//225 158//225
f 158//225 133//225 132//225
f 143//225 150//225 158//225
f 97//173 166//173 156//173
f 156//173 167//173 110//173
f 98//173 97//173 156//173
f 141//226 168//226 162//226
f 162//226 149//226 142//226
f 145//176 162//176 163//176
f 163//177 150//177 147//177
f 158//178 169//178 134//178
f 165//182 168//182 140//182
f 80//183 169//183 166//183
f 166//184 97//184 83//184
f 167//184 92//184 91//184
f 167//185 171//185 94//185
f 162//227 145//227 144//227
f 125//188 134//188 169//188
f 169//188 66//188 65//188
f 65//188 85//188 99//188
f 65//188 99//188 114//188
f 115//188 125//188 169//188
f 169//188 65//188 114//188
f 171//189 170//189 109//189
f 171//228 109//228 90//228
f 73//189 72//189 171//189
f 138//191 172//191 165//191
f 169//229 80//229 67//229
f 171//195 72//195 71//195
f 170//196 173//196 103//196
f 103//196 88//196 89//196
f 89//196 109//196 170//196
f 173//197 172//197 121//197
f 121//197 120//197 126//197
f 126//197 118//197 107//197
f 107//197 106//197 173//197
f 173//197 121//197 126//197
f 121//230 172//230 138//230
f 138//231 130//231 122//231
f 27//232 174//232 51//232
f 51//233 38//233 28//233
f 40//234 53//234 174//234
f 174//235 25//235 24//235
