# Blender 3.5.1
# www.blender.org
mtllib rock2.mtl
o Stone_average_01_mossy_Icosphere.009
v -21.409969 0.378518 15.926094
v -21.499424 0.000001 17.678272
v -22.608547 0.072649 16.955660
v -22.274046 0.000001 15.668520
v -21.598398 0.561409 17.590137
v -22.615391 0.294097 16.259687
v -21.919685 0.489130 15.652573
v -20.840588 0.175669 16.739201
v -21.525383 0.899345 16.546331
v -22.274700 0.587149 15.888187
v -22.453705 0.420928 15.956135
v -21.551495 0.000001 16.717142
v -21.687325 0.305640 17.792799
v -22.546024 0.373457 16.997328
v -22.481644 0.124123 15.877277
v -21.382511 0.139521 15.874233
v -21.805698 0.857105 16.738348
v -21.344963 0.769735 16.477880
v -20.993458 0.342452 16.508833
v -22.288601 0.269385 15.644182
v -21.955376 0.000001 17.777172
v -20.925385 0.000001 17.290958
v -21.623127 0.000001 15.681652
v -22.057838 0.000001 15.586802
v -22.517372 0.000001 16.040617
v -21.085165 0.000001 17.503231
v -20.816383 0.000001 16.867615
v -22.229668 0.000001 16.651382
v -22.448296 0.000001 17.277493
v -22.655281 0.000001 16.597721
v -21.049660 0.000001 16.286430
v -21.247095 0.702584 17.212109
v -22.462536 0.604459 16.451925
v -21.094465 0.670838 16.752741
v -21.522053 0.587709 15.958733
v -21.965931 0.853428 16.278196
v -21.901001 0.684184 15.856922
v -22.393047 0.587958 16.900282
v -21.816465 0.456948 17.728941
v -21.484470 0.872286 16.884604
v -21.783482 0.259678 15.586306
v -22.089508 0.265762 15.559597
v -22.642948 0.261812 16.618475
v -21.098625 0.440017 17.372713
v -20.878162 0.270826 17.102697
v -22.275021 0.138708 17.589960
v -21.779230 0.261697 15.573595
v -21.401131 0.384551 15.917776
v -22.096535 0.411884 17.682581
v -22.345997 0.417309 17.369080
v -21.915377 0.495805 15.641592
v -21.515003 0.596098 15.950754
v -20.982262 0.347569 16.503159
v -20.828354 0.180561 16.736023
v -21.084845 0.680271 16.751268
v -21.523773 0.912783 16.545603
v -22.465691 0.425340 15.951593
v -22.493805 0.126703 15.871878
v -20.997765 0.571968 16.996490
v -21.090256 0.447967 17.379814
v -21.592915 0.568383 17.600384
v -22.556747 0.381045 17.000666
v -22.472206 0.613942 16.452404
v -21.480080 0.885071 16.885580
v -21.808754 0.870264 16.739456
v -21.896885 0.694744 15.849489
v -22.401421 0.598263 16.903013
v -21.816921 0.464887 17.739918
v -21.239424 0.712639 17.216982
v -21.038626 0.002279 16.278898
v -22.059082 -0.002058 15.573463
v -22.279060 -0.001635 15.656034
v -22.293613 0.267749 15.631699
v -22.665310 -0.008592 16.600775
v -22.619049 0.064811 16.959122
v -21.928596 0.213640 17.834156
v -22.284739 0.136827 17.599218
v -21.958580 -0.003248 17.789934
v -21.684269 0.308113 17.805769
v -21.494923 -0.001953 17.690907
v -21.079918 -0.001426 17.515648
v -22.460148 -0.001002 17.283989
v -22.627262 0.300192 16.257318
v -21.967560 0.866780 16.276525
v -22.090584 0.265288 15.546095
v -22.654850 0.268284 16.618898
v -21.372887 0.137509 15.864904
v -21.616425 -0.000720 15.669893
v -20.866211 0.276890 17.104731
vn -0.0000 -1.0000 -0.0000
vn 0.5273 0.8300 -0.1819
vn -0.2403 0.7131 -0.6586
vn -0.2617 0.8809 -0.3943
vn -0.3074 0.8835 0.3535
vn 0.0535 -0.9876 0.1475
vn -0.7390 0.2048 0.6418
vn 0.0794 0.9074 0.4127
vn 0.4385 -0.8818 -0.1736
vn 0.1497 0.9675 0.2037
vn -0.6544 0.6695 -0.3514
vn -0.0119 -0.9984 0.0545
vn 0.8010 0.2134 -0.5593
vn 0.4029 -0.9001 0.1657
vn 0.6064 -0.7734 -0.1847
vn -0.5442 0.7998 -0.2531
vn -0.9960 0.0526 -0.0718
vn -0.9652 0.1735 0.1958
vn 0.3986 -0.8763 0.2706
vn 0.7033 0.5895 -0.3972
vn -0.9379 0.2886 -0.1927
vn -0.4367 -0.8265 0.3553
vn 0.4102 0.1989 -0.8900
vn 0.8151 0.1875 0.5481
vn 0.2780 -0.0286 0.9601
vn 0.9684 0.0045 0.2493
vn 0.9828 0.1760 0.0555
vn 0.6124 0.2342 -0.7551
vn -0.8040 0.5930 0.0433
vn -0.9607 -0.1430 -0.2378
vn -0.9523 -0.1036 -0.2870
vn -0.7547 -0.4322 -0.4935
vn -0.8837 0.1211 0.4521
vn -0.9506 0.2084 -0.2302
vn 0.9185 -0.1429 -0.3687
vn 0.4225 0.9033 -0.0747
vn -0.0551 -0.9895 -0.1334
vn 0.1890 -0.7574 0.6250
vn -0.7082 0.6579 -0.2562
vn -0.4923 0.8494 -0.1901
vn -0.4360 -0.8929 -0.1121
vn -0.0526 -0.9645 -0.2587
vn 0.7015 0.5631 -0.4367
vn 0.4167 0.8041 -0.4241
vn 0.9906 -0.1144 0.0756
vn -0.2094 0.9068 0.3658
vn 0.3015 -0.9471 0.1095
vn 0.0548 -0.9970 -0.0540
vn -0.5874 -0.8077 -0.0513
vn -0.0662 0.9591 -0.2751
vn 0.2308 -0.3756 -0.8976
vn -0.3309 0.5838 -0.7414
vn -0.7347 -0.1003 -0.6710
vn -0.6613 0.4748 -0.5807
vn -0.8142 0.2195 -0.5375
vn -0.6108 0.7512 0.2503
vn -0.9918 0.0370 0.1220
vn -0.4018 -0.1691 0.9000
vn -0.1969 0.9804 -0.0075
vn -0.2571 -0.1508 -0.9546
vn 0.7696 0.2685 0.5793
vn -0.6133 0.7856 -0.0818
vn -0.3199 -0.9022 0.2892
vn 0.6709 0.6968 -0.2537
vn 0.2878 -0.9210 -0.2627
vn -0.0318 0.9926 -0.1173
vn -0.9271 -0.0163 0.3744
vn 0.1235 -0.9854 -0.1171
vn 0.5217 0.2572 0.8134
vn 0.3321 0.8346 -0.4394
vn 0.8592 0.4485 -0.2462
vn 0.7117 0.5476 -0.4400
vn 0.7314 0.4706 -0.4936
vn 0.1185 0.9277 -0.3541
vn -0.7735 0.6174 0.1430
vn -0.6904 0.6428 0.3317
vn -0.2385 0.9193 0.3130
vn 0.6951 0.6179 0.3676
vn 0.8827 0.4565 -0.1118
vn 0.7923 0.2361 -0.5626
vn 0.8722 0.1583 -0.4629
vn 0.0869 0.3242 -0.9420
vn 0.5398 0.4055 -0.7377
vn 0.4564 0.4825 -0.7476
vn -0.2595 0.4382 0.8606
vn -0.5662 0.1413 0.8121
vn -0.0324 0.3636 0.9310
vn 0.4470 0.4522 0.7718
vn 0.2469 0.5454 0.8010
vn -0.3938 0.9144 0.0937
vn 0.6937 -0.2958 -0.6567
vn 0.3871 -0.1031 0.9163
vn -0.7299 -0.6450 0.2263
vn 0.4326 0.6366 0.6384
vn -0.8171 0.5359 -0.2125
vn 0.3472 0.6620 -0.6643
vn -0.0855 0.9921 0.0919
vn -0.1241 0.9917 0.0351
vn -0.4466 0.8149 0.3695
vn 0.4844 0.8691 0.1004
vn 0.0866 -0.0914 -0.9920
vn 0.5910 0.7943 0.1409
vn -0.3484 -0.1360 -0.9274
vn -0.8892 0.4566 -0.0276
vn 0.1968 -0.2219 0.9550
vn -0.7373 0.3250 0.5923
vn -0.5333 -0.0976 0.8403
vn 0.9149 0.4036 -0.0115
vn 0.8009 0.4856 0.3503
vn 0.5963 0.0767 -0.7991
vn -0.8980 0.1904 -0.3966
vn -0.8868 0.0933 0.4527
vn -0.8589 0.1994 0.4717
vn -0.5828 -0.5739 0.5753
vn 0.0427 -0.9927 0.1129
vn -0.7232 0.2373 0.6486
vn 0.3385 -0.9403 -0.0362
vn 0.2523 0.9662 0.0519
vn -0.5681 0.7892 -0.2332
vn -0.0308 -0.9874 0.1553
vn 0.3302 -0.9214 0.2050
vn 0.0777 -0.9969 -0.0122
vn -0.5974 0.6378 -0.4861
vn 0.4171 -0.8679 0.2696
vn 0.6723 0.6434 -0.3661
vn -0.9526 0.2588 -0.1599
vn -0.4623 -0.8111 0.3583
vn 0.4322 0.1933 -0.8808
vn 0.2733 -0.0175 0.9618
vn -0.8041 0.5928 0.0447
vn -0.9850 -0.1336 -0.1091
vn 0.3420 0.9050 -0.2531
vn -0.0410 -0.9944 -0.0970
vn 0.2515 -0.7144 0.6530
vn -0.4777 -0.8710 -0.1151
vn -0.0308 -0.9894 -0.1420
vn 0.8458 -0.4694 0.2537
vn -0.2030 0.9087 0.3649
vn 0.4518 -0.8099 0.3741
vn 0.1935 -0.9613 -0.1961
vn -0.1277 -0.9372 -0.3245
vn -0.4270 0.9039 -0.0273
vn 0.3804 -0.0955 -0.9199
vn -0.3156 0.5591 -0.7667
vn -0.6512 0.7071 0.2755
vn -0.4079 0.0707 0.9103
vn -0.5427 0.8156 0.2004
vn -0.2364 -0.1930 -0.9523
vn -0.6607 0.7478 -0.0655
vn -0.4797 -0.8502 0.2167
vn 0.4290 0.8496 -0.3069
vn 0.3335 -0.8953 -0.2952
vn -0.0026 0.9994 -0.0349
vn -0.9271 -0.0163 0.3745
vn -0.0371 -0.9985 0.0401
vn -0.4066 0.9039 0.1327
vn 0.4634 0.8860 0.0127
vn 0.2083 -0.2205 -0.9529
vn -0.3875 -0.1037 -0.9160
vn -0.8659 0.4944 0.0765
vn 0.2040 -0.2281 0.9520
vt 0.959225 0.706329
vt 0.262857 0.710315
vt 0.956478 0.515579
vt 0.259811 0.528424
vt 0.922420 0.552189
vt 0.222045 0.563333
vt 0.932692 0.515578
vt 0.233435 0.528424
vt 0.256441 0.798201
vt 0.953439 0.798496
vt 0.922210 0.663787
vt 0.221812 0.669748
vt 0.245501 0.763468
vt 0.943573 0.762071
vt 0.976709 0.604105
vt 0.282245 0.612839
vt 0.955681 0.968797
vt 0.258927 0.960592
vt 0.932672 0.811468
vt 0.927175 0.727702
vt 0.227317 0.730695
vt 0.954879 0.515579
vt 0.950708 0.669603
vt 0.253413 0.675295
vt 0.924340 0.703779
vt 0.224174 0.707883
vt 0.926317 0.578129
vt 0.226366 0.588069
vt 0.960068 0.585889
vt 0.263792 0.595468
vt 0.249382 0.940295
vt 0.947073 0.947511
vt 0.961221 0.903481
vt 0.972015 0.688155
vt 0.277039 0.692984
vt 0.932245 0.651332
vt 0.232939 0.657872
vt 0.942477 0.515579
vt 0.244286 0.528424
vt 0.974105 0.515579
vt 0.952680 0.515578
vt 0.255599 0.528424
vt 0.939331 0.515578
vt 0.240797 0.528424
vt 0.925220 0.515578
vt 0.969199 0.515579
vt 0.273917 0.528424
vt 0.977452 0.515579
vt 0.934054 0.515579
vt 0.927341 0.515579
vt 0.227501 0.528424
vt 0.920985 0.515579
vt 0.220453 0.528424
vt 0.970289 0.515579
vt 0.275126 0.528424
vt 0.964226 0.869641
vt 0.268403 0.866041
vt 0.926904 0.820192
vt 0.227017 0.818889
vt 0.968913 0.853643
vt 0.273600 0.850787
vt 0.955783 0.811751
vt 0.259040 0.810839
vt 0.942153 0.945658
vt 0.243926 0.938528
vt 0.944147 0.860368
vt 0.246137 0.857199
vt 0.929037 0.811876
vt 0.229383 0.810960
vt 0.249015 0.748004
vt 0.946743 0.745855
vt 0.956937 0.955161
vt 0.260320 0.947590
vt 0.947756 0.646440
vt 0.250139 0.653208
vt 0.938358 0.649507
vt 0.239718 0.656132
vt 0.921364 0.647516
vt 0.220873 0.654234
vt 0.968786 0.737322
vt 0.273458 0.739868
vt 0.975555 0.652058
vt 0.280965 0.658566
vt 0.932662 0.585479
vt 0.233401 0.595078
vt 0.250283 0.654179
vt 0.263158 0.713214
vt 0.239479 0.726349
vt 0.230985 0.728956
vt 0.245648 0.766677
vt 0.259280 0.814870
vt 0.277420 0.695443
vt 0.282661 0.615189
vt 0.273928 0.855319
vt 0.258982 0.967050
vt 0.226909 0.732815
vt 0.225952 0.589308
vt 0.276893 0.803276
vt 0.273743 0.743688
vt 0.256628 0.801553
vt 0.223809 0.711529
vt 0.226687 0.823446
vt 0.260470 0.953733
vt 0.249278 0.946618
vt 0.246277 0.862274
vt 0.229098 0.815911
vt 0.249000 0.751819
vt 0.268664 0.870873
vt 0.275501 0.529518
vt 0.240754 0.527434
vt 0.233264 0.527638
vt 0.232768 0.657086
vt 0.220112 0.524294
vt 0.221687 0.559567
vt 0.245197 0.631085
vt 0.233071 0.594174
vt 0.244176 0.526863
vt 0.253517 0.676483
vt 0.259964 0.527484
vt 0.274095 0.527738
vt 0.227098 0.527941
vt 0.221407 0.672677
vt 0.243871 0.944944
vt 0.239682 0.655904
vt 0.220468 0.657344
vt 0.264120 0.594501
vt 0.255827 0.528077
vt 0.281372 0.661479
s 0
usemtl AllColors_Material
f 29/50/1 12/22/1 2/3/1
f 12/22/1 29/50/1 28/49/1
f 23/41/1 31/54/1 24/43/1
f 18/33/2 9/17/2 34/60/2
f 10/19/3 37/66/3 7/14/3
f 37/66/4 10/19/4 36/64/4
f 17/32/5 38/68/5 39/71/5
f 24/44/6 72/111/6 71/110/6
f 32/57/7 64/103/7 40/73/7
f 32/56/8 40/72/8 5/10/8
f 41/75/9 48/87/9 1/2/9
f 41/75/10 87/126/10 47/86/10
f 32/57/11 61/100/11 69/108/11
f 24/44/12 88/127/12 23/42/12
f 16/29/13 1/1/13 19/34/13
f 8/16/14 70/109/14 54/93/14
f 29/51/15 74/113/15 30/53/15
f 39/70/16 61/100/16 5/9/16
f 30/52/17 43/78/17 6/11/17
f 43/78/18 3/5/18 14/25/18
f 8/16/19 89/128/19 45/83/19
f 39/70/20 67/106/20 68/107/20
f 7/13/21 66/105/21 51/90/21
f 14/26/22 86/125/22 43/79/22
f 11/21/23 58/97/23 57/96/23
f 44/80/24 26/46/24 45/82/24
f 38/69/25 65/104/25 67/106/25
f 45/82/26 22/40/26 27/48/26
f 8/15/27 45/82/27 27/48/27
f 1/1/28 16/29/28 41/74/28
f 42/77/29 51/90/29 85/124/29
f 6/11/30 25/45/30 30/52/30
f 6/11/31 15/27/31 25/45/31
f 25/45/32 15/27/32 4/7/32
f 46/84/33 14/25/33 3/5/33
f 2/3/1 21/38/1 29/50/1
f 36/65/34 66/105/34 37/67/34
f 8/15/35 27/48/35 31/54/35
f 28/49/1 29/50/1 30/52/1
f 24/43/1 31/54/1 22/40/1
f 12/22/1 24/43/1 22/40/1
f 13/24/36 81/120/36 26/47/36
f 25/45/1 4/7/1 24/43/1
f 2/4/37 81/120/37 80/119/37
f 44/81/38 89/128/38 60/99/38
f 11/20/39 33/58/39 10/19/39
f 36/64/40 10/19/40 33/58/40
f 6/12/41 86/125/41 83/122/41
f 21/39/42 80/119/42 78/117/42
f 34/60/43 35/62/43 18/33/43
f 9/17/44 18/33/44 35/62/44
f 9/18/45 52/91/45 56/95/45
f 17/32/46 5/10/46 40/72/46
f 13/24/47 60/99/47 79/118/47
f 21/39/48 82/121/48 29/51/48
f 46/85/49 62/101/49 14/26/49
f 16/30/50 53/92/50 87/126/50
f 9/18/51 55/94/51 34/61/51
f 7/14/52 20/36/52 10/19/52
f 4/7/53 15/27/53 20/36/53
f 10/19/54 20/36/54 11/20/54
f 11/20/55 20/36/55 15/27/55
f 34/61/56 52/91/56 35/63/56
f 3/5/57 43/78/57 30/52/57
f 40/73/58 65/104/58 17/31/58
f 46/85/59 75/114/59 77/116/59
f 36/65/60 63/102/60 84/123/60
f 45/82/61 26/46/61 22/40/61
f 3/6/62 74/113/62 75/114/62
f 6/12/63 58/97/63 15/28/63
f 33/59/64 57/96/64 63/102/64
f 1/2/65 53/92/65 19/35/65
f 42/77/66 73/112/66 20/37/66
f 4/8/67 73/112/67 72/111/67
f 23/42/68 70/109/68 31/55/68
f 44/80/69 13/23/69 26/46/69
f 26/46/1 2/3/1 22/40/1
f 22/40/1 31/54/1 27/48/1
f 28/49/1 24/43/1 12/22/1
f 25/45/1 24/43/1 28/49/1
f 30/52/1 25/45/1 28/49/1
f 22/40/1 2/3/1 12/22/1
f 52/91/70 66/105/70 56/95/70
f 53/92/71 55/94/71 54/93/71
f 53/92/72 52/91/72 55/94/72
f 48/87/73 52/91/73 53/92/73
f 66/105/74 84/123/74 56/95/74
f 62/101/75 67/106/75 63/102/75
f 50/89/76 67/106/76 62/101/76
f 68/107/77 67/106/77 49/88/77
f 59/98/78 69/108/78 60/99/78
f 55/94/79 59/98/79 54/93/79
f 87/126/80 53/92/80 70/109/80
f 70/109/81 53/92/81 54/93/81
f 51/90/82 47/86/82 85/124/82
f 47/86/83 52/91/83 48/87/83
f 47/86/84 51/90/84 52/91/84
f 49/88/85 76/115/85 68/107/85
f 76/115/86 49/88/86 77/116/86
f 68/107/87 76/115/87 79/118/87
f 61/100/88 79/118/88 60/99/88
f 68/107/89 79/118/89 61/100/89
f 65/104/90 63/102/90 67/106/90
f 88/127/91 87/126/91 70/109/91
f 81/120/92 79/118/92 80/119/92
f 75/114/93 74/113/93 82/121/93
f 60/99/94 69/108/94 61/100/94
f 83/122/95 63/102/95 57/96/95
f 52/91/96 51/90/96 66/105/96
f 65/104/97 64/103/97 56/95/97
f 56/95/98 84/123/98 65/104/98
f 50/89/99 49/88/99 67/106/99
f 55/94/100 64/103/100 69/108/100
f 47/86/101 71/110/101 85/124/101
f 69/108/102 59/98/102 55/94/102
f 72/111/103 85/124/103 71/110/103
f 86/125/104 63/102/104 83/122/104
f 78/117/105 79/118/105 76/115/105
f 77/116/106 49/88/106 50/89/106
f 78/117/107 76/115/107 77/116/107
f 59/98/108 89/128/108 54/93/108
f 60/99/109 89/128/109 59/98/109
f 88/127/110 47/86/110 87/126/110
f 57/96/111 58/97/111 83/122/111
f 82/121/112 77/116/112 75/114/112
f 50/89/113 62/101/113 77/116/113
f 77/116/114 82/121/114 78/117/114
f 24/44/115 4/8/115 72/111/115
f 32/57/116 69/108/116 64/103/116
f 41/75/117 47/86/117 48/87/117
f 41/75/118 16/30/118 87/126/118
f 32/57/119 5/9/119 61/100/119
f 24/44/120 71/110/120 88/127/120
f 8/16/121 31/55/121 70/109/121
f 29/51/122 82/121/122 74/113/122
f 39/70/123 68/107/123 61/100/123
f 8/16/124 54/93/124 89/128/124
f 39/70/125 38/69/125 67/106/125
f 7/13/126 37/67/126 66/105/126
f 14/26/127 62/101/127 86/125/127
f 11/21/128 15/28/128 58/97/128
f 38/69/129 17/31/129 65/104/129
f 42/77/130 7/13/130 51/90/130
f 36/65/131 84/123/131 66/105/131
f 13/24/132 79/118/132 81/120/132
f 2/4/133 26/47/133 81/120/133
f 44/81/134 45/83/134 89/128/134
f 6/12/135 43/79/135 86/125/135
f 21/39/136 2/4/136 80/119/136
f 9/18/137 35/63/137 52/91/137
f 17/32/138 39/71/138 5/10/138
f 13/24/139 44/81/139 60/99/139
f 21/39/140 78/117/140 82/121/140
f 46/85/141 77/116/141 62/101/141
f 16/30/142 19/35/142 53/92/142
f 9/18/143 56/95/143 55/94/143
f 7/14/144 42/76/144 20/36/144
f 34/61/145 55/94/145 52/91/145
f 40/73/146 64/103/146 65/104/146
f 46/85/147 3/6/147 75/114/147
f 36/65/148 33/59/148 63/102/148
f 3/6/149 30/53/149 74/113/149
f 6/12/150 83/122/150 58/97/150
f 33/59/151 11/21/151 57/96/151
f 1/2/152 48/87/152 53/92/152
f 42/77/153 85/124/153 73/112/153
f 4/8/154 20/37/154 73/112/154
f 23/42/155 88/127/155 70/109/155
f 65/104/156 84/123/156 63/102/156
f 55/94/157 56/95/157 64/103/157
f 47/86/158 88/127/158 71/110/158
f 72/111/159 73/112/159 85/124/159
f 86/125/160 62/101/160 63/102/160
f 78/117/161 80/119/161 79/118/161
