# Blender 3.5.1
# www.blender.org
mtllib stone6.mtl
o stone_5_Cube.030
v -20.367996 1.218297 30.726654
v -21.688381 1.218298 25.898716
v -22.763220 1.218298 28.265287
v -18.088253 0.805960 24.286381
v -18.242985 1.218298 30.403858
v -17.885223 -0.000000 31.419918
v -17.957705 0.000000 23.899426
v -23.700397 -0.000000 28.164385
v -21.957024 -0.000000 25.429085
v -20.284340 -0.000000 31.729435
v -15.284824 0.000000 26.880342
v -24.082092 0.744378 15.793783
v -31.095039 2.360041 14.131612
v -34.198128 0.801231 20.692574
v -28.776661 0.496948 26.183620
v -21.688091 1.557974 22.243103
v -21.100687 0.000000 22.123537
v -22.999447 2.691453 22.118208
v -28.774517 -0.000000 26.639107
v -28.480703 2.891291 23.699986
v -31.237274 0.000000 13.804653
v -31.109615 3.618637 15.308142
v -34.744556 -0.000000 21.019823
v -32.548500 2.891291 19.770077
v -24.005438 0.000001 15.509468
v -25.229689 2.717270 16.754215
v -29.259750 4.088634 18.863548
v -15.653377 0.381839 27.089390
v -20.252474 2.171477 27.716904
vn -0.3825 0.9075 -0.1737
vn 0.5048 0.7350 -0.4526
vn -0.6930 0.5697 -0.4417
vn 0.7553 0.4922 0.4327
vn 0.0968 0.6541 0.7502
vn -0.3328 0.3638 -0.8700
vn -0.6406 0.4613 0.6139
vn 0.3398 0.9276 -0.1549
vn -0.0000 -1.0000 -0.0000
vn 0.3975 0.6209 0.6756
vn -0.5709 0.5534 0.6065
vn -0.8248 0.3987 -0.4009
vn 0.8887 0.2406 -0.3903
vn 0.2134 0.3677 -0.9051
vn 0.3608 0.5039 0.7848
vn -0.5274 0.6422 0.5563
vn -0.8105 0.5256 -0.2585
vn 0.6361 0.7001 -0.3244
vn 0.2027 0.9515 -0.2313
vn 0.3108 0.5561 -0.7708
vn 0.1000 0.9695 0.2239
vn -0.3302 0.9427 0.0472
vn 0.3685 0.9281 0.0537
vn -0.2869 0.9164 0.2792
vn 0.7234 0.3905 -0.5693
vn -0.8566 0.3389 -0.3891
vn 0.7159 0.5591 0.4183
vn 0.1159 0.6360 0.7630
vn -0.3354 0.4023 -0.8518
vn -0.6427 0.4426 0.6254
vn -0.0806 0.9076 -0.4121
vn 0.4703 0.1101 0.8756
vn -0.5477 0.6082 0.5745
vn -0.9083 0.1106 -0.4033
vn 0.8618 0.3529 -0.3644
vn 0.2546 0.1176 -0.9599
vn 0.2242 0.6881 0.6901
vn -0.5253 0.6546 0.5437
vn -0.9356 0.2353 -0.2633
vn 0.7492 0.5860 -0.3087
vn 0.2694 0.9570 -0.1074
vn 0.2734 0.6586 -0.7011
vn -0.2623 0.9260 0.2715
vn 0.0461 0.9518 0.3032
vt 0.646622 0.939880
vt 0.735511 0.762903
vt 0.868043 0.851792
vt 0.601377 0.939880
vt 0.824400 0.762102
vt 0.645821 0.807348
vt 0.735511 0.851792
vt 0.601377 0.896637
vt 0.868043 0.895436
vt 0.824400 0.718459
vt 0.735511 0.850991
vt 0.602177 0.896236
vt 0.557733 0.807348
vt 0.823599 0.851792
vt 0.557733 0.896236
vt 0.913289 0.628769
vt 0.646622 0.896236
vt 0.824400 0.851792
vt 0.690266 0.896236
vt 0.956932 0.628769
vt 0.799441 0.629570
vt 0.557733 0.850991
vt 0.645821 0.896236
vt 0.735511 0.697155
vt 0.868043 0.718459
vt 0.779154 0.850991
vt 0.823599 0.708176
vt 0.868043 0.762102
vt 0.645821 0.850991
vt 0.784487 0.717658
vt 0.779154 0.762903
vt 0.690266 0.939880
vt 0.823599 0.647284
vt 0.645821 0.939880
vt 0.956932 0.540681
vt 0.737155 0.647805
vt 0.779955 0.806547
vt 0.868043 0.807348
vt 0.868844 0.717658
vt 0.912488 0.807348
vt 0.868844 0.628769
vt 0.868844 0.629570
vt 0.646622 0.895436
vt 0.868043 0.806547
vt 0.734710 0.895436
vt 0.646622 0.718459
vt 0.868844 0.540681
vt 0.912488 0.806547
vt 0.912488 0.718459
vt 0.824400 0.717658
vt 0.823599 0.718459
vt 0.557733 0.895436
vt 0.645821 0.895436
vt 0.912488 0.895436
vt 0.824400 0.540681
vt 0.779955 0.807348
vt 0.868043 0.540681
vt 0.779955 0.850991
vt 0.734710 0.553177
vt 0.735511 0.628368
vt 0.645821 0.851792
vt 0.868844 0.895436
vt 0.646622 0.850991
vt 0.868043 0.717658
vt 0.823599 0.762102
vt 0.734710 0.683944
vt 0.735511 0.540681
vt 0.557733 0.851792
vt 0.868844 0.718459
vt 0.557733 0.718459
vt 0.912488 0.628769
vt 0.912488 0.629570
vt 0.557733 0.619522
vt 0.734710 0.762903
vt 0.645821 0.806547
vt 0.646622 0.851792
vt 0.868043 0.762903
vt 0.912488 0.540681
vt 0.646622 0.762102
vt 0.621559 0.717658
vt 0.868844 0.806547
vt 0.734710 0.851792
vt 0.645821 0.718459
vt 0.868043 0.850991
vt 0.912488 0.717658
vt 0.631582 0.540681
vt 0.868844 0.807348
vt 0.734710 0.850991
vt 0.779955 0.762903
vt 0.823198 0.540681
vt 0.646622 0.762903
vt 0.557733 0.806547
vt 0.823599 0.895436
vt 0.557733 0.939480
vt 0.602177 0.939880
vt 0.913289 0.540681
vt 0.558133 0.939880
vt 0.600976 0.896236
vt 0.735511 0.895436
vt 0.824400 0.895436
s 0
usemtl low_poly_stones_color_palette.002
f 3/8/1 29/97/1 2/4/1
f 7/23/2 28/95/2 11/34/2
f 3/10/3 9/28/3 8/25/3
f 28/96/4 6/20/4 11/35/4
f 5/17/5 10/32/5 6/19/5
f 9/29/6 4/13/6 7/22/6
f 1/2/7 8/26/7 10/31/7
f 4/14/8 29/99/8 28/93/8
f 8/27/9 7/24/9 6/21/9
f 17/57/10 15/50/10 19/64/10
f 15/51/11 23/79/11 19/65/11
f 14/47/12 21/71/12 23/78/12
f 12/38/13 17/58/13 25/84/13
f 21/72/14 12/39/14 25/85/14
f 18/61/15 15/52/15 16/53/15
f 20/69/16 14/48/16 15/49/16
f 24/82/17 13/43/17 14/45/17
f 12/40/18 18/62/18 16/54/18
f 23/80/9 25/86/9 17/59/9
f 27/91/19 26/88/19 22/74/19
f 13/44/20 26/89/20 12/37/20
f 20/67/21 18/60/21 27/90/21
f 24/83/22 27/92/22 22/75/22
f 5/15/23 28/94/23 29/98/23
f 1/3/24 29/100/24 3/9/24
f 7/23/25 4/12/25 28/95/25
f 3/10/26 2/5/26 9/28/26
f 28/96/27 5/16/27 6/20/27
f 5/17/28 1/1/28 10/32/28
f 9/29/29 2/6/29 4/13/29
f 1/2/30 3/11/30 8/26/30
f 4/14/31 2/7/31 29/99/31
f 6/21/9 10/33/9 8/27/9
f 8/27/9 9/30/9 7/24/9
f 7/24/9 11/36/9 6/21/9
f 17/57/32 16/55/32 15/50/32
f 15/51/33 14/46/33 23/79/33
f 14/47/34 13/41/34 21/71/34
f 12/38/35 16/56/35 17/58/35
f 21/72/36 13/42/36 12/39/36
f 18/61/37 20/68/37 15/52/37
f 20/69/38 24/81/38 14/48/38
f 24/82/39 22/76/39 13/43/39
f 12/40/40 26/87/40 18/62/40
f 17/59/9 19/66/9 23/80/9
f 23/80/9 21/73/9 25/86/9
f 27/91/41 18/63/41 26/88/41
f 13/44/42 22/77/42 26/89/42
f 24/83/43 20/70/43 27/92/43
f 1/3/44 5/18/44 29/100/44
