# Blender 3.5.1
# www.blender.org
mtllib stone7.mtl
o stone_6_Cube.031
v -12.526354 2.541924 -24.503141
v 1.563796 2.286719 -20.048025
v -0.169783 1.918526 -23.372427
v -7.625136 1.837240 -16.985950
v -14.944757 2.541924 -22.937757
v -15.650808 -0.000000 -24.331009
v -7.603199 0.000000 -16.395550
v 0.083907 -0.000000 -23.887297
v 2.155748 0.000000 -19.896593
v -12.995817 -0.000000 -25.541435
v -16.717327 0.000000 -15.034989
v -15.897348 1.257384 -15.450336
v -16.761757 1.827171 -19.001966
v -17.948143 -0.000000 -18.402401
v -11.871216 1.361224 -14.858807
v -11.843337 0.000000 -13.899530
v 0.427847 2.120465 -14.962056
v -2.253714 0.000001 -13.588772
v -6.349277 2.679135 -23.718607
v -6.415329 -0.000000 -24.223557
v -11.861364 3.758757 -23.482004
v 0.648992 4.109667 -19.903751
v -0.532123 3.758757 -22.653296
v -7.717627 3.133195 -17.379581
v -14.087290 3.758757 -22.198009
v -15.181095 2.522995 -16.433502
v -15.184312 3.124265 -18.939396
v -11.906193 2.401653 -15.314896
v -0.802489 4.222230 -15.743899
v -6.217239 3.636827 -23.142620
v -3.293968 5.255754 -20.217390
v -8.886081 4.625692 -19.316225
v -12.275709 4.024134 -17.913692
v -12.702461 4.435836 -20.393158
v 1.096418 0.000001 -14.338369
v -12.253912 0.000001 -8.805769
v -12.019091 0.955587 -9.193361
v -9.445300 1.064882 -8.924025
v -9.137141 0.000001 -8.589337
v -12.789444 0.955587 -10.349664
v -12.999136 0.000001 -10.339359
v -9.879646 1.064882 -11.166986
v -9.407174 0.000001 -11.471117
v -11.417413 1.010234 -12.772230
v -11.503312 0.000000 -13.012306
v -11.424954 2.233787 -10.330070
v -10.224768 2.051376 -10.139845
v -11.821606 2.337363 -10.924572
v -10.263748 2.116449 -11.461104
v -11.128031 2.288872 -12.233801
v -8.216469 0.000001 -12.273983
v -8.018787 0.764177 -12.565562
v -5.469670 1.064882 -12.841457
v -5.138880 0.000001 -12.679002
v -8.872826 0.764177 -13.178258
v -9.077780 0.000000 -13.134935
v -6.063872 1.372778 -13.961433
v -5.647896 0.000000 -14.494448
v -7.709168 1.318130 -14.730137
v -7.835853 0.000000 -15.124130
v -0.549603 -0.000000 -27.022200
v -0.870960 0.712245 -26.931604
v -2.822394 0.828248 -29.164238
v -2.841020 -0.000001 -29.490215
v -0.961332 0.712245 -25.436956
v -0.877167 -0.000000 -25.359425
v -3.870923 0.828248 -27.099209
v -4.333940 -0.000000 -27.203938
v -3.610593 0.770241 -24.655678
v -3.617389 -0.000000 -24.533833
v -1.331059 1.369566 -26.709053
v -2.887549 1.497986 -28.600639
v -1.512326 1.550573 -26.248569
v -3.344983 1.612758 -27.109354
v -3.046943 1.477756 -25.474476
v -5.732506 -0.000001 -27.505768
v -6.058209 0.764176 -27.441301
v -8.199868 1.064880 -29.131969
v -8.360663 -0.000001 -29.494888
v -5.757252 0.764176 -26.364441
v -5.572568 -0.000000 -26.243809
v -8.400311 1.372777 -27.880604
v -9.038092 -0.000001 -27.803251
v -7.577334 1.318129 -26.104034
v -7.711762 -0.000000 -25.724884
v 4.498265 -0.000000 -24.165066
v 4.248398 0.764177 -23.814110
v 2.108001 0.811045 -23.534922
v 1.621324 -0.000000 -23.878868
v 5.055928 0.678713 -22.190117
v 5.448468 0.000000 -21.876053
v 2.350529 0.934333 -22.188433
v 1.985380 -0.000000 -21.609772
v 4.221462 0.879685 -20.709768
v 4.381884 0.000000 -20.330238
vn -0.2054 0.4251 0.8815
vn 0.8628 0.2343 -0.4479
vn -0.8384 0.4377 -0.3249
vn -0.3785 0.4091 -0.8303
vn -0.4475 0.2687 0.8529
vn 0.0498 0.2650 -0.9630
vn -0.7601 0.5874 0.2778
vn 0.4316 0.5255 0.7332
vn 0.2057 0.3353 0.9194
vn 0.1845 0.3423 -0.9213
vn 0.7881 0.5580 0.2599
vn -0.6288 0.7559 0.1822
vn 0.0982 0.3789 -0.9202
vn 0.3793 0.3821 0.8427
vn 0.0626 0.5080 -0.8591
vn -0.2611 0.2634 0.9287
vn -0.1266 0.6522 0.7474
vn -0.3533 0.7071 -0.6125
vn -0.7686 0.6249 -0.1371
vn 0.8054 0.4360 -0.4016
vn 0.2733 0.9594 0.0694
vn 0.1057 0.8502 0.5158
vn 0.0922 0.8148 0.5723
vn -0.2686 0.6778 0.6844
vn 0.2885 0.9263 -0.2422
vn 0.0497 0.8520 -0.5212
vn -0.1292 0.9852 -0.1128
vn -0.4586 0.8884 0.0186
vn -0.0994 0.9787 0.1796
vn -0.3579 0.9079 0.2183
vn -0.1534 0.8283 0.5389
vn -0.3564 0.9099 0.2124
vn 0.0110 0.9774 -0.2112
vn 0.0248 0.8640 -0.5029
vn 0.9228 0.3427 0.1759
vn -0.0667 0.9634 0.2597
vn -0.0000 -1.0000 -0.0000
vn -0.0665 0.2816 0.9572
vn -0.8573 0.1869 -0.4797
vn 0.9639 0.2505 -0.0903
vn 0.7192 0.0693 -0.6913
vn 0.6337 0.4590 -0.6227
vn -0.8356 0.3700 0.4060
vn -0.8087 0.3794 -0.4495
vn -0.1010 0.7399 0.6651
vn -0.6248 0.6606 0.4162
vn 0.8633 0.4761 -0.1672
vn 0.1558 0.9867 0.0460
vn 0.1432 0.9887 0.0445
vn 0.1234 0.3258 0.9374
vn -0.8160 0.2361 -0.5276
vn 0.9324 0.2497 -0.2614
vn 0.3700 0.4316 -0.8227
vn -0.5294 0.4185 0.7379
vn -0.0792 0.9497 0.3031
vn -0.1381 0.9641 0.2270
vn -0.1601 0.9615 0.2232
vn 0.7107 0.2437 -0.6599
vn 0.2827 0.1474 0.9478
vn -0.8153 0.2279 -0.5324
vn -0.7233 0.6842 0.0933
vn -0.8614 0.4523 0.2312
vn 0.9052 0.3857 0.1783
vn 0.2271 0.6541 0.7215
vn 0.6551 0.5228 -0.5455
vn 0.8261 0.5613 0.0499
vn -0.8554 0.2823 -0.4343
vn -0.0053 0.9965 0.0833
vn 0.1271 0.9912 -0.0373
vn 0.5740 0.3086 -0.7584
vn 0.2113 0.2502 0.9448
vn -0.8969 0.2578 -0.3592
vn -0.8247 0.4054 0.3945
vn 0.8837 0.3975 -0.2470
vn 0.2798 0.9417 -0.1869
vn 0.2669 0.9591 -0.0941
vn 0.2800 0.9568 -0.0783
vn -0.0892 0.4338 -0.8966
vn 0.7655 0.3675 0.5282
vn -0.8741 0.4650 0.1402
vn -0.4903 0.5893 0.6421
vn 0.8128 0.4407 -0.3810
vn 0.0097 0.9956 -0.0929
vn 0.0581 0.9976 -0.0366
vn 0.1747 0.9840 -0.0351
vn -0.1339 0.5690 0.8113
vn 0.8613 0.1918 -0.4704
vn -0.8534 0.4120 -0.3192
vn -0.4637 0.5214 -0.7163
vn -0.1978 0.6967 0.6895
vn 0.0774 0.1828 -0.9801
vn -0.7609 0.5857 0.2792
vn 0.4038 0.2843 0.8696
vn 0.1200 0.1810 -0.9761
vn 0.8803 0.4251 0.2105
vn -0.7275 0.6274 0.2777
vn 0.0630 0.5080 -0.8591
vn 0.3809 0.2935 0.8768
vn 0.0862 0.6124 -0.7859
vn -0.2453 0.2086 0.9467
vn -0.2869 0.3765 0.8809
vn -0.4052 0.6662 -0.6261
vn -0.6245 0.7667 -0.1491
vn 0.8171 0.3422 -0.4640
vn -0.1437 0.9578 -0.2491
vn 0.9411 0.2581 0.2186
vn -0.1122 0.3970 0.9109
vn -0.8572 0.1829 -0.4814
vn 0.8817 0.4399 -0.1707
vn 0.6754 0.1511 -0.7218
vn 0.5866 0.1397 -0.7978
vn -0.8178 0.1853 0.5448
vn -0.8145 0.3718 -0.4453
vn -0.0162 0.6686 0.7434
vn -0.5938 0.6262 0.5053
vn 0.9402 0.3404 -0.0110
vn 0.1616 0.9848 0.0638
vn 0.0854 0.1761 0.9807
vn -0.8322 0.1937 -0.5196
vn 0.8529 0.3922 -0.3446
vn 0.2676 0.2522 -0.9299
vn -0.6890 0.2239 0.6893
vn 0.7025 0.3925 -0.5936
vn 0.2858 0.1370 0.9485
vn -0.7794 0.4857 -0.3957
vn -0.8137 0.5480 0.1936
vn -0.9940 0.0256 0.1065
vn 0.9905 0.1236 0.0599
vn 0.2664 0.7551 0.5991
vn 0.6338 0.6063 -0.4804
vn 0.7967 0.5993 0.0781
vn -0.7977 0.5311 -0.2856
vn 0.1730 0.9379 -0.3006
vn 0.6253 0.1655 -0.7626
vn 0.2307 0.2059 0.9510
vn -0.8855 0.3979 -0.2398
vn -0.8196 0.2340 0.5230
vn 0.9689 0.2148 -0.1228
vn -0.1111 0.3845 -0.9164
vn 0.7388 0.5834 0.3373
vn -0.8963 0.4261 0.1224
vn -0.4518 0.2827 0.8462
vn 0.8699 0.3360 -0.3611
vt 0.800400 0.741849
vt 0.749600 0.792649
vt 0.874600 0.542649
vt 0.600400 0.891849
vt 0.600400 0.892649
vt 0.924600 0.542649
vt 0.650400 0.916849
vt 0.850400 0.742649
vt 0.849600 0.641849
vt 0.649600 0.892649
vt 0.800400 0.641849
vt 0.699600 0.916849
vt 0.750400 0.642649
vt 0.900400 0.642649
vt 0.849600 0.891849
vt 0.550400 0.866849
vt 0.750400 0.641849
vt 0.800400 0.692649
vt 0.649600 0.891849
vt 0.899600 0.641849
vt 0.799600 0.641849
vt 0.849600 0.692649
vt 0.722808 0.558129
vt 0.750400 0.691849
vt 0.924600 0.642649
vt 0.602942 0.648663
vt 0.649600 0.916849
vt 0.824600 0.641849
vt 0.749600 0.716077
vt 0.600400 0.916849
vt 0.874600 0.742649
vt 0.684991 0.741849
vt 0.849600 0.741849
vt 0.749600 0.841849
vt 0.749600 0.583154
vt 0.949600 0.591849
vt 0.599600 0.916849
vt 0.559395 0.559220
vt 0.899600 0.841849
vt 0.925400 0.591849
vt 0.599600 0.892649
vt 0.899600 0.866849
vt 0.750400 0.542649
vt 0.550400 0.892649
vt 0.850400 0.866849
vt 0.899600 0.592649
vt 0.799600 0.542649
vt 0.550400 0.916849
vt 0.615046 0.542649
vt 0.800400 0.891849
vt 0.925400 0.542649
vt 0.900400 0.691849
vt 0.899600 0.792649
vt 0.924600 0.691849
vt 0.949600 0.542649
vt 0.550400 0.609409
vt 0.875801 0.791849
vt 0.849600 0.642649
vt 0.924600 0.591849
vt 0.649600 0.866849
vt 0.850400 0.841849
vt 0.899600 0.743050
vt 0.849600 0.691849
vt 0.566030 0.705722
vt 0.800400 0.542649
vt 0.650400 0.792649
vt 0.849600 0.542649
vt 0.874600 0.641849
vt 0.824600 0.542649
vt 0.650400 0.841849
vt 0.741184 0.650643
vt 0.600400 0.867649
vt 0.749199 0.742649
vt 0.550801 0.841849
vt 0.850400 0.542649
vt 0.899600 0.692649
vt 0.650400 0.892649
vt 0.799600 0.841849
vt 0.749199 0.842649
vt 0.900400 0.542649
vt 0.700400 0.842649
vt 0.799199 0.792649
vt 0.825400 0.641849
vt 0.699600 0.892649
vt 0.550400 0.842649
vt 0.749600 0.843050
vt 0.650801 0.891849
vt 0.749600 0.791849
vt 0.849600 0.867649
vt 0.875400 0.641849
vt 0.699199 0.842649
vt 0.649600 0.867649
vt 0.850400 0.692649
vt 0.800801 0.841849
vt 0.800400 0.841448
vt 0.899600 0.842649
vt 0.875400 0.841849
vt 0.850400 0.842649
vt 0.650400 0.891448
vt 0.849600 0.841849
vt 0.850801 0.891849
vt 0.875400 0.592649
vt 0.700801 0.891849
vt 0.800400 0.792649
vt 0.800400 0.867649
vt 0.875400 0.792649
vt 0.900400 0.591849
vt 0.799600 0.793050
vt 0.650801 0.791849
vt 0.649199 0.742649
vt 0.649600 0.842649
vt 0.850400 0.641849
vt 0.650400 0.742649
vt 0.750400 0.841448
vt 0.825400 0.542649
vt 0.750801 0.841849
vt 0.700400 0.891448
vt 0.650400 0.791448
vt 0.649600 0.743050
vt 0.750400 0.792649
vt 0.550400 0.742649
vt 0.699600 0.891849
vt 0.749600 0.743050
vt 0.649600 0.841849
vt 0.875400 0.791448
vt 0.899600 0.741849
vt 0.550400 0.841448
vt 0.749600 0.891849
vt 0.699600 0.843050
vt 0.875400 0.742649
vt 0.849600 0.793050
vt 0.849199 0.792649
vt 0.899600 0.868050
vt 0.650400 0.842649
vt 0.899199 0.742649
vt 0.899600 0.891849
vt 0.850400 0.741849
vt 0.899600 0.791849
vt 0.874600 0.841849
vt 0.586360 0.738284
vt 0.949600 0.891849
vt 0.800400 0.866849
vt 0.799600 0.881329
vt 0.949600 0.842649
vt 0.800400 0.842649
vt 0.949600 0.867649
vt 0.874600 0.941849
vt 0.874600 0.917649
vt 0.949600 0.791849
vt 0.849600 0.842649
vt 0.550400 0.867649
vt 0.849600 0.866849
vt 0.550400 0.891849
vt 0.799600 0.842649
vt 0.899600 0.917649
vt 0.875400 0.542649
vt 0.925400 0.867649
vt 0.949600 0.866849
vt 0.899600 0.542649
vt 0.925400 0.891849
vt 0.782480 0.891849
vt 0.949600 0.916849
vt 0.924600 0.941849
vt 0.599600 0.867649
vt 0.949600 0.767649
vt 0.599600 0.891849
vt 0.924600 0.917649
vt 0.766524 0.848456
vt 0.875400 0.591849
vt 0.949600 0.892649
vt 0.900400 0.941849
vt 0.899600 0.941849
vt 0.899600 0.591849
vt 0.900400 0.917649
vt 0.750400 0.875667
vt 0.850400 0.941849
vt 0.925400 0.842649
vt 0.774600 0.941849
vt 0.774600 0.917649
vt 0.850400 0.917649
vt 0.925400 0.791849
vt 0.849600 0.918050
vt 0.875400 0.917649
vt 0.925400 0.866849
vt 0.750400 0.941849
vt 0.825801 0.941849
vt 0.925400 0.916849
vt 0.925400 0.767649
vt 0.750400 0.917649
vt 0.849600 0.941849
vt 0.925400 0.892649
vt 0.875400 0.941849
vt 0.924600 0.641849
vt 0.949600 0.716849
vt 0.849600 0.782361
vt 0.949600 0.692649
vt 0.949600 0.793050
vt 0.799600 0.918050
vt 0.800801 0.941849
vt 0.900400 0.641849
vt 0.925801 0.816849
vt 0.900400 0.592649
vt 0.949600 0.741849
vt 0.949600 0.717649
vt 0.924600 0.592649
vt 0.849600 0.742649
vt 0.824600 0.941849
vt 0.925400 0.766849
vt 0.925400 0.692649
vt 0.925400 0.742649
vt 0.925400 0.716849
vt 0.832480 0.791849
vt 0.749600 0.941849
vt 0.949600 0.816849
vt 0.775801 0.941849
vt 0.925400 0.741849
vt 0.925400 0.717649
vt 0.749600 0.917649
vt 0.816524 0.746075
vt 0.949600 0.766849
vt 0.799600 0.941849
vt 0.824600 0.918050
vt 0.725400 0.941849
vt 0.949600 0.742649
vt 0.725400 0.917649
vt 0.800400 0.772776
vt 0.949600 0.666849
vt 0.700400 0.916849
vt 0.783305 0.692649
vt 0.949600 0.917649
vt 0.700400 0.892649
vt 0.949600 0.642649
vt 0.850400 0.916849
vt 0.899600 0.916849
vt 0.924600 0.916849
vt 0.749600 0.892649
vt 0.750400 0.892649
vt 0.749600 0.916849
vt 0.750400 0.916849
vt 0.750400 0.712598
vt 0.900400 0.692649
vt 0.925400 0.642649
vt 0.599600 0.917649
vt 0.949600 0.941849
vt 0.924600 0.692649
vt 0.925400 0.666849
vt 0.799600 0.703327
vt 0.799600 0.892649
vt 0.699600 0.941849
vt 0.900400 0.841849
vt 0.924600 0.892649
vt 0.924600 0.841849
vt 0.799600 0.916849
vt 0.769533 0.740716
vt 0.900400 0.741849
vt 0.699600 0.917649
vt 0.599600 0.941849
vt 0.900400 0.792649
vt 0.924600 0.741849
vt 0.924600 0.792649
vt 0.799600 0.741849
vt 0.850400 0.892649
vt 0.925400 0.917649
vt 0.574600 0.941849
vt 0.574600 0.917649
vt 0.899600 0.892649
vt 0.900400 0.916849
vt 0.949600 0.818050
vt 0.575400 0.917649
vt 0.925400 0.941849
vt 0.550400 0.941849
vt 0.925801 0.841849
vt 0.675400 0.941849
vt 0.900400 0.892649
vt 0.550400 0.917649
vt 0.949600 0.841849
vt 0.675400 0.917649
vt 0.575400 0.941849
vt 0.924600 0.891849
vt 0.949600 0.641849
vt 0.799600 0.781397
vt 0.949600 0.617649
vt 0.825400 0.941448
vt 0.925400 0.841448
vt 0.824199 0.917649
vt 0.900400 0.891849
vt 0.849199 0.917649
vt 0.900400 0.842649
vt 0.949600 0.616849
vt 0.949600 0.592649
vt 0.924600 0.842649
vt 0.799600 0.742649
vt 0.800400 0.917649
vt 0.600400 0.941849
vt 0.925400 0.617649
vt 0.600400 0.917649
vt 0.925400 0.641849
vt 0.782480 0.791849
vt 0.649600 0.941849
vt 0.825400 0.917649
vt 0.949199 0.817649
vt 0.925400 0.616849
vt 0.925400 0.592649
vt 0.649600 0.917649
vt 0.766524 0.748301
vt 0.624600 0.941849
vt 0.925400 0.817649
vt 0.800400 0.941448
vt 0.625400 0.941849
vt 0.624600 0.917649
vt 0.625400 0.917649
vt 0.750400 0.775478
vt 0.800400 0.916849
vt 0.724600 0.941849
vt 0.858581 0.689687
vt 0.724600 0.917649
vt 0.925400 0.816448
vt 0.899199 0.867649
vt 0.775400 0.941448
vt 0.800400 0.892649
vt 0.925400 0.792649
vt 0.849600 0.892649
vt 0.949600 0.691849
vt 0.849600 0.916849
vt 0.949600 0.667649
vt 0.899600 0.691849
vt 0.775400 0.917649
vt 0.650400 0.941849
vt 0.700400 0.917649
vt 0.650400 0.917649
vt 0.700400 0.941849
vt 0.850400 0.659594
vt 0.900400 0.791849
vt 0.949199 0.792649
vt 0.850400 0.867649
vt 0.925400 0.691849
vt 0.925400 0.667649
vt 0.924600 0.791849
vt 0.899600 0.663160
vt 0.850400 0.891448
vt 0.799199 0.917649
vt 0.674600 0.941849
vt 0.900400 0.742649
vt 0.674600 0.917649
vt 0.924600 0.742649
vt 0.868849 0.642649
s 0
usemtl low_poly_stones_color_palette.003
f 16/55/1 12/40/1 11/36/1
f 3/10/2 9/30/2 8/27/2
f 13/43/3 6/21/3 14/47/3
f 6/22/4 1/1/4 10/33/4
f 18/63/5 4/13/5 7/24/5
f 20/69/6 3/11/6 8/28/6
f 12/41/7 14/48/7 11/37/7
f 7/25/8 15/52/8 16/54/8
f 35/138/9 17/57/9 18/62/9
f 1/2/10 20/70/10 10/34/10
f 17/59/11 22/80/11 29/107/11
f 13/45/12 26/96/12 27/98/12
f 19/67/13 23/83/13 3/9/13
f 4/15/14 28/105/14 15/50/14
f 19/68/15 21/75/15 30/112/15
f 4/16/16 29/111/16 24/85/16
f 15/53/17 26/97/17 12/39/17
f 1/4/18 25/92/18 21/72/18
f 5/20/19 27/102/19 25/90/19
f 2/7/20 23/84/20 22/77/20
f 31/116/21 29/108/21 22/78/21
f 28/103/22 24/86/22 33/128/22
f 33/129/23 24/87/23 32/122/23
f 32/123/24 24/88/24 29/109/24
f 31/117/25 22/79/25 23/81/25
f 30/113/26 21/73/26 31/118/26
f 21/74/27 32/124/27 31/119/27
f 25/91/28 27/99/28 34/134/28
f 33/130/29 32/125/29 34/135/29
f 27/100/30 26/94/30 33/131/30
f 26/95/31 28/104/31 33/132/31
f 27/101/32 33/133/32 34/136/32
f 21/76/33 34/137/33 32/126/33
f 30/114/34 31/120/34 23/82/34
f 9/31/35 17/61/35 35/139/35
f 31/121/36 32/127/36 29/110/36
f 9/32/37 11/38/37 6/23/37
f 38/150/38 36/142/38 39/152/38
f 41/159/39 44/169/39 45/173/39
f 43/166/40 38/151/40 39/153/40
f 44/170/41 49/187/41 42/162/41
f 43/167/42 44/171/42 42/163/42
f 37/146/43 41/160/43 36/141/43
f 48/183/44 44/172/44 40/155/44
f 47/180/45 37/147/45 38/148/45
f 46/177/46 40/158/46 37/144/46
f 42/165/47 47/181/47 38/149/47
f 49/186/48 50/190/48 48/182/48
f 49/189/49 46/178/49 47/179/49
f 54/205/50 52/200/50 51/193/50
f 60/224/51 55/208/51 59/220/51
f 58/217/52 53/203/52 54/204/52
f 58/218/53 59/223/53 57/213/53
f 55/209/54 51/194/54 52/196/54
f 53/201/55 57/214/55 52/197/55
f 52/198/56 57/215/56 59/221/56
f 52/199/57 59/222/57 55/207/57
f 63/236/58 61/228/58 64/238/58
f 70/259/59 65/241/59 69/255/59
f 68/253/60 63/237/60 64/239/60
f 75/277/61 67/249/61 69/256/61
f 70/260/62 67/250/62 68/252/62
f 62/232/63 66/246/63 61/227/63
f 65/243/64 75/278/64 69/257/64
f 72/266/65 62/233/65 63/234/65
f 71/263/66 65/244/66 62/230/66
f 67/251/67 72/267/67 63/235/67
f 74/272/68 75/276/68 73/268/68
f 74/275/69 71/264/69 72/265/69
f 79/291/70 77/286/70 76/279/70
f 85/310/71 80/294/71 84/306/71
f 83/303/72 78/289/72 79/290/72
f 83/304/73 84/309/73 82/299/73
f 80/295/74 76/280/74 77/282/74
f 78/287/75 82/300/75 77/283/75
f 77/284/76 82/301/76 84/307/76
f 77/285/77 84/308/77 80/293/77
f 88/322/78 86/313/78 89/324/78
f 91/330/79 94/342/79 95/344/79
f 93/337/80 88/323/80 89/325/80
f 93/338/81 94/343/81 92/333/81
f 90/329/82 86/314/82 87/316/82
f 88/321/83 92/334/83 87/317/83
f 87/318/84 92/335/84 94/340/84
f 87/319/85 94/341/85 90/327/85
f 36/143/37 45/175/37 43/168/37
f 56/212/37 58/219/37 54/206/37
f 66/247/37 68/254/37 64/240/37
f 81/298/37 83/305/37 79/292/37
f 91/332/37 93/339/37 89/326/37
f 16/55/86 15/51/86 12/40/86
f 3/10/87 2/5/87 9/30/87
f 13/43/88 5/17/88 6/21/88
f 6/22/89 5/18/89 1/1/89
f 18/63/90 17/58/90 4/13/90
f 20/69/91 19/65/91 3/11/91
f 12/41/92 13/44/92 14/48/92
f 7/25/93 4/14/93 15/52/93
f 1/2/94 19/66/94 20/70/94
f 17/59/95 2/6/95 22/80/95
f 13/45/96 12/42/96 26/96/96
f 19/67/97 30/115/97 23/83/97
f 4/15/98 24/89/98 28/105/98
f 19/68/99 1/3/99 21/75/99
f 4/16/100 17/60/100 29/111/100
f 15/53/101 28/106/101 26/97/101
f 1/4/102 5/19/102 25/92/102
f 5/20/103 13/46/103 27/102/103
f 2/7/104 3/12/104 23/84/104
f 21/76/105 25/93/105 34/137/105
f 9/31/106 2/8/106 17/61/106
f 6/23/37 10/35/37 20/71/37
f 20/71/37 8/29/37 9/32/37
f 9/32/37 35/140/37 18/64/37
f 7/26/37 16/56/37 11/38/37
f 9/32/37 18/64/37 7/26/37
f 6/23/37 20/71/37 9/32/37
f 11/38/37 14/49/37 6/23/37
f 9/32/37 7/26/37 11/38/37
f 38/150/107 37/145/107 36/142/107
f 41/159/108 40/156/108 44/169/108
f 43/166/109 42/164/109 38/151/109
f 44/170/110 50/191/110 49/187/110
f 43/167/111 45/174/111 44/171/111
f 37/146/112 40/157/112 41/160/112
f 48/183/113 50/192/113 44/172/113
f 47/180/114 46/176/114 37/147/114
f 46/177/115 48/184/115 40/158/115
f 42/165/116 49/188/116 47/181/116
f 49/189/117 48/185/117 46/178/117
f 54/205/118 53/202/118 52/200/118
f 60/224/119 56/210/119 55/208/119
f 58/217/120 57/216/120 53/203/120
f 58/218/121 60/225/121 59/223/121
f 55/209/122 56/211/122 51/194/122
f 63/236/123 62/231/123 61/228/123
f 70/259/124 66/245/124 65/241/124
f 68/253/125 67/248/125 63/237/125
f 75/277/126 74/273/126 67/249/126
f 70/260/127 69/258/127 67/250/127
f 62/232/128 65/242/128 66/246/128
f 65/243/129 73/269/129 75/278/129
f 72/266/130 71/262/130 62/233/130
f 71/263/131 73/270/131 65/244/131
f 67/251/132 74/274/132 72/267/132
f 74/275/133 73/271/133 71/264/133
f 79/291/134 78/288/134 77/286/134
f 85/310/135 81/296/135 80/294/135
f 83/303/136 82/302/136 78/289/136
f 83/304/137 85/311/137 84/309/137
f 80/295/138 81/297/138 76/280/138
f 88/322/139 87/320/139 86/313/139
f 91/330/140 90/328/140 94/342/140
f 93/337/141 92/336/141 88/323/141
f 93/338/142 95/345/142 94/343/142
f 90/329/143 91/331/143 86/314/143
f 43/168/37 39/154/37 36/143/37
f 36/143/37 41/161/37 45/175/37
f 54/206/37 51/195/37 56/212/37
f 56/212/37 60/226/37 58/219/37
f 64/240/37 61/229/37 66/247/37
f 66/247/37 70/261/37 68/254/37
f 79/292/37 76/281/37 81/298/37
f 81/298/37 85/312/37 83/305/37
f 89/326/37 86/315/37 91/332/37
f 91/332/37 95/346/37 93/339/37
