# Blender 3.5.1
# www.blender.org
mtllib stone9.mtl
o stone_7_Cube.002
v -14.836134 1.593201 -22.734739
v -11.062794 3.345855 -18.643612
v -7.029176 1.877680 -20.094191
v -13.921923 2.881051 -26.147282
v -6.617639 5.786836 -25.446060
v -10.266896 5.796692 -19.964298
v -11.183827 -0.016377 -17.846331
v -13.055038 5.122979 -21.945517
v -6.872004 -0.016377 -19.794588
v -9.811034 -0.016377 -29.489429
v -15.129045 -0.016377 -22.211403
v -7.085082 5.036365 -20.883827
v -9.795698 3.773678 -29.072582
v -13.294476 5.405482 -26.325638
v -9.537663 5.146719 -27.793850
v -8.143464 10.105772 -25.225863
v -10.398958 9.386129 -23.103842
v -8.462165 9.638069 -22.399574
v -10.828390 10.567226 -24.714869
v -9.780304 7.396274 -27.410912
v -12.006164 8.404904 -25.706112
v -8.371405 8.311939 -22.305563
v -11.086892 8.090407 -22.570461
v -9.633283 10.305387 -26.169147
v -7.612425 7.723482 -25.493099
v -5.611935 4.061765 -24.423742
v -6.102759 2.378366 -22.332701
v -5.896608 -0.016377 -22.127663
v -6.950218 3.535857 -28.876505
v -3.998302 1.318930 -26.763510
v -3.754029 -0.016377 -26.963354
v -3.868262 -0.016377 -22.685148
v -7.287797 -0.016377 -29.597052
v -4.031262 1.431112 -22.930775
v -11.755713 1.025908 -28.054518
v -11.603377 -0.016377 -28.728779
v -18.170460 1.467231 -24.003469
v -17.293423 2.930345 -28.591515
v -18.092527 -0.016376 -28.984396
v -13.558233 -0.016377 -31.355358
v -18.666065 -0.016376 -23.786142
v -13.619926 1.446265 -30.720123
v -15.872467 3.544563 -27.644463
vn -0.0424 0.1094 -0.9931
vn 0.3211 0.1082 0.9408
vn 0.4054 0.1755 0.8971
vn -0.6996 0.3329 0.6323
vn 0.4674 0.6318 0.6183
vn 0.3373 0.3593 0.8701
vn -0.3390 0.2400 -0.9097
vn 0.9512 0.2738 0.1425
vn -0.7628 0.2517 0.5957
vn -0.9670 0.2452 0.0687
vn -0.3927 0.2604 0.8820
vn 0.2407 0.8123 0.5313
vn 0.5429 0.2122 -0.8126
vn -0.1224 0.4327 0.8932
vn -0.4539 0.3691 -0.8110
vn 0.9893 0.0765 0.1242
vn -0.8612 0.2723 0.4292
vn -0.1252 0.7249 0.6774
vn -0.5756 0.5155 0.6348
vn 0.8930 0.4204 0.1607
vn 0.5661 0.2719 -0.7782
vn -0.9218 0.3804 0.0749
vn 0.5825 0.2235 -0.7815
vn 0.0923 0.9853 -0.1441
vn 0.6355 -0.0843 -0.7675
vn 0.9140 0.1363 0.3821
vn 0.9840 0.1761 0.0263
vn 0.6981 0.6558 -0.2873
vn 0.8590 0.5119 -0.0076
vn -0.9478 0.3013 -0.1046
vn -0.3440 0.4741 -0.8105
vn -0.4352 0.3431 -0.8324
vn 0.7734 0.4201 -0.4747
vn 0.0125 0.8303 -0.5572
vn 0.0390 0.9314 0.3619
vn 0.4703 0.8504 -0.2358
vn -0.4885 0.8540 0.1790
vn -0.3542 0.1197 -0.9275
vn 0.1608 0.9859 -0.0454
vn -0.0000 -1.0000 -0.0000
vn 0.0833 0.1905 -0.9781
vn 0.2602 0.1899 0.9467
vn 0.3948 0.1985 0.8970
vn -0.7600 0.1757 0.6257
vn 0.4021 0.2287 0.8866
vn -0.8218 0.4633 -0.3317
vn -0.6101 0.0961 -0.7864
vn 0.9082 0.1166 0.4019
vn 0.4603 0.6356 0.6198
vn -0.5736 0.5251 0.6287
vn -0.8852 0.4608 -0.0632
vn -0.3450 0.3464 0.8723
vn -0.1780 0.9739 0.1411
vn 0.6107 0.2845 -0.7389
vn -0.3463 0.0427 0.9371
vn -0.5760 0.5785 -0.5775
vn 0.9620 0.1927 0.1935
vn -0.7924 0.5386 0.2863
vn 0.3478 0.4849 0.8025
vn 0.8812 0.4557 0.1257
vn 0.6330 0.1958 -0.7490
vn -0.7707 0.5708 0.2832
vn 0.6266 0.0973 -0.7733
vn 0.6503 0.4487 -0.6130
vn 0.9090 0.1126 0.4014
vn 0.9936 0.1128 0.0052
vn -0.9574 0.2724 -0.0961
vn -0.5584 0.0929 -0.8243
vn -0.4166 0.2302 -0.8795
vn 0.7698 0.2813 -0.5729
vn 0.5108 0.8293 -0.2265
vn -0.1848 0.8993 0.3964
vn -0.4568 0.3639 -0.8117
vt 0.853832 0.633679
vt 0.604633 0.883279
vt 0.754633 0.633679
vt 0.704633 0.834480
vt 0.903832 0.884480
vt 0.853832 0.734480
vt 0.754633 0.634480
vt 0.754633 0.534480
vt 0.853832 0.834480
vt 0.853832 0.534480
vt 0.853832 0.634480
vt 0.804633 0.834480
vt 0.758657 0.733679
vt 0.854633 0.883679
vt 0.604633 0.834480
vt 0.653832 0.815204
vt 0.753832 0.834480
vt 0.603832 0.884480
vt 0.903832 0.734480
vt 0.904633 0.633679
vt 0.853832 0.684480
vt 0.754633 0.834480
vt 0.853832 0.883679
vt 0.753832 0.933679
vt 0.804633 0.534480
vt 0.903832 0.684480
vt 0.754633 0.683679
vt 0.803832 0.534480
vt 0.753832 0.570478
vt 0.705033 0.933679
vt 0.804633 0.633679
vt 0.704633 0.883679
vt 0.854633 0.784480
vt 0.853832 0.683679
vt 0.903832 0.883679
vt 0.682574 0.541827
vt 0.953832 0.634480
vt 0.703832 0.933679
vt 0.584911 0.652025
vt 0.803832 0.633679
vt 0.903832 0.908679
vt 0.737472 0.647262
vt 0.803832 0.834480
vt 0.804633 0.883679
vt 0.853832 0.722125
vt 0.854633 0.684480
vt 0.605033 0.883679
vt 0.904633 0.634480
vt 0.578447 0.734480
vt 0.928832 0.534480
vt 0.654633 0.933679
vt 0.753832 0.883679
vt 0.903832 0.784480
vt 0.601379 0.833679
vt 0.854633 0.634480
vt 0.903832 0.634480
vt 0.554633 0.762570
vt 0.854633 0.734480
vt 0.904633 0.534480
vt 0.603832 0.883679
vt 0.928431 0.784480
vt 0.653832 0.933679
vt 0.853832 0.884480
vt 0.604633 0.884480
vt 0.904633 0.783679
vt 0.904633 0.684480
vt 0.804633 0.884480
vt 0.604633 0.933679
vt 0.904633 0.734480
vt 0.653832 0.884480
vt 0.904633 0.733679
vt 0.904633 0.833279
vt 0.654633 0.883679
vt 0.703832 0.834480
vt 0.554633 0.834480
vt 0.854633 0.783679
vt 0.903832 0.683679
vt 0.654633 0.834480
vt 0.928832 0.733679
vt 0.903832 0.833679
vt 0.854633 0.683679
vt 0.928832 0.734480
vt 0.804633 0.908679
vt 0.854633 0.733679
vt 0.803832 0.883679
vt 0.928832 0.783679
vt 0.903832 0.733679
vt 0.753832 0.884880
vt 0.928832 0.684480
vt 0.854633 0.833679
vt 0.904633 0.784480
vt 0.554633 0.883679
vt 0.703832 0.883679
vt 0.603832 0.834480
vt 0.853832 0.908679
vt 0.754633 0.883679
vt 0.903832 0.783679
vt 0.928832 0.784880
vt 0.653832 0.834880
vt 0.753832 0.784880
vt 0.753431 0.884480
vt 0.792797 0.693349
vt 0.928832 0.633679
vt 0.928832 0.834480
vt 0.928832 0.833679
vt 0.754633 0.713530
vt 0.854633 0.834480
vt 0.904633 0.834480
vt 0.903832 0.834480
vt 0.641350 0.550911
vt 0.653832 0.883679
vt 0.655033 0.833679
vt 0.904633 0.683679
vt 0.753832 0.734480
vt 0.753832 0.833679
vt 0.704633 0.933279
vt 0.654633 0.734480
vt 0.803832 0.884480
vt 0.654633 0.783679
vt 0.803832 0.908679
vt 0.554633 0.568487
vt 0.904633 0.883679
vt 0.754633 0.908679
vt 0.612592 0.534480
vt 0.953832 0.683679
vt 0.753832 0.783679
vt 0.556909 0.626765
vt 0.905033 0.833679
vt 0.704633 0.884480
vt 0.928832 0.883679
vt 0.754633 0.884480
vt 0.953832 0.534480
vt 0.653832 0.741529
vt 0.654633 0.884480
vt 0.554633 0.884480
vt 0.703832 0.884480
vt 0.929633 0.534480
vt 0.613878 0.664339
vt 0.854633 0.884480
vt 0.854633 0.534480
vt 0.853832 0.783679
vt 0.654633 0.833279
vt 0.754633 0.783679
vt 0.854633 0.633679
vt 0.853832 0.784480
vt 0.903832 0.633679
vt 0.853832 0.833679
vt 0.678829 0.733679
vt 0.754633 0.833679
vt 0.929633 0.583679
vt 0.599621 0.706200
vt 0.854633 0.908679
vt 0.903832 0.534480
vt 0.753832 0.696864
vt 0.753431 0.784480
vt 0.754633 0.784480
vt 0.953832 0.583679
vt 0.554633 0.933679
vt 0.654633 0.784480
vt 0.653431 0.834480
vt 0.603832 0.933679
vt 0.754633 0.734480
s 0
usemtl low_poly_stones_color_palette.009
f 13/48/1 33/125/1 10/37/1
f 28/108/2 34/130/2 27/104/2
f 3/11/3 7/27/3 9/34/3
f 7/28/4 1/3/4 11/40/4
f 26/98/5 27/105/5 34/128/5
f 2/9/6 12/44/6 6/23/6
f 35/133/7 14/54/7 15/57/7
f 27/106/8 5/21/8 12/45/8
f 2/10/9 8/31/9 1/1/9
f 4/17/10 8/32/10 14/52/10
f 11/41/11 37/139/11 41/152/11
f 17/64/12 16/62/12 19/70/12
f 25/94/13 24/92/13 16/60/13
f 22/82/14 17/65/14 23/86/14
f 21/78/15 24/93/15 20/74/15
f 22/83/16 16/63/16 18/67/16
f 21/79/17 17/66/17 19/71/17
f 6/26/18 22/84/18 23/87/18
f 8/30/19 6/24/19 23/88/19
f 5/22/20 22/85/20 12/43/20
f 15/58/21 25/97/21 5/19/21
f 8/33/22 21/80/22 14/53/22
f 33/126/23 30/117/23 31/119/23
f 13/47/24 26/99/24 29/111/24
f 26/103/25 15/59/25 5/20/25
f 28/109/26 3/14/26 9/35/26
f 30/118/27 32/123/27 31/120/27
f 30/115/28 29/112/28 26/100/28
f 26/101/29 34/129/29 30/116/29
f 37/140/30 39/146/30 41/153/30
f 35/134/31 10/38/31 36/136/31
f 39/147/32 42/156/32 40/149/32
f 36/137/33 42/157/33 35/132/33
f 43/159/34 42/155/34 38/142/34
f 1/2/35 4/15/35 43/160/35
f 4/18/36 42/158/36 43/161/36
f 37/141/37 43/162/37 38/143/37
f 14/55/38 20/77/38 15/56/38
f 24/91/39 19/72/39 16/61/39
f 11/42/40 36/138/40 31/121/40
f 13/48/41 29/113/41 33/125/41
f 28/108/42 32/122/42 34/130/42
f 3/11/43 2/7/43 7/27/43
f 7/28/44 2/8/44 1/3/44
f 2/9/45 3/12/45 12/44/45
f 15/57/46 13/49/46 35/133/46
f 35/133/47 4/16/47 14/54/47
f 12/45/48 3/13/48 27/106/48
f 27/106/49 26/102/49 5/21/49
f 2/10/50 6/25/50 8/31/50
f 4/17/51 1/4/51 8/32/51
f 11/41/52 1/5/52 37/139/52
f 17/64/53 18/68/53 16/62/53
f 25/94/54 20/75/54 24/92/54
f 22/82/55 18/69/55 17/65/55
f 21/78/56 19/73/56 24/93/56
f 22/83/57 25/95/57 16/63/57
f 21/79/58 23/89/58 17/66/58
f 6/26/59 12/46/59 22/84/59
f 5/22/60 25/96/60 22/85/60
f 15/58/61 20/76/61 25/97/61
f 8/33/62 23/90/62 21/80/62
f 33/126/63 29/114/63 30/117/63
f 26/103/64 13/50/64 15/59/64
f 28/109/65 27/107/65 3/14/65
f 30/118/66 34/131/66 32/123/66
f 37/140/67 38/144/67 39/146/67
f 35/134/68 13/51/68 10/38/68
f 39/147/69 38/145/69 42/156/69
f 36/137/70 40/150/70 42/157/70
f 4/18/71 35/135/71 42/158/71
f 37/141/72 1/6/72 43/162/72
f 14/55/73 21/81/73 20/77/73
f 28/110/40 9/36/40 7/29/40
f 11/42/40 41/154/40 39/148/40
f 28/110/40 7/29/40 11/42/40
f 31/121/40 32/124/40 28/110/40
f 10/39/40 33/127/40 31/121/40
f 39/148/40 40/151/40 36/138/40
f 36/138/40 10/39/40 31/121/40
f 31/121/40 28/110/40 11/42/40
f 11/42/40 39/148/40 36/138/40
