# Blender 3.5.1
# www.blender.org
mtllib tree12.mtl
o Tree_Spruce_tiny_02_Cylinder.014
v -4.619916 0.000795 21.240337
v -4.646319 1.512221 21.695971
v -3.880929 0.007966 21.611368
v -4.207327 1.512221 21.984463
v -3.696010 0.001589 22.329033
v -4.046323 1.512221 22.349596
v -3.784374 0.000000 23.199110
v -4.262609 1.512221 22.738991
v -4.641474 0.003688 23.325317
v -4.642150 1.512221 22.846056
v -5.284733 0.009275 23.146809
v -5.072865 1.512221 22.655975
v -5.804475 0.000000 22.447081
v -5.210847 1.512221 22.313250
v -5.419653 0.010241 21.674789
v -5.058413 1.512221 21.916636
v -4.646635 0.475284 21.563099
v -4.070572 0.420584 21.790575
v -3.865948 0.357647 22.310568
v -4.071300 0.392159 22.884001
v -4.599844 0.408640 23.144382
v -5.180484 0.483867 22.859735
v -5.347327 0.646807 22.336452
v -5.220778 0.567210 21.788706
v -4.790092 4.230973 21.816957
v -4.437230 4.230973 22.048847
v -4.307816 4.230973 22.342340
v -4.481666 4.230973 22.655336
v -4.786740 4.230973 22.741394
v -5.132947 4.230973 22.588608
v -5.243858 4.230973 22.313126
v -5.121331 4.230973 21.994328
v -4.663480 5.798997 21.879799
v -4.355356 5.798997 22.082289
v -4.242350 5.798997 22.338573
v -4.394157 5.798997 22.611885
v -4.660554 5.798997 22.687033
v -4.962868 5.798997 22.553617
v -5.059717 5.798997 22.313061
v -4.952725 5.798997 22.034681
v -4.681026 7.189987 21.983465
v -4.446702 7.189987 22.137455
v -4.360763 7.189987 22.332355
v -4.476211 7.189987 22.540207
v -4.678802 7.189987 22.597355
v -4.908706 7.189987 22.495895
v -4.982359 7.189987 22.312956
v -4.900992 7.189987 22.101250
v -4.626503 8.315424 22.064903
v -4.450154 8.315424 22.180794
v -4.385478 8.315424 22.327473
v -4.472362 8.315424 22.483898
v -4.624828 8.315424 22.526907
v -4.797852 8.315424 22.450548
v -4.853281 8.315424 22.312872
v -4.792046 8.315424 22.153547
v -4.589224 10.186936 22.312618
v -4.378499 2.895269 18.489464
v -4.470310 5.754042 21.385019
v -1.839032 2.437815 19.642324
v -3.675416 5.862856 21.597221
v -0.732296 2.770155 22.555431
v -3.416466 5.774800 22.385044
v -1.784404 2.542753 25.020115
v -3.677397 5.852193 23.173693
v -4.764902 2.903153 26.068916
v -4.470456 5.869648 23.510498
v -7.307299 2.580637 24.989218
v -5.209946 5.817035 23.133080
v -8.397557 2.936896 22.400911
v -5.599517 5.909196 22.387283
v -7.244994 2.675224 19.663260
v -5.268460 5.909419 21.579523
v -4.422661 5.253122 19.343508
v -4.487720 7.735582 21.467987
v -2.273793 5.465191 20.112379
v -3.824253 7.799322 21.717817
v -1.243619 5.167616 22.277868
v -3.622922 7.732087 22.384342
v -2.115466 5.583480 24.520054
v -3.880254 7.731285 22.996059
v -4.442682 5.088979 25.353029
v -4.475700 7.620231 23.183867
v -6.546107 5.473159 24.542755
v -5.170130 7.758692 23.071266
v -7.390372 4.947474 22.377178
v -5.487014 7.756707 22.378416
v -6.643684 5.465092 20.191525
v -5.079321 7.635249 21.784885
v -4.537243 7.503823 20.346315
v -3.031953 7.456101 20.960886
v -2.512420 7.391036 22.381376
v -3.050514 7.558063 23.817654
v -4.430154 10.981411 22.384768
v -4.510308 7.366526 24.381546
v -5.955671 7.373109 23.775450
v -6.462554 7.540404 22.412519
v -5.938767 7.453654 20.952291
v -3.297161 8.564108 22.371948
v -5.633657 8.679404 22.380791
v -3.831141 8.544077 21.725872
v -3.773199 8.586536 23.139465
v -5.291799 8.609872 23.247160
v -4.449821 8.631845 21.337618
v -4.470355 8.477016 23.342901
v -5.220807 8.699974 21.623304
v -4.382385 2.462990 18.901196
v -4.474301 5.321763 21.796751
v -2.138084 2.005137 19.924835
v -3.974763 5.430196 21.879436
v -1.160898 2.357906 22.552015
v -3.845069 5.362552 22.381681
v -2.086087 2.123157 24.724165
v -3.978697 5.432615 22.877342
v -4.763002 2.488831 25.641987
v -4.469462 5.455344 23.083534
v -7.023410 2.154968 24.683107
v -4.925901 5.391366 22.827126
v -7.985042 2.505589 22.392057
v -5.186967 5.477908 22.379440
v -6.961089 2.240984 19.959103
v -4.983458 5.475236 21.874355
v -4.402321 4.827624 19.760643
v -4.468321 7.310083 21.885174
v -2.549786 5.022194 20.404793
v -4.099741 7.356363 22.010752
v -1.638636 4.717099 22.273266
v -4.017940 7.281590 22.379950
v -2.371537 5.126413 24.227642
v -4.136917 7.274199 22.704206
v -4.436774 4.663138 24.935738
v -4.470053 7.194352 22.766592
v -6.245522 5.059083 24.239294
v -4.866843 7.344960 22.770105
v -6.945193 4.556873 22.387114
v -5.041679 7.366258 22.385876
v -6.333739 5.050941 20.485363
v -4.769725 7.221059 22.079039
v -4.568041 7.081390 20.765419
v -3.342787 7.049563 21.262569
v -2.947037 6.986746 22.397760
v -3.335500 7.141091 23.502653
v -4.454851 10.358155 22.385273
v -4.517315 6.957894 23.950085
v -5.669221 6.974113 23.442776
v -6.011617 7.156692 22.408339
v -5.635167 7.051097 21.265600
v -3.767822 8.212272 22.401474
v -5.152802 8.343043 22.390970
v -4.170454 8.236105 22.088541
v -4.067021 8.257946 22.753040
v -5.006516 8.262835 22.867916
v -4.507197 8.283549 21.807913
v -4.500350 8.154785 22.854811
v -4.899079 8.365766 21.982504
vn 0.3763 0.2075 -0.9030
vn 0.9254 0.1562 -0.3453
vn 0.9354 0.1351 0.3268
vn 0.4387 0.1887 0.8786
vn -0.4054 0.2240 0.8862
vn -0.9236 0.1652 0.3459
vn -0.9487 0.1965 -0.2477
vn -0.3465 0.1193 -0.9304
vn 0.0214 -0.9998 -0.0026
vn -0.4096 0.4972 -0.7648
vn -0.7837 0.4882 -0.3840
vn -0.7108 0.4717 0.5217
vn -0.2397 0.4165 0.8770
vn 0.1109 0.6705 0.7335
vn 0.7729 0.6295 0.0796
vn 0.8840 0.4103 -0.2241
vn 0.3819 0.5102 -0.7706
vn -0.0006 -0.9998 0.0206
vn -0.0018 -1.0000 -0.0084
vn -0.0046 -1.0000 -0.0023
vn -0.0043 -1.0000 -0.0020
vn -0.0087 -1.0000 0.0001
vn 0.9116 0.0866 -0.4019
vn -0.4037 0.0137 0.9148
vn -0.4720 0.0143 -0.8815
vn 0.5480 0.0661 -0.8339
vn 0.8710 0.0851 0.4838
vn -0.9276 -0.0112 0.3735
vn 0.2711 0.0514 0.9612
vn -0.9334 -0.0113 -0.3587
vn -0.4029 0.0641 0.9130
vn 0.8737 -0.0353 0.4853
vn 0.5492 -0.0109 -0.8356
vn -0.4708 0.0732 -0.8792
vn -0.9222 0.1083 0.3713
vn 0.2715 0.0115 0.9624
vn 0.9143 -0.0391 -0.4032
vn -0.9279 0.1089 -0.3566
vn -0.9322 0.0518 -0.3583
vn -0.4032 0.0536 0.9136
vn 0.8716 0.0764 0.4841
vn 0.5479 0.0690 -0.8337
vn -0.4712 0.0596 -0.8800
vn -0.9264 0.0515 0.3730
vn 0.2709 0.0655 0.9604
vn 0.9124 0.0759 -0.4023
vn -0.9224 0.1058 0.3714
vn 0.2712 0.0472 0.9614
vn 0.9148 0.0183 -0.4034
vn -0.9281 0.1064 -0.3567
vn -0.4026 0.0764 0.9122
vn 0.8740 0.0213 0.4855
vn 0.5489 0.0338 -0.8352
vn -0.4703 0.0863 -0.8783
vn 0.5465 0.0992 -0.8316
vn -0.4683 0.1251 -0.8746
vn -0.9198 0.1298 0.3703
vn 0.2700 0.1045 0.9572
vn 0.9108 0.0960 -0.4016
vn -0.9254 0.1305 -0.3557
vn -0.4012 0.1117 0.9091
vn 0.8699 0.0985 0.4832
vn 0.4163 0.6087 -0.6754
vn 0.7310 0.5888 -0.3449
vn 0.7097 0.6062 0.3589
vn 0.3296 0.5967 0.7316
vn -0.3697 0.6308 0.6822
vn -0.6681 0.6454 0.3703
vn -0.6916 0.6309 -0.3515
vn -0.3254 0.6677 -0.6695
vn 0.2022 0.6398 -0.7415
vn 0.7058 0.6650 -0.2444
vn 0.7271 0.6680 0.1588
vn 0.1318 0.6460 0.7518
vn -0.1717 0.6397 0.7492
vn -0.8139 0.5513 0.1835
vn -0.8187 0.5548 -0.1483
vn -0.2074 0.6717 -0.7112
vn 0.3153 0.6125 -0.7248
vn 0.8016 0.5341 -0.2687
vn 0.8062 0.5412 0.2391
vn 0.1908 0.6669 0.7203
vn -0.3295 0.5149 0.7914
vn -0.7554 0.5546 0.3490
vn -0.7728 0.5538 -0.3101
vn -0.3382 0.5897 -0.7334
vn -0.2891 0.3917 -0.8735
vn -0.0509 0.3576 0.9325
vn 0.7195 0.3405 -0.6053
vn -0.8267 0.4316 0.3609
vn 0.7944 0.3698 0.4819
vn -0.8017 0.4198 -0.4255
vn 0.2123 0.3462 0.9138
vn 0.5340 0.3405 -0.7739
vn 0.0379 -0.7105 0.7027
vn -0.7277 -0.5899 0.3499
vn -0.7387 -0.6658 -0.1050
vn -0.3319 -0.5973 -0.7301
vn 0.4520 -0.6078 -0.6529
vn 0.6633 -0.6463 -0.3773
vn 0.6985 -0.6564 0.2849
vn -0.0191 -0.5008 0.8654
vn -0.1911 -0.6412 0.7432
vn -0.8113 -0.5814 0.0620
vn -0.7293 -0.6711 -0.1329
vn -0.0117 -0.5849 -0.8110
vn 0.1489 -0.6423 -0.7518
vn 0.6870 -0.6380 -0.3480
vn 0.5858 -0.3966 0.7068
vn 0.1928 -0.6673 0.7194
vn -0.3105 -0.6138 0.7259
vn -0.4632 -0.7008 0.5426
vn -0.8127 -0.5436 -0.2098
vn -0.0528 -0.5801 -0.8128
vn -0.1608 -0.6651 -0.7293
vn 0.7612 -0.5469 -0.3485
vn 0.7733 -0.5553 0.3061
vn 0.2347 -0.5634 0.7921
vn 0.3471 -0.2596 0.9012
vn -0.0694 -0.2065 -0.9760
vn -0.6095 -0.1893 0.7698
vn 0.8930 -0.3102 -0.3261
vn -0.7537 -0.2459 -0.6095
vn 0.8217 -0.2832 0.4946
vn -0.1782 -0.2016 -0.9631
vn -0.6442 -0.1899 0.7409
vn 0.1998 -0.6767 -0.7086
vn -0.2776 0.6522 0.7054
vn 0.7447 -0.6395 -0.1911
vn -0.6693 0.6937 0.2663
vn 0.6748 -0.7034 0.2232
vn -0.6694 0.6846 -0.2886
vn 0.1672 -0.6457 0.7450
vn -0.2697 0.6908 -0.6709
vn -0.2003 -0.7035 0.6819
vn 0.2857 0.6777 -0.6776
vn -0.7365 -0.6428 0.2108
vn 0.6914 0.6665 -0.2788
vn -0.7052 -0.6697 -0.2329
vn 0.6998 0.6542 0.2870
vn -0.2403 -0.6489 -0.7219
vn 0.3031 0.6558 0.6914
vn 0.3079 -0.6585 -0.6867
vn -0.3210 0.6532 0.6858
vn 0.6398 -0.6593 -0.3950
vn -0.7215 0.6299 0.2874
vn 0.6913 -0.6101 0.3870
vn -0.7324 0.6075 -0.3073
vn 0.3759 -0.6396 0.6705
vn -0.2886 0.6681 -0.6858
vn -0.3933 -0.6463 0.6540
vn 0.2476 0.6822 -0.6879
vn -0.5785 -0.7118 0.3983
vn 0.6333 0.7168 -0.2917
vn -0.6061 -0.7004 -0.3769
vn 0.6710 0.6915 0.2675
vn -0.3136 -0.6943 -0.6478
vn 0.2512 0.6835 0.6854
vn 0.2566 -0.6901 -0.6767
vn 0.6562 -0.7038 -0.2722
vn 0.6507 -0.6864 0.3247
vn 0.3347 -0.7029 0.6276
vn -0.2809 -0.6945 0.6623
vn -0.7490 -0.6490 0.1334
vn -0.6379 -0.7477 -0.1844
vn -0.2811 -0.7124 -0.6430
vn 0.5461 0.1063 -0.8310
vn 0.8995 0.1831 -0.3966
vn 0.8552 0.2076 0.4750
vn 0.2621 0.2612 0.9290
vn -0.3940 0.2181 0.8928
vn -0.9165 0.1544 0.3690
vn -0.9247 0.1363 -0.3554
vn -0.4628 0.1965 -0.8644
vn -0.3082 0.2950 -0.9044
vn -0.8913 0.3714 -0.2599
vn -0.7124 0.5728 0.4055
vn -0.3127 0.5410 0.7808
vn 0.4251 0.3325 0.8419
vn 0.8600 0.4251 0.2824
vn 0.8271 0.4954 -0.2655
vn 0.3530 0.5397 -0.7642
vn -0.9276 -0.0112 0.3734
vn -0.9279 0.1090 -0.3566
vn 0.0892 0.7102 -0.6983
vn 0.7396 0.6511 -0.1703
vn 0.7291 0.6613 0.1763
vn 0.3241 0.5992 0.7321
vn -0.3902 0.6232 0.6777
vn -0.6594 0.6226 0.4214
vn -0.6984 0.6561 -0.2860
vn -0.0952 0.5498 -0.8298
vn 0.2138 0.6460 -0.7327
vn 0.7640 0.6230 -0.1679
vn 0.6408 0.7185 0.2705
vn 0.1207 0.6385 0.7601
vn -0.0251 0.5518 0.8336
vn -0.7058 0.6316 0.3210
vn -0.4973 0.7171 -0.4884
vn -0.4610 0.5700 -0.6801
vn 0.4437 0.7102 -0.5465
vn 0.5298 0.7126 -0.4600
vn 0.6280 0.6849 0.3695
vn 0.1326 0.6089 0.7821
vn 0.0252 0.6824 0.7306
vn -0.7550 0.5590 0.3428
vn -0.7059 0.6050 -0.3683
vn -0.2112 0.6544 -0.7260
vn -0.4285 -0.6101 0.6665
vn -0.7447 -0.6594 0.1035
vn -0.7051 -0.6074 -0.3660
vn -0.3342 -0.5964 -0.7298
vn 0.3797 -0.6330 -0.6747
vn 0.6352 -0.6000 -0.4864
vn 0.6872 -0.6322 0.3580
vn 0.3315 -0.6661 0.6682
vn -0.1766 -0.6348 0.7522
vn -0.7074 -0.6662 0.2362
vn -0.6504 -0.7155 -0.2550
vn -0.1132 -0.6474 -0.7537
vn -0.1796 -0.4529 -0.8733
vn 0.8174 -0.5539 -0.1586
vn 0.7765 -0.6240 0.0876
vn 0.5642 -0.5281 0.6346
vn -0.5118 -0.7019 0.4954
vn -0.8040 -0.5393 0.2505
vn -0.6010 -0.6779 -0.4234
vn -0.1727 -0.6636 -0.7279
vn 0.3374 -0.5227 -0.7829
vn 0.7630 -0.5572 -0.3277
vn 0.6919 -0.6035 0.3962
vn 0.3459 -0.6246 0.7001
vn 0.2109 -0.6324 -0.7453
vn -0.2603 0.6672 0.6979
vn 0.6828 -0.7084 -0.1786
vn -0.6824 0.6671 0.2989
vn 0.7068 -0.6695 0.2287
vn -0.6649 0.6935 -0.2773
vn 0.1565 -0.7084 0.6882
vn -0.2592 0.6744 -0.6913
vn -0.2091 -0.6590 0.7225
vn 0.2910 0.6869 -0.6659
vn -0.7054 -0.6789 0.2037
vn 0.6952 0.6632 -0.2772
vn -0.7307 -0.6399 -0.2379
vn 0.6968 0.6615 0.2773
vn -0.2371 -0.6689 -0.7045
vn 0.2966 0.6621 0.6883
vn 0.3119 -0.6511 -0.6920
vn -0.3158 0.6569 0.6847
vn 0.6813 -0.5930 -0.4291
vn -0.7202 0.6341 0.2815
vn 0.6812 -0.6253 0.3808
vn -0.7264 0.6394 -0.2520
vn 0.3732 -0.6467 0.6652
vn -0.3377 0.6339 -0.6958
vn -0.3628 -0.7077 0.6063
vn 0.2516 0.6790 -0.6896
vn -0.6058 -0.6799 0.4132
vn 0.6734 0.6889 -0.2682
vn -0.5969 -0.7108 -0.3722
vn 0.6294 0.7233 0.2843
vn -0.3276 -0.6694 -0.6668
vn 0.2463 0.6768 0.6937
vn 0.2532 -0.6939 -0.6741
vn 0.6511 -0.7107 -0.2663
vn 0.6495 -0.6882 0.3234
vn 0.3488 -0.6833 0.6415
vn -0.2856 -0.7263 0.6252
vn -0.6404 -0.7541 0.1456
vn -0.7166 -0.6756 -0.1736
vn -0.2755 -0.6669 -0.6924
vt 0.548524 0.519876
vt 0.548425 0.586845
vt 0.551303 0.520194
vt 0.550075 0.586845
vt 0.551998 0.519911
vt 0.550681 0.586845
vt 0.551666 0.519841
vt 0.549867 0.586845
vt 0.548443 0.520004
vt 0.548440 0.586845
vt 0.546024 0.520252
vt 0.546821 0.586845
vt 0.544070 0.519841
vt 0.546302 0.586845
vt 0.545517 0.520295
vt 0.546875 0.586845
vt 0.548423 0.540900
vt 0.550590 0.538476
vt 0.551359 0.535687
vt 0.550587 0.537217
vt 0.548599 0.537947
vt 0.546416 0.541280
vt 0.545789 0.548500
vt 0.546265 0.544973
vt 0.547884 0.707309
vt 0.549211 0.707309
vt 0.549697 0.707309
vt 0.549044 0.707309
vt 0.547897 0.707309
vt 0.546595 0.707309
vt 0.546178 0.707309
vt 0.546638 0.707309
vt 0.548360 0.776786
vt 0.549519 0.776786
vt 0.549944 0.776786
vt 0.549373 0.776786
vt 0.548371 0.776786
vt 0.547234 0.776786
vt 0.546870 0.776786
vt 0.547272 0.776786
vt 0.548294 0.838418
vt 0.549175 0.838418
vt 0.549498 0.838418
vt 0.549064 0.838418
vt 0.548302 0.838418
vt 0.547438 0.838418
vt 0.547161 0.838418
vt 0.547467 0.838418
vt 0.548499 0.888285
vt 0.549162 0.888285
vt 0.549405 0.888285
vt 0.549079 0.888285
vt 0.548505 0.888285
vt 0.547855 0.888285
vt 0.547646 0.888285
vt 0.547877 0.888285
vt 0.548639 0.971208
vt 0.147490 0.572846
vt 0.147978 0.767986
vt 0.168219 0.569333
vt 0.152939 0.767145
vt 0.176805 0.567877
vt 0.154993 0.766797
vt 0.168219 0.569333
vt 0.152939 0.767145
vt 0.147490 0.572847
vt 0.147978 0.767986
vt 0.126762 0.576360
vt 0.143017 0.768827
vt 0.118176 0.577816
vt 0.140962 0.769175
vt 0.126762 0.576360
vt 0.143017 0.768826
vt 0.146846 0.570404
vt 0.145850 0.739279
vt 0.164785 0.577593
vt 0.150143 0.741000
vt 0.172215 0.580570
vt 0.151921 0.741713
vt 0.164785 0.577593
vt 0.150143 0.741000
vt 0.146846 0.570404
vt 0.145850 0.739279
vt 0.128908 0.563216
vt 0.141557 0.737559
vt 0.121477 0.560239
vt 0.139778 0.736847
vt 0.128908 0.563216
vt 0.141557 0.737559
vt 0.146259 0.527424
vt 0.167112 0.518991
vt 0.175749 0.515498
vt 0.167112 0.518991
vt 0.147428 0.964869
vt 0.146259 0.527424
vt 0.125406 0.535856
vt 0.116769 0.539349
vt 0.125406 0.535856
vt 0.160777 0.667492
vt 0.133179 0.682938
vt 0.155828 0.683431
vt 0.156034 0.679969
vt 0.136678 0.674347
vt 0.146810 0.682831
vt 0.146789 0.676954
vt 0.137747 0.689627
vt 0.147490 0.572846
vt 0.147978 0.767986
vt 0.168219 0.569333
vt 0.152939 0.767145
vt 0.176805 0.567877
vt 0.154993 0.766797
vt 0.168219 0.569333
vt 0.152939 0.767145
vt 0.147490 0.572847
vt 0.147978 0.767986
vt 0.126762 0.576360
vt 0.143017 0.768827
vt 0.118176 0.577816
vt 0.140962 0.769175
vt 0.126762 0.576360
vt 0.143017 0.768826
vt 0.146846 0.570404
vt 0.145850 0.739279
vt 0.164785 0.577593
vt 0.150143 0.741000
vt 0.172215 0.580570
vt 0.151921 0.741713
vt 0.164785 0.577593
vt 0.150143 0.741000
vt 0.146846 0.570404
vt 0.145850 0.739279
vt 0.128908 0.563216
vt 0.141557 0.737559
vt 0.121477 0.560239
vt 0.139778 0.736847
vt 0.128908 0.563216
vt 0.141557 0.737559
vt 0.146259 0.527424
vt 0.167112 0.518991
vt 0.175749 0.515498
vt 0.167112 0.518991
vt 0.147428 0.964869
vt 0.146259 0.527424
vt 0.125406 0.535856
vt 0.116769 0.539349
vt 0.125406 0.535856
vt 0.160777 0.667492
vt 0.133179 0.682938
vt 0.155828 0.683431
vt 0.156034 0.679969
vt 0.136678 0.674347
vt 0.146810 0.682831
vt 0.146789 0.676954
vt 0.137747 0.689627
s 0
usemtl AllColors_Material
f 17/17/1 4/4/1 18/18/1
f 18/18/2 6/6/2 19/19/2
f 6/6/3 20/20/3 19/19/3
f 8/8/4 21/21/4 20/20/4
f 10/10/5 22/22/5 21/21/5
f 12/12/6 23/23/6 22/22/6
f 23/23/7 16/16/7 24/24/7
f 24/24/8 2/2/8 17/17/8
f 11/11/9 13/13/9 15/15/9
f 15/15/10 17/17/10 1/1/10
f 23/23/11 15/15/11 13/13/11
f 22/22/12 13/13/12 11/11/12
f 21/21/13 11/11/13 9/9/13
f 20/20/14 9/9/14 7/7/14
f 5/5/15 20/20/15 7/7/15
f 3/3/16 19/19/16 5/5/16
f 1/1/17 18/18/17 3/3/17
f 15/15/18 1/1/18 3/3/18
f 3/3/19 5/5/19 15/15/19
f 5/5/20 7/7/20 9/9/20
f 15/15/21 5/5/21 9/9/21
f 9/9/22 11/11/22 15/15/22
f 4/4/23 27/27/23 6/6/23
f 12/12/24 29/29/24 30/30/24
f 16/16/25 25/25/25 2/2/25
f 2/2/26 26/26/26 4/4/26
f 8/8/27 27/27/27 28/28/27
f 14/14/28 30/30/28 31/31/28
f 10/10/29 28/28/29 29/29/29
f 14/14/30 32/32/30 16/16/30
f 29/29/31 38/38/31 30/30/31
f 27/27/32 36/36/32 28/28/32
f 26/26/33 33/33/33 34/34/33
f 25/25/34 40/40/34 33/33/34
f 30/30/35 39/39/35 31/31/35
f 28/28/36 37/37/36 29/29/36
f 27/27/37 34/34/37 35/35/37
f 32/32/38 39/39/38 40/40/38
f 39/39/39 48/48/39 40/40/39
f 38/38/40 45/45/40 46/46/40
f 36/36/41 43/43/41 44/44/41
f 33/33/42 42/42/42 34/34/42
f 40/40/43 41/41/43 33/33/43
f 39/39/44 46/46/44 47/47/44
f 37/37/45 44/44/45 45/45/45
f 34/34/46 43/43/46 35/35/46
f 46/46/47 55/55/47 47/47/47
f 44/44/48 53/53/48 45/45/48
f 43/43/49 50/50/49 51/51/49
f 48/48/50 55/55/50 56/56/50
f 45/45/51 54/54/51 46/46/51
f 43/43/52 52/52/52 44/44/52
f 42/42/53 49/49/53 50/50/53
f 41/41/54 56/56/54 49/49/54
f 50/50/55 49/49/55 57/57/55
f 49/49/56 56/56/56 57/57/56
f 55/55/57 54/54/57 57/57/57
f 53/53/58 52/52/58 57/57/58
f 51/51/59 50/50/59 57/57/59
f 56/56/60 55/55/60 57/57/60
f 54/54/61 53/53/61 57/57/61
f 52/52/62 51/51/62 57/57/62
f 58/58/63 61/61/63 60/60/63
f 61/61/64 62/62/64 60/60/64
f 62/62/65 65/65/65 64/64/65
f 65/65/66 66/66/66 64/64/66
f 66/66/67 69/69/67 68/68/67
f 69/69/68 70/70/68 68/68/68
f 70/70/69 73/73/69 72/72/69
f 72/72/70 59/59/70 58/58/70
f 75/75/71 76/76/71 74/74/71
f 76/76/72 79/79/72 78/78/72
f 79/79/73 80/80/73 78/78/73
f 80/80/74 83/83/74 82/82/74
f 83/83/75 84/84/75 82/82/75
f 84/84/76 87/87/76 86/86/76
f 87/87/77 88/88/77 86/86/77
f 89/89/78 74/74/78 88/88/78
f 104/104/79 91/91/79 90/90/79
f 91/91/80 99/99/80 92/92/80
f 99/99/81 93/93/81 92/92/81
f 93/93/82 105/105/82 95/95/82
f 95/95/83 103/103/83 96/96/83
f 103/103/84 97/97/84 96/96/84
f 100/100/85 98/98/85 97/97/85
f 106/106/86 90/90/86 98/98/86
f 104/104/87 106/106/87 94/94/87
f 103/103/88 105/105/88 94/94/88
f 99/99/89 101/101/89 94/94/89
f 100/100/90 103/103/90 94/94/90
f 102/102/91 99/99/91 94/94/91
f 106/106/92 100/100/92 94/94/92
f 105/105/93 102/102/93 94/94/93
f 101/101/94 104/104/94 94/94/94
f 107/107/95 110/110/95 108/108/95
f 111/111/96 110/110/96 109/109/96
f 111/111/97 114/114/97 112/112/97
f 115/115/98 114/114/98 113/113/98
f 115/115/99 118/118/99 116/116/99
f 119/119/100 118/118/100 117/117/100
f 119/119/101 122/122/101 120/120/101
f 121/121/102 108/108/102 122/122/102
f 125/125/103 124/124/103 123/123/103
f 125/125/104 128/128/104 126/126/104
f 129/129/105 128/128/105 127/127/105
f 129/129/106 132/132/106 130/130/106
f 133/133/107 132/132/107 131/131/107
f 133/133/108 136/136/108 134/134/108
f 135/135/109 138/138/109 136/136/109
f 123/123/110 138/138/110 137/137/110
f 140/140/111 153/153/111 139/139/111
f 140/140/112 148/148/112 150/150/112
f 142/142/113 148/148/113 141/141/113
f 142/142/114 154/154/114 151/151/114
f 144/144/115 152/152/115 154/154/115
f 146/146/116 152/152/116 145/145/116
f 147/147/117 149/149/117 146/146/117
f 147/147/118 153/153/118 155/155/118
f 153/153/119 143/143/119 155/155/119
f 152/152/120 143/143/120 154/154/120
f 148/148/121 143/143/121 150/150/121
f 149/149/122 143/143/122 152/152/122
f 151/151/123 143/143/123 148/148/123
f 155/155/124 143/143/124 149/149/124
f 154/154/125 143/143/125 151/151/125
f 150/150/126 143/143/126 153/153/126
f 60/60/127 107/107/127 58/58/127
f 59/59/128 110/110/128 61/61/128
f 60/60/129 111/111/129 109/109/129
f 63/63/130 110/110/130 112/112/130
f 64/64/131 111/111/131 62/62/131
f 63/63/132 114/114/132 65/65/132
f 64/64/133 115/115/133 113/113/133
f 65/65/134 116/116/134 67/67/134
f 68/68/135 115/115/135 66/66/135
f 69/69/136 116/116/136 118/118/136
f 68/68/137 119/119/137 117/117/137
f 69/69/138 120/120/138 71/71/138
f 72/72/139 119/119/139 70/70/139
f 71/71/140 122/122/140 73/73/140
f 72/72/141 107/107/141 121/121/141
f 59/59/142 122/122/142 108/108/142
f 74/74/143 125/125/143 123/123/143
f 75/75/144 126/126/144 77/77/144
f 78/78/145 125/125/145 76/76/145
f 79/79/146 126/126/146 128/128/146
f 78/78/147 129/129/147 127/127/147
f 79/79/148 130/130/148 81/81/148
f 82/82/149 129/129/149 80/80/149
f 83/83/150 130/130/150 132/132/150
f 82/82/151 133/133/151 131/131/151
f 83/83/152 134/134/152 85/85/152
f 86/86/153 133/133/153 84/84/153
f 85/85/154 136/136/154 87/87/154
f 86/86/155 137/137/155 135/135/155
f 89/89/156 136/136/156 138/138/156
f 74/74/157 137/137/157 88/88/157
f 89/89/158 124/124/158 75/75/158
f 90/90/159 140/140/159 139/139/159
f 92/92/160 140/140/160 91/91/160
f 92/92/161 142/142/161 141/141/161
f 95/95/162 142/142/162 93/93/162
f 96/96/163 144/144/163 95/95/163
f 96/96/164 146/146/164 145/145/164
f 98/98/165 146/146/165 97/97/165
f 98/98/166 139/139/166 147/147/166
f 17/17/167 2/2/167 4/4/167
f 18/18/168 4/4/168 6/6/168
f 6/6/169 8/8/169 20/20/169
f 8/8/170 10/10/170 21/21/170
f 10/10/171 12/12/171 22/22/171
f 12/12/172 14/14/172 23/23/172
f 23/23/173 14/14/173 16/16/173
f 24/24/174 16/16/174 2/2/174
f 15/15/175 24/24/175 17/17/175
f 23/23/176 24/24/176 15/15/176
f 22/22/177 23/23/177 13/13/177
f 21/21/178 22/22/178 11/11/178
f 20/20/179 21/21/179 9/9/179
f 5/5/180 19/19/180 20/20/180
f 3/3/181 18/18/181 19/19/181
f 1/1/182 17/17/182 18/18/182
f 4/4/23 26/26/23 27/27/23
f 12/12/24 10/10/24 29/29/24
f 16/16/25 32/32/25 25/25/25
f 2/2/26 25/25/26 26/26/26
f 8/8/27 6/6/27 27/27/27
f 14/14/183 12/12/183 30/30/183
f 10/10/29 8/8/29 28/28/29
f 14/14/30 31/31/30 32/32/30
f 29/29/31 37/37/31 38/38/31
f 27/27/32 35/35/32 36/36/32
f 26/26/33 25/25/33 33/33/33
f 25/25/34 32/32/34 40/40/34
f 30/30/35 38/38/35 39/39/35
f 28/28/36 36/36/36 37/37/36
f 27/27/37 26/26/37 34/34/37
f 32/32/184 31/31/184 39/39/184
f 39/39/39 47/47/39 48/48/39
f 38/38/40 37/37/40 45/45/40
f 36/36/41 35/35/41 43/43/41
f 33/33/42 41/41/42 42/42/42
f 40/40/43 48/48/43 41/41/43
f 39/39/44 38/38/44 46/46/44
f 37/37/45 36/36/45 44/44/45
f 34/34/46 42/42/46 43/43/46
f 46/46/47 54/54/47 55/55/47
f 44/44/48 52/52/48 53/53/48
f 43/43/49 42/42/49 50/50/49
f 48/48/50 47/47/50 55/55/50
f 45/45/51 53/53/51 54/54/51
f 43/43/52 51/51/52 52/52/52
f 42/42/53 41/41/53 49/49/53
f 41/41/54 48/48/54 56/56/54
f 58/58/185 59/59/185 61/61/185
f 61/61/186 63/63/186 62/62/186
f 62/62/187 63/63/187 65/65/187
f 65/65/188 67/67/188 66/66/188
f 66/66/189 67/67/189 69/69/189
f 69/69/190 71/71/190 70/70/190
f 70/70/191 71/71/191 73/73/191
f 72/72/192 73/73/192 59/59/192
f 75/75/193 77/77/193 76/76/193
f 76/76/194 77/77/194 79/79/194
f 79/79/195 81/81/195 80/80/195
f 80/80/196 81/81/196 83/83/196
f 83/83/197 85/85/197 84/84/197
f 84/84/198 85/85/198 87/87/198
f 87/87/199 89/89/199 88/88/199
f 89/89/200 75/75/200 74/74/200
f 104/104/201 101/101/201 91/91/201
f 91/91/202 101/101/202 99/99/202
f 99/99/203 102/102/203 93/93/203
f 93/93/204 102/102/204 105/105/204
f 95/95/205 105/105/205 103/103/205
f 103/103/206 100/100/206 97/97/206
f 100/100/207 106/106/207 98/98/207
f 106/106/208 104/104/208 90/90/208
f 107/107/209 109/109/209 110/110/209
f 111/111/210 112/112/210 110/110/210
f 111/111/211 113/113/211 114/114/211
f 115/115/212 116/116/212 114/114/212
f 115/115/213 117/117/213 118/118/213
f 119/119/214 120/120/214 118/118/214
f 119/119/215 121/121/215 122/122/215
f 121/121/216 107/107/216 108/108/216
f 125/125/217 126/126/217 124/124/217
f 125/125/218 127/127/218 128/128/218
f 129/129/219 130/130/219 128/128/219
f 129/129/220 131/131/220 132/132/220
f 133/133/221 134/134/221 132/132/221
f 133/133/222 135/135/222 136/136/222
f 135/135/223 137/137/223 138/138/223
f 123/123/224 124/124/224 138/138/224
f 140/140/225 150/150/225 153/153/225
f 140/140/226 141/141/226 148/148/226
f 142/142/227 151/151/227 148/148/227
f 142/142/228 144/144/228 154/154/228
f 144/144/229 145/145/229 152/152/229
f 146/146/230 149/149/230 152/152/230
f 147/147/231 155/155/231 149/149/231
f 147/147/232 139/139/232 153/153/232
f 60/60/233 109/109/233 107/107/233
f 59/59/234 108/108/234 110/110/234
f 60/60/235 62/62/235 111/111/235
f 63/63/236 61/61/236 110/110/236
f 64/64/237 113/113/237 111/111/237
f 63/63/238 112/112/238 114/114/238
f 64/64/239 66/66/239 115/115/239
f 65/65/240 114/114/240 116/116/240
f 68/68/241 117/117/241 115/115/241
f 69/69/242 67/67/242 116/116/242
f 68/68/243 70/70/243 119/119/243
f 69/69/244 118/118/244 120/120/244
f 72/72/245 121/121/245 119/119/245
f 71/71/246 120/120/246 122/122/246
f 72/72/247 58/58/247 107/107/247
f 59/59/248 73/73/248 122/122/248
f 74/74/249 76/76/249 125/125/249
f 75/75/250 124/124/250 126/126/250
f 78/78/251 127/127/251 125/125/251
f 79/79/252 77/77/252 126/126/252
f 78/78/253 80/80/253 129/129/253
f 79/79/254 128/128/254 130/130/254
f 82/82/255 131/131/255 129/129/255
f 83/83/256 81/81/256 130/130/256
f 82/82/257 84/84/257 133/133/257
f 83/83/258 132/132/258 134/134/258
f 86/86/259 135/135/259 133/133/259
f 85/85/260 134/134/260 136/136/260
f 86/86/261 88/88/261 137/137/261
f 89/89/262 87/87/262 136/136/262
f 74/74/263 123/123/263 137/137/263
f 89/89/264 138/138/264 124/124/264
f 90/90/265 91/91/265 140/140/265
f 92/92/266 141/141/266 140/140/266
f 92/92/267 93/93/267 142/142/267
f 95/95/268 144/144/268 142/142/268
f 96/96/269 145/145/269 144/144/269
f 96/96/270 97/97/270 146/146/270
f 98/98/271 147/147/271 146/146/271
f 98/98/272 90/90/272 139/139/272
