# Blender 3.5.1
# www.blender.org
mtllib wood10.mtl
o Stump_average_hollow_Cube.016
v -7.199267 0.000000 -12.166608
v -7.095531 0.307909 -12.196714
v -7.413562 -0.000000 -14.060906
v -7.074653 0.311666 -13.637520
v -5.104423 0.000000 -11.966480
v -5.596446 0.402262 -12.409048
v -5.627242 -0.000000 -13.694128
v -5.734632 0.390443 -13.592341
v -5.956204 -0.000000 -14.362990
v -6.569076 0.007506 -13.680850
v -6.528203 0.411715 -13.590766
v -6.036191 0.407201 -13.745955
v -6.751746 0.000000 -11.533840
v -6.087655 0.003561 -12.029005
v -6.151124 0.333902 -12.121128
v -6.645389 0.268684 -11.969814
v -7.294623 0.017424 -13.202684
v -7.792195 0.000000 -12.098376
v -7.180327 0.408049 -12.768514
v -7.191255 0.305998 -13.214797
v -5.409638 0.010338 -12.759254
v -4.793437 0.000000 -13.264659
v -5.604573 0.354816 -13.285422
v -5.484378 0.364294 -12.779876
v -6.452186 0.000000 -13.132522
v -6.561465 0.000000 -12.587111
v -5.931546 0.000000 -13.214943
v -6.047952 0.000000 -12.643997
v -7.011054 0.641778 -13.173575
v -6.891019 0.641778 -13.457674
v -6.058404 0.641778 -13.607935
v -5.815064 0.641778 -13.472604
v -5.624516 0.641778 -12.809753
v -5.695865 0.641778 -12.497787
v -6.540141 0.641778 -12.222871
v -6.898936 0.641778 -12.379803
v -6.446570 0.641778 -13.485909
v -6.162427 0.641778 -12.297999
v -7.011888 0.641778 -12.793822
v -5.725327 0.641778 -13.213272
v -6.776414 0.910293 -13.126000
v -6.674930 0.953680 -13.348046
v -6.073649 0.960794 -13.459865
v -5.916030 0.910293 -13.367127
v -5.761819 0.910293 -12.827698
v -5.813323 0.910293 -12.602495
v -6.490348 1.083666 -12.378824
v -6.744271 0.910293 -12.486627
v -6.352366 0.771775 -13.368979
v -6.186923 1.083666 -12.442516
v -6.857884 0.910293 -13.147920
v -6.739253 0.953680 -13.410696
v -6.065665 0.960794 -13.535053
v -5.859231 0.910293 -13.413630
v -5.690997 0.910293 -12.828405
v -5.753989 0.910293 -12.552973
v -6.496646 1.083666 -12.307502
v -6.806249 0.910293 -12.438882
v -6.375491 0.771775 -13.434905
v -6.165914 1.083666 -12.376581
v -5.985208 0.299362 -13.678895
v -6.827180 0.299362 -13.522315
v -6.969291 0.299362 -13.211384
v -6.831313 0.635540 -13.151537
v -6.718328 0.635540 -13.398743
v -6.048919 0.635540 -13.523231
v -5.873439 0.635540 -13.419986
v -5.701755 0.635540 -12.819432
v -5.759095 0.635540 -12.568714
v -6.512832 0.635540 -12.319699
v -6.795527 0.635540 -12.439715
v -6.359216 0.635540 -13.422047
v -6.175027 0.635540 -12.390608
v -6.880176 0.635540 -12.784398
v -5.795577 0.635540 -13.194977
v -5.980369 0.067724 -13.694918
v -6.837083 0.067724 -13.535597
v -6.981683 0.067724 -13.219222
v -5.764491 0.299362 -13.549035
v -5.548551 0.299362 -12.793669
v -5.620673 0.299362 -12.478318
v -6.568711 0.299362 -12.165112
v -6.924279 0.299362 -12.316068
v -6.375495 0.299362 -13.551626
v -6.143825 0.299362 -12.254299
v -7.030749 0.299362 -12.749601
v -5.666560 0.299362 -13.266022
v -5.755788 0.067724 -13.562784
v -5.536067 0.067724 -12.794193
v -5.609452 0.067724 -12.473323
v -6.574088 0.067724 -12.154632
v -6.935884 0.067724 -12.308229
v -6.377490 0.067724 -13.565422
v -6.141763 0.067724 -12.245380
v -7.044217 0.067724 -12.749354
v -5.656142 0.067724 -13.274817
v -6.515721 0.213856 -13.206605
v -6.188582 0.246583 -12.667314
v -6.253078 0.352621 -13.035143
v -5.809596 0.910293 -13.018932
v -5.895333 0.910293 -13.307318
v -5.819047 0.679509 -13.181059
v -5.829244 0.910293 -13.326966
v -5.743506 0.910293 -13.038582
v -5.750150 0.680007 -13.200286
v -6.807456 0.910293 -12.892758
v -6.796233 0.910293 -12.698210
v -6.869945 0.682491 -12.786419
v -6.871478 0.910293 -12.701241
v -6.885327 0.910293 -12.895896
v -6.991662 0.688579 -12.794773
vn -0.7314 0.6763 0.0876
vn 0.6854 0.6454 -0.3371
vn 0.7457 0.6049 -0.2792
vn -0.5075 0.7833 0.3589
vn 0.0174 -0.9998 0.0069
vn -0.2614 0.4710 -0.8425
vn 0.8702 0.4419 0.2178
vn 0.3586 0.4749 0.8037
vn -0.0000 -1.0000 -0.0000
vn 0.0062 -1.0000 0.0011
vn -0.0417 0.7158 0.6970
vn 0.4056 0.7306 0.5492
vn 0.3154 0.6259 -0.7133
vn -0.5560 0.6588 -0.5068
vn -0.0021 -0.9999 -0.0132
vn -0.0003 -0.9998 0.0203
vn -0.0076 -0.9998 -0.0192
vn 0.8805 0.4213 -0.2172
vn -0.3204 0.5935 0.7383
vn -0.0572 0.4308 -0.9006
vn -0.8731 0.4794 -0.0882
vn 0.8520 0.4327 -0.2948
vn -0.7815 0.5863 0.2132
vn 0.0168 -0.9999 0.0034
vn 0.3246 0.7053 -0.6303
vn 0.3554 0.8369 0.4162
vn 0.0646 0.8251 0.5614
vn -0.7453 0.5812 -0.3267
vn -0.3794 0.3218 0.8675
vn 0.4448 0.1602 0.8812
vn 0.9442 0.2488 0.2159
vn 0.9468 0.2180 -0.2366
vn -0.4072 0.1946 -0.8924
vn 0.4690 0.2624 -0.8433
vn 0.0960 0.3176 -0.9433
vn 0.4219 0.4964 -0.7586
vn -0.7999 0.5610 -0.2131
vn 0.1883 0.5144 0.8367
vn -0.9141 0.3930 -0.0995
vn -0.8380 0.4535 -0.3035
vn 0.1924 0.1663 0.9671
vn -0.0461 0.9841 0.1713
vn 0.2243 0.9742 0.0238
vn -0.0000 1.0000 -0.0000
vn -0.5491 0.8344 -0.0485
vn 0.3887 0.8304 -0.3991
vn -0.5114 0.8404 0.1794
vn 0.2552 0.9173 -0.3057
vn 0.9700 -0.2058 0.1291
vn -0.9505 -0.2006 0.2375
vn -0.4356 -0.1150 -0.8927
vn -0.8921 0.3813 0.2423
vn -0.9521 -0.2147 -0.2178
vn 0.3951 -0.1466 0.9068
vn -0.4926 -0.2374 0.8372
vn 0.9493 0.1871 -0.2526
vn 0.0603 -0.3649 0.9291
vn -0.3643 -0.3788 -0.8508
vn 0.9105 -0.3953 0.1212
vn -0.8852 -0.4189 -0.2024
vn 0.2897 -0.3564 0.8883
vn 0.8824 -0.4177 -0.2167
vn -0.4544 -0.4438 0.7724
vn -0.8933 -0.3900 0.2232
vn 0.0604 -0.3616 0.9304
vn 0.3808 -0.2242 -0.8970
vn 0.9071 -0.1841 0.3786
vn -0.2040 -0.1180 -0.9718
vn 0.9896 -0.0574 0.1317
vn -0.9735 -0.0520 -0.2226
vn 0.3095 -0.0592 0.9491
vn 0.9696 -0.0566 -0.2381
vn -0.5059 -0.0701 0.8598
vn -0.9688 -0.0527 0.2420
vn 0.0646 -0.0599 0.9961
vn -0.2053 -0.0395 -0.9779
vn 0.3512 -0.4387 -0.8272
vn -0.8676 -0.3964 0.3002
vn 0.8302 -0.4083 0.3795
vn -0.1897 -0.3840 -0.9036
vn -0.2980 0.9537 -0.0397
vn 0.0016 0.9264 -0.3767
vn 0.2752 0.9593 0.0629
vn 0.3960 0.9129 -0.0989
vn -0.2932 0.9466 -0.1340
vn 0.0801 0.9209 0.3815
vn -0.0912 0.8378 -0.5383
vn -0.2091 0.9766 0.0513
vn -0.3933 -0.0389 -0.9186
vn 0.3903 -0.0507 -0.9193
vn -0.9436 -0.0548 0.3265
vn 0.9077 -0.0626 0.4149
vn -0.9250 -0.2050 0.3201
vn 0.9481 -0.2166 -0.2328
vn -0.0403 0.4306 0.9016
vn 0.0815 0.3496 -0.9334
vn 0.2248 0.5278 0.8191
vn -0.2257 0.5642 -0.7942
vn -0.9152 0.3174 -0.2482
vn 0.4420 0.3382 -0.8308
vn 0.9409 0.2140 0.2624
vn -0.4223 0.2281 0.8773
vn -0.0029 -0.9999 -0.0119
vn -0.2637 0.4760 -0.8390
vn 0.8662 0.4588 0.1981
vn 0.3515 0.4500 0.8209
vn 0.0006 -1.0000 0.0058
vn 0.4059 0.3170 0.8572
vn 0.2421 0.3035 0.9216
vn 0.0445 0.2130 -0.9760
vn -0.2903 0.2360 -0.9274
vn -0.0120 -0.9999 0.0003
vn -0.0199 -0.9998 -0.0094
vn -0.0203 -0.9998 -0.0041
vn 0.8783 0.4248 -0.2194
vn -0.3230 0.5920 0.7384
vn -0.0138 0.4843 -0.8748
vn -0.8114 0.5845 -0.0018
vn 0.8516 0.4212 -0.3120
vn -0.7840 0.5812 0.2181
vn 0.0009 -0.9998 0.0216
vn 0.8823 0.3301 -0.3355
vn 0.9547 0.1882 -0.2305
vn -0.9236 0.3302 0.1948
vn -0.9408 0.3347 -0.0535
vn -0.4794 0.2104 0.8520
vn 0.3796 0.2644 0.8866
vn 0.4032 0.5181 -0.7543
vn -0.2641 0.4740 -0.8400
vn 0.5326 0.2000 -0.8224
vn -0.0624 0.1783 -0.9820
vn 0.4172 0.4899 -0.7655
vn -0.8098 0.4766 -0.3422
vn 0.1694 0.4956 0.8519
vn -0.8685 0.4956 -0.0019
vn -0.8028 0.4904 -0.3392
vn 0.2014 0.1730 0.9641
vn -0.1103 0.9874 0.1132
vn 0.1788 0.9593 0.2184
vn -0.3108 0.8606 -0.4034
vn 0.4761 0.8634 -0.1670
vn -0.5332 0.8441 -0.0566
vn 0.3753 0.9191 -0.1196
vn -0.9504 -0.2006 0.2375
vn -0.4863 -0.4889 0.7242
vn -0.3867 -0.1873 -0.9030
vn -0.8888 0.3890 0.2425
vn -0.9047 0.3618 0.2249
vn -0.9521 -0.2147 -0.2177
vn 0.2892 -0.3600 0.8870
vn -0.5437 -0.2001 0.8151
vn 0.7652 0.5868 -0.2648
vn 0.9215 0.2216 -0.3189
vn -0.0229 -0.1543 0.9878
vn -0.8934 -0.3900 0.2232
vn 0.0604 -0.3615 0.9304
vn 0.4657 -0.1387 -0.8740
vn 0.8882 -0.2152 0.4060
vn -0.5059 -0.0700 0.8598
vn -0.9688 -0.0528 0.2420
vn -0.3828 0.9114 -0.1512
vn 0.1586 0.9152 0.3704
vn 0.2970 0.9301 0.2161
vn -0.0250 0.9224 -0.3853
vn -0.1079 0.9611 0.2542
vn 0.3831 0.9142 -0.1326
vn -0.2228 0.9256 0.3059
vn -0.8886 -0.4082 -0.2091
vn -0.9250 -0.2049 0.3201
vn -0.0363 0.4309 0.9017
vn 0.0377 0.3502 -0.9359
vn 0.2424 0.5261 0.8152
vn -0.2351 0.5652 -0.7908
vt 0.534571 0.516495
vt 0.536613 0.648560
vt 0.530355 0.516495
vt 0.537023 0.650172
vt 0.575791 0.516495
vt 0.566110 0.689029
vt 0.565504 0.516495
vt 0.563391 0.683960
vt 0.559031 0.516495
vt 0.546971 0.519713
vt 0.547776 0.693083
vt 0.557457 0.691149
vt 0.543377 0.516495
vt 0.556444 0.518021
vt 0.555195 0.659709
vt 0.545470 0.631736
vt 0.532695 0.523966
vt 0.522905 0.516495
vt 0.534944 0.691512
vt 0.534729 0.647741
vt 0.569785 0.520928
vt 0.581910 0.516495
vt 0.565950 0.668679
vt 0.568315 0.672744
vt 0.549272 0.516495
vt 0.547121 0.516495
vt 0.559516 0.516495
vt 0.557225 0.516495
vt 0.538275 0.791760
vt 0.540637 0.791760
vt 0.557020 0.791760
vt 0.561808 0.791760
vt 0.565557 0.791760
vt 0.564153 0.791760
vt 0.547541 0.791760
vt 0.540481 0.791760
vt 0.549382 0.791760
vt 0.554973 0.791760
vt 0.538258 0.791760
vt 0.563574 0.791760
vt 0.542892 0.906930
vt 0.544889 0.925540
vt 0.556720 0.928591
vt 0.559821 0.906930
vt 0.562856 0.906930
vt 0.561842 0.906930
vt 0.548521 0.981293
vt 0.543524 0.906930
vt 0.551236 0.847519
vt 0.554491 0.981293
vt 0.541289 0.906930
vt 0.543623 0.925540
vt 0.556877 0.928591
vt 0.560939 0.906930
vt 0.564249 0.906930
vt 0.563010 0.906930
vt 0.548397 0.981293
vt 0.542305 0.906930
vt 0.550781 0.847519
vt 0.554904 0.981293
vt 0.558460 0.644895
vt 0.541893 0.644895
vt 0.539097 0.644895
vt 0.541811 0.789085
vt 0.544035 0.789085
vt 0.557206 0.789085
vt 0.560659 0.789085
vt 0.564038 0.789085
vt 0.562909 0.789085
vt 0.548078 0.789085
vt 0.542516 0.789085
vt 0.551101 0.789085
vt 0.554725 0.789085
vt 0.540850 0.789085
vt 0.562191 0.789085
vt 0.558555 0.545542
vt 0.165117 0.465315
vt 0.541698 0.545542
vt 0.124012 0.422155
vt 0.115799 0.324165
vt 0.538853 0.545542
vt 0.562803 0.644895
vt 0.567052 0.644895
vt 0.565633 0.644895
vt 0.546979 0.644895
vt 0.539982 0.644895
vt 0.550781 0.644895
vt 0.555339 0.644895
vt 0.537887 0.644895
vt 0.564730 0.644895
vt 0.176697 0.426718
vt 0.562974 0.545542
vt 0.567298 0.545542
vt 0.188025 0.202206
vt 0.184242 0.108477
vt 0.565854 0.545542
vt 0.134610 0.014796
vt 0.546873 0.545542
vt 0.539754 0.545542
vt 0.116869 0.054492
vt 0.550741 0.545542
vt 0.145542 0.428665
vt 0.156796 0.041893
vt 0.555380 0.545542
vt 0.537622 0.545542
vt 0.111697 0.181005
vt 0.181834 0.342601
vt 0.564935 0.545542
vt 0.141068 0.361460
vt 0.151897 0.109340
vt 0.150597 0.238169
vt 0.561916 0.906930
vt 0.560229 0.906930
vt 0.561730 0.807944
vt 0.561529 0.906930
vt 0.563216 0.906930
vt 0.563085 0.808158
vt 0.542281 0.906930
vt 0.542502 0.906930
vt 0.541051 0.809224
vt 0.541021 0.906930
vt 0.540749 0.906930
vt 0.538656 0.811834
s 0
usemtl AllColors_Material
f 17/17/1 4/4/1 3/3/1
f 12/12/2 7/7/2 9/9/2
f 21/21/3 6/6/3 5/5/3
f 16/16/4 1/1/4 13/13/4
f 21/21/5 14/14/5 28/28/5
f 11/11/6 31/31/6 12/12/6
f 24/24/7 34/34/7 6/6/7
f 6/6/8 38/38/8 15/15/8
f 26/26/9 1/1/9 18/18/9
f 26/26/10 14/14/10 13/13/10
f 6/6/11 14/14/11 5/5/11
f 14/14/12 16/16/12 13/13/12
f 4/4/13 10/10/13 3/3/13
f 10/10/14 12/12/14 9/9/14
f 10/10/15 27/27/15 25/25/15
f 25/25/9 28/28/9 26/26/9
f 10/10/16 17/17/16 3/3/16
f 17/17/17 26/26/17 18/18/17
f 23/23/18 33/33/18 24/24/18
f 16/16/19 36/36/19 2/2/19
f 11/11/20 30/30/20 37/37/20
f 19/19/21 29/29/21 20/20/21
f 23/23/22 32/32/22 40/40/22
f 19/19/23 36/36/23 39/39/23
f 7/7/9 27/27/9 9/9/9
f 27/27/24 21/21/24 28/28/24
f 7/7/25 23/23/25 22/22/25
f 23/23/26 21/21/26 22/22/26
f 1/1/27 19/19/27 18/18/27
f 19/19/28 17/17/28 18/18/28
f 35/35/29 58/58/29 36/36/29
f 38/38/30 56/56/30 60/60/30
f 33/33/31 56/56/31 34/34/31
f 40/40/32 104/116/32 55/55/32
f 31/31/33 59/59/33 53/53/33
f 31/31/34 54/54/34 32/32/34
f 37/37/35 52/52/35 59/59/35
f 8/8/36 31/31/36 32/32/36
f 20/20/37 30/30/37 4/4/37
f 15/15/38 35/35/38 16/16/38
f 39/39/39 110/122/39 51/51/39
f 30/30/40 51/51/40 52/52/40
f 38/38/41 57/57/41 35/35/41
f 42/42/42 51/51/42 41/41/42
f 43/43/43 54/54/43 53/53/43
f 46/46/44 55/55/44 45/45/44
f 48/48/45 57/57/45 47/47/45
f 42/42/46 59/59/46 52/52/46
f 43/43/47 59/59/47 49/49/47
f 46/46/48 60/60/48 56/56/48
f 47/47/44 60/60/44 50/50/44
f 106/118/49 74/74/49 64/64/49
f 48/48/44 109/121/44 58/58/44
f 100/112/50 75/75/50 68/68/50
f 44/44/44 103/115/44 54/54/44
f 46/46/51 73/73/51 50/50/51
f 36/36/52 109/121/52 111/123/52
f 46/46/53 68/68/53 69/69/53
f 49/49/54 66/66/54 43/43/54
f 41/41/44 110/122/44 106/118/44
f 44/44/55 66/66/55 67/67/55
f 32/32/56 103/115/56 105/117/56
f 49/49/57 65/65/57 72/72/57
f 69/69/58 85/88/58 73/73/58
f 74/74/59 63/63/59 64/64/59
f 69/69/60 80/83/60 81/84/60
f 66/66/61 84/87/61 61/61/61
f 71/71/62 86/89/62 74/74/62
f 67/67/63 61/61/63 79/82/63
f 68/68/64 87/90/64 80/83/64
f 65/65/65 84/87/65 72/72/65
f 48/48/66 70/70/66 71/71/66
f 45/45/44 104/116/44 100/112/44
f 41/41/67 65/65/67 42/42/67
f 47/47/68 73/73/68 70/70/68
f 63/63/69 95/105/69 78/81/69
f 80/83/70 90/96/70 81/84/70
f 61/61/71 93/101/71 76/76/71
f 83/86/72 95/105/72 86/89/72
f 61/61/73 88/92/73 79/82/73
f 87/90/74 89/93/74 80/83/74
f 62/62/75 93/101/75 84/87/75
f 82/85/76 94/104/76 91/98/76
f 71/71/77 82/85/77 83/86/77
f 67/67/78 87/90/78 75/75/78
f 65/65/79 63/63/79 62/62/79
f 70/70/80 85/88/80 82/85/80
f 95/106/81 97/109/81 78/80/81
f 88/91/82 93/102/82 97/109/82
f 98/110/83 90/95/83 89/94/83
f 99/111/84 89/94/84 96/107/84
f 97/109/85 77/79/85 78/80/85
f 98/110/86 91/97/86 94/103/86
f 99/111/87 88/91/87 97/109/87
f 98/110/88 95/106/88 92/100/88
f 81/84/89 94/104/89 85/88/89
f 83/86/90 91/98/90 92/99/90
f 79/82/91 96/108/91 87/90/91
f 62/62/92 78/81/92 77/78/92
f 101/113/93 67/67/93 75/75/93
f 107/119/94 71/71/94 74/74/94
f 108/120/95 110/122/95 111/123/95
f 109/121/96 108/120/96 111/123/96
f 103/115/97 102/114/97 105/117/97
f 102/114/98 104/116/98 105/117/98
f 17/17/99 20/20/99 4/4/99
f 12/12/100 8/8/100 7/7/100
f 21/21/101 24/24/101 6/6/101
f 16/16/102 2/2/102 1/1/102
f 21/21/103 5/5/103 14/14/103
f 11/11/104 37/37/104 31/31/104
f 24/24/105 33/33/105 34/34/105
f 6/6/106 34/34/106 38/38/106
f 26/26/9 13/13/9 1/1/9
f 26/26/107 28/28/107 14/14/107
f 6/6/108 15/15/108 14/14/108
f 14/14/109 15/15/109 16/16/109
f 4/4/110 11/11/110 10/10/110
f 10/10/111 11/11/111 12/12/111
f 10/10/112 9/9/112 27/27/112
f 25/25/9 27/27/9 28/28/9
f 10/10/113 25/25/113 17/17/113
f 17/17/114 25/25/114 26/26/114
f 23/23/115 40/40/115 33/33/115
f 16/16/116 35/35/116 36/36/116
f 11/11/117 4/4/117 30/30/117
f 19/19/118 39/39/118 29/29/118
f 23/23/119 8/8/119 32/32/119
f 19/19/120 2/2/120 36/36/120
f 7/7/9 22/22/9 27/27/9
f 27/27/121 22/22/121 21/21/121
f 7/7/122 8/8/122 23/23/122
f 23/23/123 24/24/123 21/21/123
f 1/1/124 2/2/124 19/19/124
f 19/19/125 20/20/125 17/17/125
f 35/35/126 57/57/126 58/58/126
f 38/38/127 34/34/127 56/56/127
f 33/33/31 55/55/31 56/56/31
f 55/55/32 33/33/32 40/40/32
f 40/40/128 105/117/128 104/116/128
f 31/31/129 37/37/129 59/59/129
f 31/31/130 53/53/130 54/54/130
f 37/37/131 30/30/131 52/52/131
f 8/8/132 12/12/132 31/31/132
f 20/20/133 29/29/133 30/30/133
f 15/15/134 38/38/134 35/35/134
f 51/51/135 29/29/135 39/39/135
f 39/39/39 111/123/39 110/122/39
f 30/30/136 29/29/136 51/51/136
f 38/38/137 60/60/137 57/57/137
f 42/42/138 52/52/138 51/51/138
f 43/43/139 44/44/139 54/54/139
f 46/46/44 56/56/44 55/55/44
f 48/48/140 58/58/140 57/57/140
f 42/42/141 49/49/141 59/59/141
f 43/43/142 53/53/142 59/59/142
f 46/46/143 50/50/143 60/60/143
f 47/47/44 57/57/44 60/60/44
f 64/64/49 41/41/49 106/118/49
f 106/118/49 108/120/49 74/74/49
f 48/48/44 107/119/44 109/121/44
f 68/68/144 45/45/144 100/112/144
f 100/112/145 102/114/145 75/75/145
f 44/44/44 101/113/44 103/115/44
f 46/46/146 69/69/146 73/73/146
f 111/123/147 39/39/147 36/36/147
f 36/36/148 58/58/148 109/121/148
f 46/46/149 45/45/149 68/68/149
f 49/49/150 72/72/150 66/66/150
f 41/41/44 51/51/44 110/122/44
f 44/44/151 43/43/151 66/66/151
f 105/117/152 40/40/152 32/32/152
f 32/32/153 54/54/153 103/115/153
f 49/49/154 42/42/154 65/65/154
f 69/69/58 81/84/58 85/88/58
f 74/74/59 86/89/59 63/63/59
f 69/69/60 68/68/60 80/83/60
f 66/66/61 72/72/61 84/87/61
f 71/71/62 83/86/62 86/89/62
f 67/67/63 66/66/63 61/61/63
f 68/68/155 75/75/155 87/90/155
f 65/65/156 62/62/156 84/87/156
f 48/48/157 47/47/157 70/70/157
f 45/45/44 55/55/44 104/116/44
f 41/41/158 64/64/158 65/65/158
f 47/47/68 50/50/68 73/73/68
f 63/63/69 86/89/69 95/105/69
f 80/83/70 89/93/70 90/96/70
f 61/61/71 84/87/71 93/101/71
f 83/86/72 92/99/72 95/105/72
f 61/61/159 76/76/159 88/92/159
f 87/90/160 96/108/160 89/93/160
f 62/62/75 77/78/75 93/101/75
f 82/85/76 85/88/76 94/104/76
f 71/71/77 70/70/77 82/85/77
f 67/67/78 79/82/78 87/90/78
f 65/65/79 64/64/79 63/63/79
f 70/70/80 73/73/80 85/88/80
f 95/106/161 99/111/161 97/109/161
f 88/91/44 76/77/44 93/102/44
f 98/110/162 94/103/162 90/95/162
f 99/111/163 98/110/163 89/94/163
f 97/109/164 93/102/164 77/79/164
f 98/110/165 92/100/165 91/97/165
f 99/111/166 96/107/166 88/91/166
f 98/110/167 99/111/167 95/106/167
f 81/84/89 90/96/89 94/104/89
f 83/86/90 82/85/90 91/98/90
f 79/82/91 88/92/91 96/108/91
f 62/62/92 63/63/92 78/81/92
f 75/75/168 102/114/168 101/113/168
f 101/113/169 44/44/169 67/67/169
f 74/74/94 108/120/94 107/119/94
f 107/119/94 48/48/94 71/71/94
f 108/120/170 106/118/170 110/122/170
f 109/121/171 107/119/171 108/120/171
f 103/115/172 101/113/172 102/114/172
f 102/114/173 100/112/173 104/116/173
